<?xml version="1.0" encoding="us-ascii" standalone="no"?><svg xmlns="http://www.w3.org/2000/svg" xmlns:xlink="http://www.w3.org/1999/xlink" contentStyleType="text/css" height="1266.0262px" preserveAspectRatio="none" style="width:3842px;height:1266px;background:#FFFFFF;" version="1.1" viewBox="0 0 3842 1266" width="3842.0961px" zoomAndPan="magnify"><defs/><g><rect fill="#FFFFFF" height="1226.5939" style="stroke:#181818;stroke-width:1.0480349344978166;" width="371.0044" x="2.0961" y="12.5764"/><text fill="#000000" font-family="sans-serif" font-size="27.2489" font-weight="bold" lengthAdjust="spacing" textLength="324.8908" x="25.1528" y="38.9206">HelixParticipantService</text><text fill="#000000" font-family="sans-serif" font-size="27.2489" font-weight="bold" lengthAdjust="spacing" textLength="358.4279" x="8.3843" y="71.0126">(a dedicated thread pool)</text><rect fill="#FFFFFF" height="1226.5939" style="stroke:#181818;stroke-width:1.0480349344978166;" width="435.9825" x="608.9083" y="12.5764"/><text fill="#000000" font-family="sans-serif" font-size="27.2489" font-weight="bold" lengthAdjust="spacing" textLength="251.5284" x="701.1354" y="38.9206">IngestionBackend</text><rect fill="#FFFFFF" height="1226.5939" style="stroke:#181818;stroke-width:1.0480349344978166;" width="371.0044" x="1049.083" y="12.5764"/><text fill="#000000" font-family="sans-serif" font-size="27.2489" font-weight="bold" lengthAdjust="spacing" textLength="215.8952" x="1114.0611" y="38.9206">A group of SITs</text><text fill="#000000" font-family="sans-serif" font-size="27.2489" font-weight="bold" lengthAdjust="spacing" textLength="358.4279" x="1055.3712" y="71.0126">(a dedicated thread pool)</text><rect fill="#FFFFFF" height="1226.5939" style="stroke:#181818;stroke-width:1.0480349344978166;" width="410.8297" x="2242.7948" y="12.5764"/><text fill="#000000" font-family="sans-serif" font-size="27.2489" font-weight="bold" lengthAdjust="spacing" textLength="324.8908" x="2285.7642" y="38.9206">KafkaConsumerService</text><text fill="#000000" font-family="sans-serif" font-size="27.2489" font-weight="bold" lengthAdjust="spacing" textLength="358.4279" x="2268.9956" y="71.0126">(a dedicated thread pool)</text><rect fill="#FFFFFF" height="1226.5939" style="stroke:#181818;stroke-width:1.0480349344978166;" width="371.0044" x="2715.4585" y="12.5764"/><text fill="#000000" font-family="sans-serif" font-size="27.2489" font-weight="bold" lengthAdjust="spacing" textLength="257.8166" x="2772.0524" y="38.9206">StoreBufferService</text><text fill="#000000" font-family="sans-serif" font-size="27.2489" font-weight="bold" lengthAdjust="spacing" textLength="358.4279" x="2721.7467" y="71.0126">(a dedicated thread pool)</text><line style="stroke:#181818;stroke-width:1.0480349344978166;stroke-dasharray:5.0,5.0;" x1="186.5502" x2="186.5502" y1="159.5306" y2="1101.9023"/><line style="stroke:#181818;stroke-width:1.0480349344978166;stroke-dasharray:5.0,5.0;" x1="826.8996" x2="826.8996" y1="159.5306" y2="1101.9023"/><line style="stroke:#181818;stroke-width:1.0480349344978166;stroke-dasharray:5.0,5.0;" x1="1233.5371" x2="1233.5371" y1="159.5306" y2="1101.9023"/><line style="stroke:#181818;stroke-width:1.0480349344978166;stroke-dasharray:5.0,5.0;" x1="1589.869" x2="1589.869" y1="159.5306" y2="1101.9023"/><line style="stroke:#181818;stroke-width:1.0480349344978166;stroke-dasharray:5.0,5.0;" x1="1973.4498" x2="1973.4498" y1="159.5306" y2="1101.9023"/><line style="stroke:#181818;stroke-width:1.0480349344978166;stroke-dasharray:5.0,5.0;" x1="2448.2096" x2="2448.2096" y1="159.5306" y2="1101.9023"/><line style="stroke:#181818;stroke-width:1.0480349344978166;stroke-dasharray:5.0,5.0;" x1="2899.9127" x2="2899.9127" y1="159.5306" y2="1101.9023"/><line style="stroke:#181818;stroke-width:1.0480349344978166;stroke-dasharray:5.0,5.0;" x1="3210.131" x2="3210.131" y1="159.5306" y2="1101.9023"/><line style="stroke:#181818;stroke-width:1.0480349344978166;stroke-dasharray:5.0,5.0;" x1="3785.5022" x2="3785.5022" y1="159.5306" y2="1101.9023"/><rect fill="#E2E2F0" height="63.9056" rx="5.2402" ry="5.2402" style="stroke:#181818;stroke-width:1.0480349344978166;" width="102.7074" x="136.2445" y="93.5289"/><text fill="#000000" font-family="sans-serif" font-size="29.345" lengthAdjust="spacing" textLength="73.3624" x="150.917" y="136.5721">Helix</text><rect fill="#E2E2F0" height="63.9056" rx="5.2402" ry="5.2402" style="stroke:#181818;stroke-width:1.0480349344978166;" width="102.7074" x="136.2445" y="1099.8062"/><text fill="#000000" font-family="sans-serif" font-size="29.345" lengthAdjust="spacing" textLength="73.3624" x="150.917" y="1142.8493">Helix</text><rect fill="#E2E2F0" height="63.9056" rx="5.2402" ry="5.2402" style="stroke:#181818;stroke-width:1.0480349344978166;" width="419.214" x="617.2926" y="93.5289"/><text fill="#000000" font-family="sans-serif" font-size="29.345" lengthAdjust="spacing" textLength="389.869" x="631.9651" y="136.5721">KafkaStoreIngestionService</text><rect fill="#E2E2F0" height="63.9056" rx="5.2402" ry="5.2402" style="stroke:#181818;stroke-width:1.0480349344978166;" width="419.214" x="617.2926" y="1099.8062"/><text fill="#000000" font-family="sans-serif" font-size="29.345" lengthAdjust="spacing" textLength="389.869" x="631.9651" y="1142.8493">KafkaStoreIngestionService</text><rect fill="#E2E2F0" height="63.9056" style="stroke:#181818;stroke-width:1.0480349344978166;" width="320.6987" x="1078.4279" y="85.1447"/><rect fill="#E2E2F0" height="63.9056" style="stroke:#181818;stroke-width:1.0480349344978166;" width="320.6987" x="1070.0437" y="93.5289"/><text fill="#000000" font-family="sans-serif" font-size="29.345" lengthAdjust="spacing" textLength="291.3537" x="1084.7162" y="136.5721">StoreIngestionTasks</text><rect fill="#E2E2F0" height="63.9056" style="stroke:#181818;stroke-width:1.0480349344978166;" width="320.6987" x="1078.4279" y="1099.8062"/><rect fill="#E2E2F0" height="63.9056" style="stroke:#181818;stroke-width:1.0480349344978166;" width="320.6987" x="1070.0437" y="1108.1905"/><text fill="#000000" font-family="sans-serif" font-size="29.345" lengthAdjust="spacing" textLength="291.3537" x="1084.7162" y="1151.2336">StoreIngestionTasks</text><path d="M1443.1441,104.0093 L1738.69,104.0093 C1749.1703,104.0093 1749.1703,131.7699 1749.1703,131.7699 C1749.1703,131.7699 1749.1703,159.5306 1738.69,159.5306 L1443.1441,159.5306 C1432.6638,159.5306 1432.6638,131.7699 1432.6638,131.7699 C1432.6638,131.7699 1432.6638,104.0093 1443.1441,104.0093 " fill="#E2E2F0" style="stroke:#181818;stroke-width:1.0480349344978166;"/><path d="M1738.69,104.0093 C1728.2096,104.0093 1728.2096,131.7699 1728.2096,131.7699 C1728.2096,159.5306 1738.69,159.5306 1738.69,159.5306 " fill="none" style="stroke:#181818;stroke-width:1.0480349344978166;"/><text fill="#000000" font-family="sans-serif" font-size="29.345" lengthAdjust="spacing" textLength="274.5852" x="1443.1441" y="142.8603">Source Kafka Topic</text><path d="M1443.1441,1099.8062 L1738.69,1099.8062 C1749.1703,1099.8062 1749.1703,1127.5669 1749.1703,1127.5669 C1749.1703,1127.5669 1749.1703,1155.3275 1738.69,1155.3275 L1443.1441,1155.3275 C1432.6638,1155.3275 1432.6638,1127.5669 1432.6638,1127.5669 C1432.6638,1127.5669 1432.6638,1099.8062 1443.1441,1099.8062 " fill="#E2E2F0" style="stroke:#181818;stroke-width:1.0480349344978166;"/><path d="M1738.69,1099.8062 C1728.2096,1099.8062 1728.2096,1127.5669 1728.2096,1127.5669 C1728.2096,1155.3275 1738.69,1155.3275 1738.69,1155.3275 " fill="none" style="stroke:#181818;stroke-width:1.0480349344978166;"/><text fill="#000000" font-family="sans-serif" font-size="29.345" lengthAdjust="spacing" textLength="274.5852" x="1443.1441" y="1138.6572">Source Kafka Topic</text><path d="M1780.6114,104.0093 L2168.3843,104.0093 C2178.8646,104.0093 2178.8646,131.7699 2178.8646,131.7699 C2178.8646,131.7699 2178.8646,159.5306 2168.3843,159.5306 L1780.6114,159.5306 C1770.131,159.5306 1770.131,131.7699 1770.131,131.7699 C1770.131,131.7699 1770.131,104.0093 1780.6114,104.0093 " fill="#E2E2F0" style="stroke:#181818;stroke-width:1.0480349344978166;"/><path d="M2168.3843,104.0093 C2157.9039,104.0093 2157.9039,131.7699 2157.9039,131.7699 C2157.9039,159.5306 2168.3843,159.5306 2168.3843,159.5306 " fill="none" style="stroke:#181818;stroke-width:1.0480349344978166;"/><text fill="#000000" font-family="sans-serif" font-size="29.345" lengthAdjust="spacing" textLength="366.8122" x="1780.6114" y="142.8603">Local Kafka Version Topic</text><path d="M1780.6114,1099.8062 L2168.3843,1099.8062 C2178.8646,1099.8062 2178.8646,1127.5669 2178.8646,1127.5669 C2178.8646,1127.5669 2178.8646,1155.3275 2168.3843,1155.3275 L1780.6114,1155.3275 C1770.131,1155.3275 1770.131,1127.5669 1770.131,1127.5669 C1770.131,1127.5669 1770.131,1099.8062 1780.6114,1099.8062 " fill="#E2E2F0" style="stroke:#181818;stroke-width:1.0480349344978166;"/><path d="M2168.3843,1099.8062 C2157.9039,1099.8062 2157.9039,1127.5669 2157.9039,1127.5669 C2157.9039,1155.3275 2168.3843,1155.3275 2168.3843,1155.3275 " fill="none" style="stroke:#181818;stroke-width:1.0480349344978166;"/><text fill="#000000" font-family="sans-serif" font-size="29.345" lengthAdjust="spacing" textLength="366.8122" x="1780.6114" y="1138.6572">Local Kafka Version Topic</text><rect fill="#E2E2F0" height="63.9056" style="stroke:#181818;stroke-width:1.0480349344978166;" width="385.6769" x="2259.5633" y="85.1447"/><rect fill="#E2E2F0" height="63.9056" style="stroke:#181818;stroke-width:1.0480349344978166;" width="385.6769" x="2251.179" y="93.5289"/><text fill="#000000" font-family="sans-serif" font-size="29.345" lengthAdjust="spacing" textLength="356.3319" x="2265.8515" y="136.5721">KafkaConsumptionTasks</text><rect fill="#E2E2F0" height="63.9056" style="stroke:#181818;stroke-width:1.0480349344978166;" width="385.6769" x="2259.5633" y="1099.8062"/><rect fill="#E2E2F0" height="63.9056" style="stroke:#181818;stroke-width:1.0480349344978166;" width="385.6769" x="2251.179" y="1108.1905"/><text fill="#000000" font-family="sans-serif" font-size="29.345" lengthAdjust="spacing" textLength="356.3319" x="2265.8515" y="1151.2336">KafkaConsumptionTasks</text><rect fill="#E2E2F0" height="63.9056" style="stroke:#181818;stroke-width:1.0480349344978166;" width="312.3144" x="2748.9956" y="85.1447"/><rect fill="#E2E2F0" height="63.9056" style="stroke:#181818;stroke-width:1.0480349344978166;" width="312.3144" x="2740.6114" y="93.5289"/><text fill="#000000" font-family="sans-serif" font-size="29.345" lengthAdjust="spacing" textLength="282.9694" x="2755.2838" y="136.5721">StoreBufferDrainers</text><rect fill="#E2E2F0" height="63.9056" style="stroke:#181818;stroke-width:1.0480349344978166;" width="312.3144" x="2748.9956" y="1099.8062"/><rect fill="#E2E2F0" height="63.9056" style="stroke:#181818;stroke-width:1.0480349344978166;" width="312.3144" x="2740.6114" y="1108.1905"/><text fill="#000000" font-family="sans-serif" font-size="29.345" lengthAdjust="spacing" textLength="282.9694" x="2755.2838" y="1151.2336">StoreBufferDrainers</text><text fill="#000000" font-family="sans-serif" font-size="29.345" lengthAdjust="spacing" textLength="209.607" x="3099.0393" y="153.3406">StorageEngine</text><path d="M3172.4017,49.5115 C3172.4017,28.5508 3210.131,28.5508 3210.131,28.5508 C3210.131,28.5508 3247.8603,28.5508 3247.8603,49.5115 L3247.8603,104.0093 C3247.8603,124.97 3210.131,124.97 3210.131,124.97 C3210.131,124.97 3172.4017,124.97 3172.4017,104.0093 L3172.4017,49.5115 " fill="#E2E2F0" style="stroke:#181818;stroke-width:3.14410480349345;"/><path d="M3172.4017,49.5115 C3172.4017,70.4722 3210.131,70.4722 3210.131,70.4722 C3210.131,70.4722 3247.8603,70.4722 3247.8603,49.5115 " fill="none" style="stroke:#181818;stroke-width:3.14410480349345;"/><text fill="#000000" font-family="sans-serif" font-size="29.345" lengthAdjust="spacing" textLength="209.607" x="3099.0393" y="1128.1769">StorageEngine</text><path d="M3172.4017,1155.3275 C3172.4017,1134.3668 3210.131,1134.3668 3210.131,1134.3668 C3210.131,1134.3668 3247.8603,1134.3668 3247.8603,1155.3275 L3247.8603,1209.8253 C3247.8603,1230.786 3210.131,1230.786 3210.131,1230.786 C3210.131,1230.786 3172.4017,1230.786 3172.4017,1209.8253 L3172.4017,1155.3275 " fill="#E2E2F0" style="stroke:#181818;stroke-width:3.14410480349345;"/><path d="M3172.4017,1155.3275 C3172.4017,1176.2882 3210.131,1176.2882 3210.131,1176.2882 C3210.131,1176.2882 3247.8603,1176.2882 3247.8603,1155.3275 " fill="none" style="stroke:#181818;stroke-width:3.14410480349345;"/><rect fill="#E2E2F0" height="63.9056" rx="5.2402" ry="5.2402" style="stroke:#181818;stroke-width:1.0480349344978166;" width="88.0349" x="3741.4847" y="93.5289"/><text fill="#000000" font-family="sans-serif" font-size="29.345" lengthAdjust="spacing" textLength="58.69" x="3756.1572" y="136.5721">SITs</text><rect fill="#E2E2F0" height="63.9056" rx="5.2402" ry="5.2402" style="stroke:#181818;stroke-width:1.0480349344978166;" width="88.0349" x="3741.4847" y="1099.8062"/><text fill="#000000" font-family="sans-serif" font-size="29.345" lengthAdjust="spacing" textLength="58.69" x="3756.1572" y="1142.8493">SITs</text><polygon fill="#181818" points="801.7467,248.8674,822.7074,257.2516,801.7467,265.6359,810.131,257.2516" style="stroke:#181818;stroke-width:2.096069868995633;"/><line style="stroke:#181818;stroke-width:2.096069868995633;" x1="187.5983" x2="814.3231" y1="257.2516" y2="257.2516"/><text fill="#000000" font-family="sans-serif" font-size="27.2489" lengthAdjust="spacing" textLength="293.4498" x="202.2707" y="215.2197">Issue state transitions</text><text fill="#000000" font-family="sans-serif" font-size="27.2489" lengthAdjust="spacing" textLength="463.2314" x="202.2707" y="247.3117">according to partition assignments</text><polygon fill="#181818" points="3760.3493,342.3963,3781.31,350.7806,3760.3493,359.1648,3768.7336,350.7806" style="stroke:#181818;stroke-width:2.096069868995633;"/><line style="stroke:#181818;stroke-width:2.096069868995633;" x1="826.8996" x2="3772.9258" y1="350.7806" y2="350.7806"/><text fill="#000000" font-family="sans-serif" font-size="27.2489" lengthAdjust="spacing" textLength="274.5852" x="841.5721" y="308.7486">Manage lifecycle and</text><text fill="#000000" font-family="sans-serif" font-size="27.2489" lengthAdjust="spacing" textLength="324.8908" x="841.5721" y="340.8406">send commands for SITs</text><polygon fill="#FF0000" points="1613.9738,500.1092,1593.0131,508.4934,1613.9738,516.8777,1605.5895,508.4934" style="stroke:#FF0000;stroke-width:2.096069868995633;"/><line style="stroke:#FF0000;stroke-width:2.096069868995633;" x1="1601.3974" x2="3783.4061" y1="508.4934" y2="508.4934"/><text fill="#000000" font-family="sans-serif" font-size="27.2489" lengthAdjust="spacing" textLength="272.4891" x="1626.5502" y="402.2776">Leaders subscribe to</text><text fill="#000000" font-family="sans-serif" font-size="27.2489" lengthAdjust="spacing" textLength="259.9127" x="1626.5502" y="434.3695">source kafka topics</text><text fill="#000000" font-family="sans-serif" font-size="27.2489" lengthAdjust="spacing" textLength="576.4192" x="1626.5502" y="466.4615">(a remote Version Topic or Real-time Topic)</text><text fill="#000000" font-family="sans-serif" font-size="27.2489" lengthAdjust="spacing" textLength="347.9476" x="1626.5502" y="498.5535">when consuming remotely</text><polygon fill="#FF0000" points="2423.0568,561.5461,2444.0175,569.9304,2423.0568,578.3147,2431.441,569.9304" style="stroke:#FF0000;stroke-width:2.096069868995633;"/><line style="stroke:#FF0000;stroke-width:2.096069868995633;" x1="1590.917" x2="2435.6332" y1="569.9304" y2="569.9304"/><text fill="#000000" font-family="sans-serif" font-size="27.2489" lengthAdjust="spacing" textLength="280.8734" x="1605.5895" y="559.9904">Pull msgs from kafka</text><polygon fill="#FF0000" points="1997.5546,655.0751,1976.5939,663.4593,1997.5546,671.8436,1989.1703,663.4593" style="stroke:#FF0000;stroke-width:2.096069868995633;"/><line style="stroke:#FF0000;stroke-width:2.096069868995633;" x1="1984.9782" x2="2446.1135" y1="663.4593" y2="663.4593"/><text fill="#000000" font-family="sans-serif" font-size="27.2489" lengthAdjust="spacing" textLength="333.2751" x="2010.131" y="621.4274">Produce msgs to local VT</text><text fill="#000000" font-family="sans-serif" font-size="27.2489" lengthAdjust="spacing" textLength="423.4061" x="2010.131" y="653.5194">when leader consumes remotely</text><polygon fill="#FF0000" points="2875.8079,748.604,2896.7686,756.9883,2875.8079,765.3725,2884.1921,756.9883" style="stroke:#FF0000;stroke-width:2.096069868995633;"/><line style="stroke:#FF0000;stroke-width:2.096069868995633;" x1="1974.4978" x2="2888.3843" y1="756.9883" y2="756.9883"/><text fill="#000000" font-family="sans-serif" font-size="27.2489" lengthAdjust="spacing" textLength="280.8734" x="1989.1703" y="714.9563">Msgs Acked by Kafka</text><text fill="#000000" font-family="sans-serif" font-size="27.2489" lengthAdjust="spacing" textLength="488.3843" x="1989.1703" y="747.0483">then records queued up into drainers</text><polygon fill="#008000" points="1997.5546,810.0409,1976.5939,818.4252,1997.5546,826.8095,1989.1703,818.4252" style="stroke:#008000;stroke-width:2.096069868995633;"/><line style="stroke:#008000;stroke-width:2.096069868995633;" x1="1984.9782" x2="3783.4061" y1="818.4252" y2="818.4252"/><text fill="#000000" font-family="sans-serif" font-size="27.2489" lengthAdjust="spacing" textLength="410.8297" x="2010.131" y="808.4853">Followers subscribe to local VT</text><polygon fill="#008000" points="2423.0568,871.4779,2444.0175,879.8622,2423.0568,888.2465,2431.441,879.8622" style="stroke:#008000;stroke-width:2.096069868995633;"/><line style="stroke:#008000;stroke-width:2.096069868995633;" x1="1974.4978" x2="2435.6332" y1="879.8622" y2="879.8622"/><text fill="#000000" font-family="sans-serif" font-size="27.2489" lengthAdjust="spacing" textLength="280.8734" x="1989.1703" y="869.9222">Pull msgs from kafka</text><polygon fill="#008000" points="2875.8079,932.9148,2896.7686,941.2991,2875.8079,949.6834,2884.1921,941.2991" style="stroke:#008000;stroke-width:2.096069868995633;"/><line style="stroke:#008000;stroke-width:2.096069868995633;" x1="2448.2096" x2="2888.3843" y1="941.2991" y2="941.2991"/><text fill="#000000" font-family="sans-serif" font-size="27.2489" lengthAdjust="spacing" textLength="385.6769" x="2462.8821" y="931.3592">Records queued into drainers</text><polygon fill="#181818" points="3760.3493,994.3518,3781.31,1002.7361,3760.3493,1011.1204,3768.7336,1002.7361" style="stroke:#181818;stroke-width:2.096069868995633;"/><line style="stroke:#181818;stroke-width:2.096069868995633;" x1="2900.9607" x2="3772.9258" y1="1002.7361" y2="1002.7361"/><text fill="#000000" font-family="sans-serif" font-size="27.2489" lengthAdjust="spacing" textLength="817.4672" x="2915.6332" y="992.7961">Dequeue the records and invoke methods from SITs to persist</text><polygon fill="#181818" points="3233.1878,1055.7888,3212.2271,1064.173,3233.1878,1072.5573,3224.8035,1064.173" style="stroke:#181818;stroke-width:2.096069868995633;"/><line style="stroke:#181818;stroke-width:2.096069868995633;" x1="3220.6114" x2="3783.4061" y1="1064.173" y2="1064.173"/><text fill="#000000" font-family="sans-serif" font-size="27.2489" lengthAdjust="spacing" textLength="459.0393" x="3245.7642" y="1054.2331">Persist records into storage engine</text><!--SRC=[dLJBRjim4BppAnRs8Ks10Ea3HQ53W2HkKIC9OCI2UwXxeCILH5WYLPBAu- -xIygl840VFXYsE9oPtPtL2KodKvYXBvtkWxP6d43UQ0zAozh93bGyAj13OnyXD0W-M8UWJOsUBq2GVWDqetGe0ogGHX49VH_Sa67mu7LjP1kXrlYX8spn39OGZfvqlJLeWXV2bx95-F3vu_dRz-y-dGjHs2UO07p3LZyjf0kwrBqqOOdkGPUuDcyasLIwZFAX8HyAUclRqmbClpSweEZtjn8DI2g8VmWaeoIGHERRggvakQ6JoIltRsIraKjkmWuzEc7Ic_doc1BIvn9gPuSUR0NBUUx_ndHfsnPBvlTmh9TJopsh4TLUxjU00y9aQGT7Ng9Do6slomb37NQMI4VGhQKcZvWLEi-3t6DN-TPxH5odSRb_QFYXzqEI_iZ-pNN-QhTYjLT3LVs_vW75p4bjgCROiAlPNb7980lfkMU4bZL-CJKXOmjK8KGC29nTy52pkVT3YZ92SD9udPJMHfQbTOeM0eA5c9Iu5z9puBkOQI9W7fvyTYSDIK6hAooVIqewhyhQU7P5Qz3HNm-LTH4j1EtI55ggbhQam4O-QEi47y7PZwb3zVDY76rs6q6qPqEHTfRz477AmoREEl2CsJIrCrqx7Z-GxZtAzYpe3jEZKq8_DcZ6hUKwqytsMOmKEoSyq6mnj2rqlgOgdEsIiE2JFMwLPmjdrK2-8f2CjZ6HgtohDfOylYhyNfCWEnuUPtR739Uqh_5zaZAzDe597F9eFCJKAw3zquQqr9Y8rDoAScCVNsjlxH1Diljr1BrexzRrw6fxuSzzs29Z1VV7DbzuPCWkFJDC6yplrMrr721j7ko6kecXiMfKZ6Lm9dd2FenbNL2siqLwjAE8aZvj0M1S0_4R]--></g></svg>