<?xml version="1.0" encoding="us-ascii" standalone="no"?><svg xmlns="http://www.w3.org/2000/svg" xmlns:xlink="http://www.w3.org/1999/xlink" contentStyleType="text/css" height="1276.8324px" preserveAspectRatio="none" style="width:3840px;height:1276px;background:#FFFFFF;" version="1.1" viewBox="0 0 3840 1276" width="3840.8639px" zoomAndPan="magnify"><defs/><g><rect fill="#FFFFFF" height="1257.3375" style="stroke:#181818;stroke-width:0.8638920134983127;" width="285.0844" x="1.7278" y="10.3667"/><text fill="#000000" font-family="sans-serif" font-size="22.4612" font-weight="bold" lengthAdjust="spacing" textLength="222.8841" x="32.8279" y="32.0821">StoreIngestionTask</text><rect fill="#FFFFFF" height="1257.3375" style="stroke:#181818;stroke-width:0.8638920134983127;" width="1365.8133" x="704.9359" y="10.3667"/><text fill="#000000" font-family="sans-serif" font-size="22.4612" font-weight="bold" lengthAdjust="spacing" textLength="98.4837" x="1338.6007" y="32.0821">Notifiers</text><line style="stroke:#181818;stroke-width:0.8638920134983127;stroke-dasharray:5.0,5.0;" x1="143.4061" x2="143.4061" y1="126.6243" y2="1179.6277"/><line style="stroke:#181818;stroke-width:0.8638920134983127;stroke-dasharray:5.0,5.0;" x1="495.874" x2="495.874" y1="126.6243" y2="1179.6277"/><line style="stroke:#181818;stroke-width:0.8638920134983127;stroke-dasharray:5.0,5.0;" x1="767.1361" x2="767.1361" y1="126.6243" y2="1179.6277"/><line style="stroke:#181818;stroke-width:0.8638920134983127;stroke-dasharray:5.0,5.0;" x1="1009.0259" x2="1009.0259" y1="126.6243" y2="1179.6277"/><line style="stroke:#181818;stroke-width:0.8638920134983127;stroke-dasharray:5.0,5.0;" x1="1409.0079" x2="1409.0079" y1="126.6243" y2="1179.6277"/><line style="stroke:#181818;stroke-width:0.8638920134983127;stroke-dasharray:5.0,5.0;" x1="1704.4589" x2="1704.4589" y1="126.6243" y2="1179.6277"/><line style="stroke:#181818;stroke-width:0.8638920134983127;stroke-dasharray:5.0,5.0;" x1="1935.982" x2="1935.982" y1="126.6243" y2="1179.6277"/><line style="stroke:#181818;stroke-width:0.8638920134983127;stroke-dasharray:5.0,5.0;" x1="2222.7942" x2="2222.7942" y1="126.6243" y2="1179.6277"/><line style="stroke:#181818;stroke-width:0.8638920134983127;stroke-dasharray:5.0,5.0;" x1="2582.1732" x2="2582.1732" y1="126.6243" y2="1179.6277"/><line style="stroke:#181818;stroke-width:0.8638920134983127;stroke-dasharray:5.0,5.0;" x1="2792.9629" x2="2792.9629" y1="126.6243" y2="1179.6277"/><line style="stroke:#181818;stroke-width:0.8638920134983127;stroke-dasharray:5.0,5.0;" x1="3072" x2="3072" y1="126.6243" y2="1179.6277"/><line style="stroke:#181818;stroke-width:0.8638920134983127;stroke-dasharray:5.0,5.0;" x1="3246.5062" x2="3246.5062" y1="126.6243" y2="1179.6277"/><line style="stroke:#181818;stroke-width:0.8638920134983127;stroke-dasharray:5.0,5.0;" x1="3667.2216" x2="3667.2216" y1="126.6243" y2="1179.6277"/><rect fill="#E2E2F0" height="52.6772" rx="4.3195" ry="4.3195" style="stroke:#181818;stroke-width:0.8638920134983127;" width="271.2621" x="8.6389" y="72.2193"/><text fill="#000000" font-family="sans-serif" font-size="24.189" lengthAdjust="spacing" textLength="247.0731" x="20.7334" y="107.6997">StatusReportAdapter</text><rect fill="#E2E2F0" height="52.6772" rx="4.3195" ry="4.3195" style="stroke:#181818;stroke-width:0.8638920134983127;" width="271.2621" x="8.6389" y="1177.8999"/><text fill="#000000" font-family="sans-serif" font-size="24.189" lengthAdjust="spacing" textLength="247.0731" x="20.7334" y="1213.3802">StatusReportAdapter</text><rect fill="#E2E2F0" height="52.6772" rx="4.3195" ry="4.3195" style="stroke:#181818;stroke-width:0.8638920134983127;" width="397.3903" x="297.1789" y="72.2193"/><text fill="#000000" font-family="sans-serif" font-size="24.189" lengthAdjust="spacing" textLength="373.2013" x="309.2733" y="107.6997">IngestionNotificationDispatcher</text><rect fill="#E2E2F0" height="52.6772" rx="4.3195" ry="4.3195" style="stroke:#181818;stroke-width:0.8638920134983127;" width="397.3903" x="297.1789" y="1177.8999"/><text fill="#000000" font-family="sans-serif" font-size="24.189" lengthAdjust="spacing" textLength="373.2013" x="309.2733" y="1213.3802">IngestionNotificationDispatcher</text><rect fill="#E2E2F0" height="81.1654" rx="4.3195" ry="4.3195" style="stroke:#181818;stroke-width:0.8638920134983127;" width="112.306" x="711.847" y="43.7312"/><text fill="#000000" font-family="sans-serif" font-size="24.189" lengthAdjust="spacing" textLength="43.1946" x="746.4027" y="79.2115">Log</text><text fill="#000000" font-family="sans-serif" font-size="24.189" lengthAdjust="spacing" textLength="88.117" x="723.9415" y="107.6997">Notifier</text><rect fill="#E2E2F0" height="81.1654" rx="4.3195" ry="4.3195" style="stroke:#181818;stroke-width:0.8638920134983127;" width="112.306" x="711.847" y="1177.8999"/><text fill="#000000" font-family="sans-serif" font-size="24.189" lengthAdjust="spacing" textLength="43.1946" x="746.4027" y="1213.3802">Log</text><text fill="#000000" font-family="sans-serif" font-size="24.189" lengthAdjust="spacing" textLength="88.117" x="723.9415" y="1241.8684">Notifier</text><rect fill="#E2E2F0" height="81.1654" rx="4.3195" ry="4.3195" style="stroke:#181818;stroke-width:0.8638920134983127;" width="336.9179" x="841.4308" y="43.7312"/><text fill="#000000" font-family="sans-serif" font-size="24.189" lengthAdjust="spacing" textLength="312.7289" x="853.5253" y="79.2115">LeaderFollowerStateModel</text><text fill="#000000" font-family="sans-serif" font-size="24.189" lengthAdjust="spacing" textLength="88.117" x="965.8313" y="107.6997">Notifier</text><rect fill="#E2E2F0" height="81.1654" rx="4.3195" ry="4.3195" style="stroke:#181818;stroke-width:0.8638920134983127;" width="336.9179" x="841.4308" y="1177.8999"/><text fill="#000000" font-family="sans-serif" font-size="24.189" lengthAdjust="spacing" textLength="312.7289" x="853.5253" y="1213.3802">LeaderFollowerStateModel</text><text fill="#000000" font-family="sans-serif" font-size="24.189" lengthAdjust="spacing" textLength="88.117" x="965.8313" y="1241.8684">Notifier</text><rect fill="#E2E2F0" height="81.1654" rx="4.3195" ry="4.3195" style="stroke:#181818;stroke-width:0.8638920134983127;" width="383.5681" x="1217.2238" y="43.7312"/><text fill="#000000" font-family="sans-serif" font-size="24.189" lengthAdjust="spacing" textLength="359.3791" x="1229.3183" y="79.2115">MetaSystemStoreReplicaStatus</text><text fill="#000000" font-family="sans-serif" font-size="24.189" lengthAdjust="spacing" textLength="88.117" x="1364.9494" y="107.6997">Notifier</text><rect fill="#E2E2F0" height="81.1654" rx="4.3195" ry="4.3195" style="stroke:#181818;stroke-width:0.8638920134983127;" width="383.5681" x="1217.2238" y="1177.8999"/><text fill="#000000" font-family="sans-serif" font-size="24.189" lengthAdjust="spacing" textLength="359.3791" x="1229.3183" y="1213.3802">MetaSystemStoreReplicaStatus</text><text fill="#000000" font-family="sans-serif" font-size="24.189" lengthAdjust="spacing" textLength="88.117" x="1364.9494" y="1241.8684">Notifier</text><rect fill="#E2E2F0" height="81.1654" rx="4.3195" ry="4.3195" style="stroke:#181818;stroke-width:0.8638920134983127;" width="174.5062" x="1618.0697" y="43.7312"/><text fill="#000000" font-family="sans-serif" font-size="24.189" lengthAdjust="spacing" textLength="150.3172" x="1630.1642" y="79.2115">PushMonitor</text><text fill="#000000" font-family="sans-serif" font-size="24.189" lengthAdjust="spacing" textLength="88.117" x="1661.2643" y="107.6997">Notifier</text><rect fill="#E2E2F0" height="81.1654" rx="4.3195" ry="4.3195" style="stroke:#181818;stroke-width:0.8638920134983127;" width="174.5062" x="1618.0697" y="1177.8999"/><text fill="#000000" font-family="sans-serif" font-size="24.189" lengthAdjust="spacing" textLength="150.3172" x="1630.1642" y="1213.3802">PushMonitor</text><text fill="#000000" font-family="sans-serif" font-size="24.189" lengthAdjust="spacing" textLength="88.117" x="1661.2643" y="1241.8684">Notifier</text><rect fill="#E2E2F0" height="81.1654" rx="4.3195" ry="4.3195" style="stroke:#181818;stroke-width:0.8638920134983127;" width="253.9843" x="1809.8538" y="43.7312"/><text fill="#000000" font-family="sans-serif" font-size="24.189" lengthAdjust="spacing" textLength="229.7953" x="1821.9483" y="79.2115">PartitionPushStatus</text><text fill="#000000" font-family="sans-serif" font-size="24.189" lengthAdjust="spacing" textLength="88.117" x="1892.7874" y="107.6997">Notifier</text><rect fill="#E2E2F0" height="81.1654" rx="4.3195" ry="4.3195" style="stroke:#181818;stroke-width:0.8638920134983127;" width="253.9843" x="1809.8538" y="1177.8999"/><text fill="#000000" font-family="sans-serif" font-size="24.189" lengthAdjust="spacing" textLength="229.7953" x="1821.9483" y="1213.3802">PartitionPushStatus</text><text fill="#000000" font-family="sans-serif" font-size="24.189" lengthAdjust="spacing" textLength="88.117" x="1892.7874" y="1241.8684">Notifier</text><path d="M2089.7548,80.8583 L2357.5613,80.8583 C2366.2002,80.8583 2366.2002,103.7413 2366.2002,103.7413 C2366.2002,103.7413 2366.2002,126.6243 2357.5613,126.6243 L2089.7548,126.6243 C2081.1159,126.6243 2081.1159,103.7413 2081.1159,103.7413 C2081.1159,103.7413 2081.1159,80.8583 2089.7548,80.8583 " fill="#E2E2F0" style="stroke:#181818;stroke-width:0.8638920134983127;"/><path d="M2357.5613,80.8583 C2348.9224,80.8583 2348.9224,103.7413 2348.9224,103.7413 C2348.9224,126.6243 2357.5613,126.6243 2357.5613,126.6243 " fill="none" style="stroke:#181818;stroke-width:0.8638920134983127;"/><text fill="#000000" font-family="sans-serif" font-size="24.189" lengthAdjust="spacing" textLength="250.5287" x="2089.7548" y="112.883">Meta system store RT</text><path d="M2089.7548,1177.8999 L2357.5613,1177.8999 C2366.2002,1177.8999 2366.2002,1200.7829 2366.2002,1200.7829 C2366.2002,1200.7829 2366.2002,1223.6659 2357.5613,1223.6659 L2089.7548,1223.6659 C2081.1159,1223.6659 2081.1159,1200.7829 2081.1159,1200.7829 C2081.1159,1200.7829 2081.1159,1177.8999 2089.7548,1177.8999 " fill="#E2E2F0" style="stroke:#181818;stroke-width:0.8638920134983127;"/><path d="M2357.5613,1177.8999 C2348.9224,1177.8999 2348.9224,1200.7829 2348.9224,1200.7829 C2348.9224,1223.6659 2357.5613,1223.6659 2357.5613,1223.6659 " fill="none" style="stroke:#181818;stroke-width:0.8638920134983127;"/><text fill="#000000" font-family="sans-serif" font-size="24.189" lengthAdjust="spacing" textLength="250.5287" x="2089.7548" y="1209.9246">Meta system store RT</text><rect fill="#E2E2F0" height="52.6772" rx="4.3195" ry="4.3195" style="stroke:#181818;stroke-width:0.8638920134983127;" width="233.2508" x="2466.4117" y="72.2193"/><text fill="#000000" font-family="sans-serif" font-size="24.189" lengthAdjust="spacing" textLength="209.0619" x="2478.5062" y="107.6997">Venice Fast Client</text><rect fill="#E2E2F0" height="52.6772" rx="4.3195" ry="4.3195" style="stroke:#181818;stroke-width:0.8638920134983127;" width="233.2508" x="2466.4117" y="1177.8999"/><text fill="#000000" font-family="sans-serif" font-size="24.189" lengthAdjust="spacing" textLength="209.0619" x="2478.5062" y="1213.3802">Venice Fast Client</text><rect fill="#E2E2F0" height="52.6772" rx="4.3195" ry="4.3195" style="stroke:#181818;stroke-width:0.8638920134983127;" width="152.045" x="2716.9404" y="72.2193"/><text fill="#000000" font-family="sans-serif" font-size="24.189" lengthAdjust="spacing" textLength="127.856" x="2729.0349" y="107.6997">ZooKeeper</text><rect fill="#E2E2F0" height="52.6772" rx="4.3195" ry="4.3195" style="stroke:#181818;stroke-width:0.8638920134983127;" width="152.045" x="2716.9404" y="1177.8999"/><text fill="#000000" font-family="sans-serif" font-size="24.189" lengthAdjust="spacing" textLength="127.856" x="2729.0349" y="1213.3802">ZooKeeper</text><rect fill="#E2E2F0" height="52.6772" rx="4.3195" ry="4.3195" style="stroke:#181818;stroke-width:0.8638920134983127;" width="229.7953" x="2957.9663" y="72.2193"/><text fill="#000000" font-family="sans-serif" font-size="24.189" lengthAdjust="spacing" textLength="205.6063" x="2970.0607" y="107.6997">Venice Controller</text><rect fill="#E2E2F0" height="52.6772" rx="4.3195" ry="4.3195" style="stroke:#181818;stroke-width:0.8638920134983127;" width="229.7953" x="2957.9663" y="1177.8999"/><text fill="#000000" font-family="sans-serif" font-size="24.189" lengthAdjust="spacing" textLength="205.6063" x="2970.0607" y="1213.3802">Venice Controller</text><rect fill="#E2E2F0" height="52.6772" rx="4.3195" ry="4.3195" style="stroke:#181818;stroke-width:0.8638920134983127;" width="84.6614" x="3205.0394" y="72.2193"/><text fill="#000000" font-family="sans-serif" font-size="24.189" lengthAdjust="spacing" textLength="60.4724" x="3217.1339" y="107.6997">Helix</text><rect fill="#E2E2F0" height="52.6772" rx="4.3195" ry="4.3195" style="stroke:#181818;stroke-width:0.8638920134983127;" width="84.6614" x="3205.0394" y="1177.8999"/><text fill="#000000" font-family="sans-serif" font-size="24.189" lengthAdjust="spacing" textLength="60.4724" x="3217.1339" y="1213.3802">Helix</text><rect fill="#E2E2F0" height="81.1654" rx="4.3195" ry="4.3195" style="stroke:#181818;stroke-width:0.8638920134983127;" width="328.279" x="3503.0821" y="43.7312"/><text fill="#000000" font-family="sans-serif" font-size="24.189" lengthAdjust="spacing" textLength="219.4286" x="3557.5073" y="79.2115">Venice component</text><text fill="#000000" font-family="sans-serif" font-size="24.189" lengthAdjust="spacing" textLength="304.09" x="3515.1766" y="107.6997">(server/controller/router)</text><rect fill="#E2E2F0" height="81.1654" rx="4.3195" ry="4.3195" style="stroke:#181818;stroke-width:0.8638920134983127;" width="328.279" x="3503.0821" y="1177.8999"/><text fill="#000000" font-family="sans-serif" font-size="24.189" lengthAdjust="spacing" textLength="219.4286" x="3557.5073" y="1213.3802">Venice component</text><text fill="#000000" font-family="sans-serif" font-size="24.189" lengthAdjust="spacing" textLength="304.09" x="3515.1766" y="1241.8684">(server/controller/router)</text><polygon fill="#181818" points="475.1406,173.811,492.4184,180.7222,475.1406,187.6333,482.0517,180.7222" style="stroke:#181818;stroke-width:1.7277840269966254;"/><line style="stroke:#181818;stroke-width:1.7277840269966254;" x1="144.27" x2="485.5073" y1="180.7222" y2="180.7222"/><text fill="#000000" font-family="sans-serif" font-size="22.4612" lengthAdjust="spacing" textLength="145.1339" x="156.3645" y="172.5287">Report status</text><polygon fill="#181818" points="747.2666,198,764.5444,204.9111,747.2666,211.8223,754.1777,204.9111" style="stroke:#181818;stroke-width:1.7277840269966254;"/><line style="stroke:#181818;stroke-width:1.7277840269966254;stroke-dasharray:2.0,2.0;" x1="495.874" x2="757.6333" y1="204.9111" y2="204.9111"/><line style="stroke:#181818;stroke-width:1.7277840269966254;" x1="768" x2="840.5669" y1="255.5534" y2="255.5534"/><line style="stroke:#181818;stroke-width:1.7277840269966254;" x1="840.5669" x2="840.5669" y1="255.5534" y2="278.0146"/><line style="stroke:#181818;stroke-width:1.7277840269966254;" x1="769.7278" x2="840.5669" y1="278.0146" y2="278.0146"/><polygon fill="#181818" points="787.0056,271.1035,769.7278,278.0146,787.0056,284.9258,780.0945,278.0146" style="stroke:#181818;stroke-width:1.7277840269966254;"/><text fill="#000000" font-family="sans-serif" font-size="22.4612" lengthAdjust="spacing" textLength="183.1451" x="780.0945" y="247.36">Log the message</text><polygon fill="#181818" points="989.1564,295.2925,1006.4342,302.2036,989.1564,309.1147,996.0675,302.2036" style="stroke:#181818;stroke-width:1.7277840269966254;"/><line style="stroke:#181818;stroke-width:1.7277840269966254;stroke-dasharray:2.0,2.0;" x1="495.874" x2="999.5231" y1="302.2036" y2="302.2036"/><line style="stroke:#181818;stroke-width:1.7277840269966254;" x1="1009.8898" x2="1082.4567" y1="458.6592" y2="458.6592"/><line style="stroke:#181818;stroke-width:1.7277840269966254;" x1="1082.4567" x2="1082.4567" y1="458.6592" y2="481.1204"/><line style="stroke:#181818;stroke-width:1.7277840269966254;" x1="1011.6175" x2="1082.4567" y1="481.1204" y2="481.1204"/><polygon fill="#181818" points="1028.8954,474.2092,1011.6175,481.1204,1028.8954,488.0315,1021.9843,481.1204" style="stroke:#181818;stroke-width:1.7277840269966254;"/><text fill="#000000" font-family="sans-serif" font-size="22.4612" lengthAdjust="spacing" textLength="184.8729" x="1021.9843" y="344.6524">Update status on</text><text fill="#000000" font-family="sans-serif" font-size="22.4612" lengthAdjust="spacing" textLength="368.018" x="1021.9843" y="371.1057">a countdown latch which controls</text><text fill="#000000" font-family="sans-serif" font-size="22.4612" lengthAdjust="spacing" textLength="152.045" x="1021.9843" y="397.5591">a Helix thread</text><text fill="#000000" font-family="sans-serif" font-size="22.4612" lengthAdjust="spacing" textLength="373.2013" x="1021.9843" y="424.0124">blocking on OFFLINE -&gt; STANDBY</text><text fill="#000000" font-family="sans-serif" font-size="22.4612" lengthAdjust="spacing" textLength="373.2013" x="1021.9843" y="450.4657">until a resource in a terminal state</text><polygon fill="#181818" points="1388.2745,498.3982,1405.5523,505.3093,1388.2745,512.2205,1395.1856,505.3093" style="stroke:#181818;stroke-width:1.7277840269966254;"/><line style="stroke:#181818;stroke-width:1.7277840269966254;stroke-dasharray:2.0,2.0;" x1="495.874" x2="1398.6412" y1="505.3093" y2="505.3093"/><polygon fill="#181818" points="2202.9246,575.4938,2220.2025,582.4049,2202.9246,589.3161,2209.8358,582.4049" style="stroke:#181818;stroke-width:1.7277840269966254;"/><line style="stroke:#181818;stroke-width:1.7277840269966254;" x1="1409.0079" x2="2213.2913" y1="582.4049" y2="582.4049"/><text fill="#000000" font-family="sans-serif" font-size="22.4612" lengthAdjust="spacing" textLength="259.1676" x="1421.1024" y="547.7582">Write replica status info</text><text fill="#000000" font-family="sans-serif" font-size="22.4612" lengthAdjust="spacing" textLength="323.0956" x="1421.1024" y="574.2115">to the meta system store's RT</text><polygon fill="#181818" points="2562.3037,652.5894,2579.5816,659.5006,2562.3037,666.4117,2569.2148,659.5006" style="stroke:#181818;stroke-width:1.7277840269966254;"/><line style="stroke:#181818;stroke-width:1.7277840269966254;" x1="2223.658" x2="2572.6704" y1="659.5006" y2="659.5006"/><text fill="#000000" font-family="sans-serif" font-size="22.4612" lengthAdjust="spacing" textLength="229.7953" x="2235.7525" y="624.8538">Fast client consumes</text><text fill="#000000" font-family="sans-serif" font-size="22.4612" lengthAdjust="spacing" textLength="317.9123" x="2235.7525" y="651.3071">the RT to know replica status</text><polygon fill="#181818" points="1684.5894,676.7784,1701.8673,683.6895,1684.5894,690.6007,1691.5006,683.6895" style="stroke:#181818;stroke-width:1.7277840269966254;"/><line style="stroke:#181818;stroke-width:1.7277840269966254;stroke-dasharray:2.0,2.0;" x1="495.874" x2="1694.9561" y1="683.6895" y2="683.6895"/><polygon fill="#181818" points="2772.2295,753.874,2789.5073,760.7852,2772.2295,767.6963,2779.1406,760.7852" style="stroke:#181818;stroke-width:1.7277840269966254;"/><line style="stroke:#181818;stroke-width:1.7277840269966254;" x1="1705.3228" x2="2782.5962" y1="760.7852" y2="760.7852"/><text fill="#000000" font-family="sans-serif" font-size="22.4612" lengthAdjust="spacing" textLength="540.7964" x="1717.4173" y="726.1384">Update offline push partition status history on ZK</text><text fill="#000000" font-family="sans-serif" font-size="22.4612" lengthAdjust="spacing" textLength="426.7627" x="1717.4173" y="752.5917">Path:&lt;cluster&gt;/OfflinePushes/&lt;store&gt;</text><polygon fill="#181818" points="3052.1305,857.4229,3069.4083,864.3341,3052.1305,871.2452,3059.0416,864.3341" style="stroke:#181818;stroke-width:1.7277840269966254;"/><line style="stroke:#181818;stroke-width:1.7277840269966254;" x1="2792.9629" x2="3062.4972" y1="864.3341" y2="864.3341"/><text fill="#000000" font-family="sans-serif" font-size="22.4612" lengthAdjust="spacing" textLength="188.3285" x="2805.0574" y="803.234">Controller listens</text><text fill="#000000" font-family="sans-serif" font-size="22.4612" lengthAdjust="spacing" textLength="231.5231" x="2805.0574" y="829.6873">to ZK changes to poll</text><text fill="#000000" font-family="sans-serif" font-size="22.4612" lengthAdjust="spacing" textLength="207.3341" x="2805.0574" y="856.1406">overall push status</text><polygon fill="#181818" points="1916.1125,881.6119,1933.3903,888.5231,1916.1125,895.4342,1923.0236,888.5231" style="stroke:#181818;stroke-width:1.7277840269966254;"/><line style="stroke:#181818;stroke-width:1.7277840269966254;stroke-dasharray:2.0,2.0;" x1="495.874" x2="1926.4792" y1="888.5231" y2="888.5231"/><polygon fill="#181818" points="3226.6367,1011.6142,3243.9145,1018.5253,3226.6367,1025.4364,3233.5478,1018.5253" style="stroke:#181818;stroke-width:1.7277840269966254;"/><line style="stroke:#181818;stroke-width:1.7277840269966254;" x1="1936.8459" x2="3237.0034" y1="1018.5253" y2="1018.5253"/><text fill="#000000" font-family="sans-serif" font-size="22.4612" lengthAdjust="spacing" textLength="176.234" x="1948.9404" y="930.9719">Update Helix CV</text><text fill="#000000" font-family="sans-serif" font-size="22.4612" lengthAdjust="spacing" textLength="165.8673" x="1948.9404" y="957.4252">on offline push</text><text fill="#000000" font-family="sans-serif" font-size="22.4612" lengthAdjust="spacing" textLength="259.1676" x="1948.9404" y="983.8785">and hybrid quota status</text><text fill="#000000" font-family="sans-serif" font-size="22.4612" lengthAdjust="spacing" textLength="366.2902" x="1948.9404" y="1010.3318">Path:&lt;cluster&gt;/CustomizedView/</text><polygon fill="#181818" points="3646.4882,1141.6164,3663.766,1148.5276,3646.4882,1155.4387,3653.3993,1148.5276" style="stroke:#181818;stroke-width:1.7277840269966254;"/><line style="stroke:#181818;stroke-width:1.7277840269966254;" x1="3247.3701" x2="3656.8549" y1="1148.5276" y2="1148.5276"/><text fill="#000000" font-family="sans-serif" font-size="22.4612" lengthAdjust="spacing" textLength="298.9066" x="3259.4646" y="1060.9741">Various venice components</text><text fill="#000000" font-family="sans-serif" font-size="22.4612" lengthAdjust="spacing" textLength="252.2565" x="3259.4646" y="1087.4274">listen to the CV change</text><text fill="#000000" font-family="sans-serif" font-size="22.4612" lengthAdjust="spacing" textLength="378.3847" x="3259.4646" y="1113.8808">and update related business logics</text><text fill="#000000" font-family="sans-serif" font-size="22.4612" lengthAdjust="spacing" textLength="191.784" x="3259.4646" y="1140.3341">e.g routing tables</text><!--SRC=[RLLTRzem57tFhxXY3zqcTNGVcgQegjJHHQjeeG96DSIBIIx4mh4psobbltxtEWaeZ8S6avvxxZc-nyQbGY5y_lRbwlsdZr-leWiO8MRW3VXSwYs8bQayF0dhfPT63unsLL7oSkg5HwZAZ3vS5AtCA_IctbYyrnjqZ9W9j-t1c-TSUenAfaXbARG7BgtS14jZ_MqcIeyMX0DdHOGw0wAAElW3uyXukPQfuFMTTANmQLxNIfqr6ceCMdUsTU_1R9QwnVIuL9dD2GH5XZOnIfaTsk3pqMIeJkeUacxP8tentJkFHTW6igT8QktrfBGWQBVugNBvez6IAa-mPR4-WRR3u9gpz6Nfz74d_rHOOIqFND07ZWN2P1RGarbtjtjpr395I8JpC50IjG-uPD25BOmP8fPDpyNmB0a5nblQoGQL7hvsqJzHoTU0o7brbYerHMaqgLdgjmxj2zh-aQvlAQTetmMEbr0GKPxWyeQZ4TTP8z-yMr54h-2I_iMZfp-ebp5bWsAFD1xdn0OFC9hqGm9X4VyAWM-Om6XOQa7IAkqpizEWE9AmooKz6tKkG893OhSKBdgnKYRTIhrXXd6IFDoFVd23wUnsTFVzzr8JdrGWmA8pbINtKjCtSbX8BLHeVzGNuiGFffZCucTBiQVI4C1MgjHhGut3oSPGqad3HGZ2PCOKoI0Emq_3yDa77Nfa7rnA62BPQhCxQN7G4o9Rh9bgCMntpApNIcg4ab8BPPlXLbqkMSMUjsCnf4PFmkVnTQegKcXl-kEwc1EFhdyT5Dz4XAGMnn34nxI18aBKhdPCm3GNV8kmz98GzDvGWWIjWg1J1to2-C4DGYHR6_KS1tCcq5rJD6Ogp_ShApFuKnb_sFl__0peqnJoBsPpYRj-55fmhpgwyLnOQQesoSVeCrNj39f1afBQMjE-lf1fCfH4kiXNbIDzBjnoCgMB0ZziWCyAPy-BbQAx-m9cuxjnJAdT0nyiwkX0yyz0tfYD_W40]--></g></svg>