<?xml version="1.0" encoding="UTF-8"?>
<svg id="Layer_1" data-name="Layer 1" xmlns="http://www.w3.org/2000/svg" viewBox="0 0 871.72 923.32">
  <defs>
    <style>
      .cls-1 {
        fill: #fff;
        fill-rule: evenodd;
      }
    </style>
  </defs>
  <path class="cls-1" d="M93.29,498.58c29.96-8.56,38.95-23.55,35.95-53.09-16.26,6.86-43.22,1.71-61.19-4.7-11.99,16.7,14.98,33.82,25.24,57.8h0ZM651.35,68.7C570.89,1.91,411.69-19.93,276.03,19.89c-33.38,18.84-5.99,15.84-35.95,51.81-38.09-7.71-62.91,36.4-77.03,66.37-2.57,23.55-10.27,45.39-26.96,63.8C66.33,246.82,23.96,289.63,0,334.17c22.67-7.71,45.36-9.85,62.91-9.85-11.13,27.83-28.24,38.97-44.5,59.51,29.52,29.12,47.93,42.39,97.14,49.24,18.83-5.99,34.66-13.7,46.21-25.26l55.63,6.43c-11.12,17.12-26.53,51.38-30.38,69.79,19.26-22.7,39.37-38.54,57.34-46.67,39.8-32.97,95.43-56.95,134.38-93.34,37.66-47.96,20.97-90.35,6.85-111.76-4.28-6.42-9.42-10.71-11.12-12.84,48.78,44.96,58.2,94.63,28.24,146-30.39,53.09-132.24,64.22-175.89,129.74-23.96,35.11-25.25,91.63-18.83,151.58,17.97,72.35,57.77,143.86,94.14,199.09.43-2.14,1.29-9.85,3.42-20.55-.86-1.71-1.28-3.42-1.71-5.15-26.96-138.7-45.79-243.19-4.28-309.12,43.23-68.94,148.5-105.76,214.84-167.41,36.38-46.67,39.8-105.75.86-152.86,0-.42-.42-.42-.86-.86-2.57-2.14-4.7-4.28-5.99-5.99,2.57,3,5.14,4.71,7.7,7.28,55.63,56.09,65.47,116.89,28.68,179.83-38.95,67.65-169.04,81.78-225.11,165.7-43.65,64.65-27.39,190.1-12.41,279.16,4.71-25.26,12.41-59.09,20.55-70.65,6.84-106.17,117.26-189.24,217.4-219.64,80.03-24.41,139.09-80.5,138.23-169.99,14.12-62.51-55.63-158.42-92.86-190.53-7.71-6.42-19.26-12.85-15.83-12.42,5.56,4.28,11.55,8.13,16.69,12.42,104.85,76.64,126.25,134.02,122.82,197.81-12.41,236.78-344.07,143.43-370.61,438.86,2.14,46.68,7.7,107.05,38.95,121.61,45.79-179.4,108.27-238.07,202.85-277.88,102.71-42.82,150.21-106.19,194.72-199.96,15.4,44.53,14.55,110.04-14.55,172.12,172.04-125.88,118.12-261.18-41.93-400.76,31.67,17.98,70.18,14.99,100.57,41.96-26.53-74.07-83.45-156.28-241.37-156.71,23.11-11.13,45.79-22.27,68.48-33.4h0ZM170.75,396.25c2.14-3.42,3.86-7.71,5.57-11.99l55.2,8.14c-4.7,6.42-8.99,13.28-12.83,19.69l-47.93-15.84ZM179.31,370.56c.43-2.99.86-5.99.86-8.99l67.62,9.84c-5.14,6-10.27,12.42-14.98,19.28l-53.5-20.13ZM194.29,352.14c38.94-22.69,33.8-42.81,18.83-62.51,23.54-23.55,39.81-24.4,68.91-40.68,62.48-35.53,47.5-56.09,50.06-79.63,47.5,45.38-15.4,67.65-81.73,163.13,33.38-11.56,58.62-34.26,74.46-71.08-6.85,33.4-16.69,66.37-45.36,83.07-11.55,6.42-21.4,15.42-30.39,25.69l-54.78-17.99ZM191.72,186.88c-9.41,0-22.68,7.7-24.39,20.98-3.85,34.69,32.96,15.41,33.81,7.28,2.14-26.12,27.39-27.4,28.24-31.69,1.71-7.28-9.42,3.85-37.66,3.42h0Z"/>
  <path class="cls-1" d="M93.29,498.58c29.96-8.56,38.95-23.55,35.95-53.09-16.26,6.86-43.22,1.71-61.19-4.7-11.99,16.7,14.98,33.82,25.24,57.8h0ZM651.35,68.7C570.89,1.91,411.69-19.93,276.03,19.89c-33.38,18.84-5.99,15.84-35.95,51.81-38.09-7.71-62.91,36.4-77.03,66.37-2.57,23.55-10.27,45.39-26.96,63.8C66.33,246.82,23.96,289.63,0,334.17c22.67-7.71,45.36-9.85,62.91-9.85-11.13,27.83-28.24,38.97-44.5,59.51,29.52,29.12,47.93,42.39,97.14,49.24,18.83-5.99,34.66-13.7,46.21-25.26l55.63,6.43c-11.12,17.12-26.53,51.38-30.38,69.79,19.26-22.7,39.37-38.54,57.34-46.67,39.8-32.97,95.43-56.95,134.38-93.34,37.66-47.96,20.97-90.35,6.85-111.76-4.28-6.42-9.42-10.71-11.12-12.84,48.78,44.96,58.2,94.63,28.24,146-30.39,53.09-132.24,64.22-175.89,129.74-23.96,35.11-25.25,91.63-18.83,151.58,17.97,72.35,57.77,143.86,94.14,199.09.43-2.14,1.29-9.85,3.42-20.55-.86-1.71-1.28-3.42-1.71-5.15-26.96-138.7-45.79-243.19-4.28-309.12,43.23-68.94,148.5-105.76,214.84-167.41,36.38-46.67,39.8-105.75.86-152.86,0-.42-.42-.42-.86-.86-2.57-2.14-4.7-4.28-5.99-5.99,2.57,3,5.14,4.71,7.7,7.28,55.63,56.09,65.47,116.89,28.68,179.83-38.95,67.65-169.04,81.78-225.11,165.7-43.65,64.65-27.39,190.1-12.41,279.16,4.71-25.26,12.41-59.09,20.55-70.65,6.84-106.17,117.26-189.24,217.4-219.64,80.03-24.41,139.09-80.5,138.23-169.99,14.12-62.51-55.63-158.42-92.86-190.53-7.71-6.42-19.26-12.85-15.83-12.42,5.56,4.28,11.55,8.13,16.69,12.42,104.85,76.64,126.25,134.02,122.82,197.81-12.41,236.78-344.07,143.43-370.61,438.86,2.14,46.68,7.7,107.05,38.95,121.61,45.79-179.4,108.27-238.07,202.85-277.88,102.71-42.82,150.21-106.19,194.72-199.96,15.4,44.53,14.55,110.04-14.55,172.12,172.04-125.88,118.12-261.18-41.93-400.76,31.67,17.98,70.18,14.99,100.57,41.96-26.53-74.07-83.45-156.28-241.37-156.71,23.11-11.13,45.79-22.27,68.48-33.4h0ZM170.75,396.25c2.14-3.42,3.86-7.71,5.57-11.99l55.2,8.14c-4.7,6.42-8.99,13.28-12.83,19.69l-47.93-15.84ZM179.31,370.56c.43-2.99.86-5.99.86-8.99l67.62,9.84c-5.14,6-10.27,12.42-14.98,19.28l-53.5-20.13ZM194.29,352.14c38.94-22.69,33.8-42.81,18.83-62.51,23.54-23.55,39.81-24.4,68.91-40.68,62.48-35.53,47.5-56.09,50.06-79.63,47.5,45.38-15.4,67.65-81.73,163.13,33.38-11.56,58.62-34.26,74.46-71.08-6.85,33.4-16.69,66.37-45.36,83.07-11.55,6.42-21.4,15.42-30.39,25.69l-54.78-17.99ZM191.72,186.88c-9.41,0-22.68,7.7-24.39,20.98-3.85,34.69,32.96,15.41,33.81,7.28,2.14-26.12,27.39-27.4,28.24-31.69,1.71-7.28-9.42,3.85-37.66,3.42h0Z"/>
</svg>