<svg xmlns="http://www.w3.org/2000/svg" shape-rendering="geometricPrecision" text-rendering="geometricPrecision" image-rendering="optimizeQuality" fill-rule="evenodd" clip-rule="evenodd" viewBox="0 0 512 512"><path fill="#1ED760" d="M105 0h302c57.928.155 104.845 47.072 105 104.996V407c-.155 57.926-47.072 104.844-104.996 104.998L105 512C47.074 511.844.156 464.926.002 407.003L0 105C.156 47.072 47.074.155 104.997 0H105z"/><path fill="#fff" fill-rule="nonzero" d="M256 71.498c-101.898 0-184.506 82.605-184.506 184.503 0 101.901 82.608 184.503 184.506 184.503 101.909 0 184.509-82.6 184.509-184.503 0-101.893-82.6-184.495-184.512-184.495l.003-.011v.003zm84.614 266.109c-3.304 5.418-10.398 7.14-15.819 3.811-43.319-26.462-97.855-32.453-162.08-17.78-6.189 1.409-12.358-2.468-13.769-8.659-1.418-6.192 2.446-12.36 8.651-13.769 70.284-16.058 130.571-9.144 179.206 20.577 5.422 3.327 7.141 10.398 3.811 15.82zm22.584-50.238c-4.166 6.767-13.022 8.903-19.786 4.741-49.596-30.485-125.193-39.314-183.856-21.504-7.608 2.296-15.642-1.99-17.95-9.585-2.292-7.608 1.998-15.626 9.592-17.939 67.007-20.331 150.31-10.484 207.265 24.515 6.763 4.166 8.9 13.022 4.738 19.778v-.003l-.003-.003zm1.94-52.314c-59.468-35.32-157.577-38.566-214.352-21.335-9.117 2.765-18.759-2.38-21.521-11.5-2.762-9.121 2.38-18.755 11.502-21.526 65.175-19.786 173.519-15.964 241.984 24.682 8.217 4.868 10.907 15.457 6.037 23.646-4.85 8.201-15.469 10.904-23.641 6.033h-.009z"/></svg>