<?xml version="1.0" encoding="UTF-8" standalone="no"?>
<!-- Created with Inkscape (http://www.inkscape.org/) -->

<svg
   version="1.1"
   id="svg2"
   width="1333.3333"
   height="1333.3333"
   viewBox="160 160 960 800"
   sodipodi:docname="VENICE black logo RGB.ai"
   xmlns:inkscape="http://www.inkscape.org/namespaces/inkscape"
   xmlns:sodipodi="http://sodipodi.sourceforge.net/DTD/sodipodi-0.dtd"
   xmlns="http://www.w3.org/2000/svg"
   xmlns:svg="http://www.w3.org/2000/svg">
  <defs
     id="defs6">
    <clipPath
       clipPathUnits="userSpaceOnUse"
       id="clipPath18">
      <path
         d="M 0,1000 H 1000 V 0 H 0 Z"
         id="path16" />
    </clipPath>
  </defs>
  <sodipodi:namedview
     id="namedview4"
     pagecolor="#ffffff"
     bordercolor="#000000"
     borderopacity="0.25"
     inkscape:showpageshadow="2"
     inkscape:pageopacity="0.0"
     inkscape:pagecheckerboard="0"
     inkscape:deskcolor="#d1d1d1" />
  <g
     id="g8"
     inkscape:groupmode="layer"
     inkscape:label="VENICE black logo RGB"
     transform="matrix(1.3333333,0,0,-1.3333333,0,1333.3333)">
    <path
       d="M 0,0 H 1000 V 1000 H 0 Z"
       style="fill:#fefefe;fill-opacity:0;fill-rule:nonzero;stroke:none"
       id="path10" />
<!--     Uncomment this rect to test appearance on dark background (e.g. GH mobile app rendering). -->
<!--    <rect-->
<!--        x="0"-->
<!--        y="0"-->
<!--        width="1000"-->
<!--        height="1000"-->
<!--        rx="20"-->
<!--        ry="20"-->
<!--        style="fill:black" />-->
    <g
       id="g12">
      <g
         id="g14"
         clip-path="url(#clipPath18)">

        <!-- white background, slightly larger than the black image -->

        <!-- body -->
        <g
            id="bodyIdBackground"
            transform="translate(615.1348,762.5171)">
          <path
              d="m 0,0 c -30.78,-8.156 -118.521,-36.058 -125.385,-55.266 -4.184,-4.829 12.443,-32.731 28.424,-47.861 14.482,-13.628 -1.393,-35.52 -6.544,-38.632 0.965,5.043 15.662,17.598 4.505,35.197 -10.189,15.99 -39.685,45.179 -35.181,55.052 C -122.596,-31.658 -21.985,-3.004 0,0 m 9.332,-25.11 c 5.685,0.75 11.37,1.608 16.949,2.36 22.631,9.122 37.435,19.853 43.762,32.301 0.535,1.288 -1.394,1.396 -3.217,1.179 -8.26,-14.057 -27.78,-25.968 -57.494,-35.84 m -41.187,-26.829 c 7.189,-0.859 14.481,-1.396 21.772,-1.932 32.179,3.433 53.526,12.664 62.429,28.438 0.641,1.395 -1.395,1.716 -2.899,1.825 -9.331,-15.133 -30.675,-23.932 -62.424,-27.259 z m 14.91,-23.501 c 3.645,-0.86 7.292,-1.61 10.831,-2.577 14.697,1.825 25.638,6.977 32.289,15.883 0.854,1.395 -1.287,2.147 -2.575,2.468 C 15.557,-69.861 1.823,-75.011 -16.945,-75.44 M -27.67,-95.509 c 2.035,-1.073 4.074,-2.146 6.221,-3.326 12.548,-0.215 22.201,3.755 28.851,12.448 0.965,1.502 -1.287,2.575 -2.145,2.79 l -0.213,0.108 C -2.252,-92.932 -13.3,-96.796 -27.67,-95.509 m 1.607,-26.935 c 0,-0.321 -0.213,-0.75 -0.643,-0.965 -5.256,-3.006 -11.264,-5.366 -17.804,-6.224 7.186,-1.288 13.836,-0.323 19.95,3.112 1.5,0.964 -0.216,2.897 -0.858,3.541 z m -13.194,11.911 c 1.398,-1.072 2.791,-2.145 4.185,-3.218 7.831,-0.323 14.588,1.825 20.485,6.653 1.287,1.18 -0.748,2.79 -1.5,3.327 l -0.323,0.215 c -0.106,-0.215 -0.212,-0.323 -0.322,-0.429 -6.434,-5.259 -13.942,-7.298 -22.525,-6.548 M 67.685,-223.426 c 58.561,44.214 70.897,-49.256 91.169,-47.646 14.481,1.181 30.246,24.788 30.782,39.922 -10.726,28.866 -39.365,23.929 -2.572,59.879 -5.362,-22.643 14.159,-19.209 10.19,-35.413 2.681,3.434 2.893,12.877 3.11,12.77 10.19,-28.866 -4.292,-35.307 -4.398,-36.165 -3.968,-24.575 -25.099,-62.564 -47.518,-51.832 -27.78,13.414 -49.337,89.82 -78.405,34.343 -1.61,4.717 -3.11,6.756 -4.291,12.339 -0.643,2.788 0.752,8.26 1.933,11.803 m 17.375,-97.118 c -35.289,9.337 -8.155,50.007 -22.631,83.921 -0.752,11.052 4.504,14.808 -2.682,18.347 -12.445,14.811 -31.749,16.742 -85.81,24.04 -6.757,1.181 -14.048,3.112 -21.451,5.366 5.147,0.106 9.009,0.966 9.225,3.862 0,2.468 -0.646,5.366 -2.039,8.372 l 1.717,-0.645 c 23.059,-8.156 34.859,-0.107 29.925,7.943 -0.109,0.214 -0.215,0.429 -0.322,0.535 18.449,-5.152 28.639,3.435 24.67,10.302 -0.429,0.751 -0.857,1.395 -1.393,2.147 10.937,0.321 14.799,5.901 10.189,12.232 -0.965,1.289 -2.145,2.577 -3.539,3.865 12.441,0.32 12.977,6.545 7.937,14.38 -1.181,1.824 -2.898,3.648 -5.043,5.687 14.587,-1.288 21.989,2.253 17.162,9.014 -1.5,2.039 -3.433,3.97 -5.791,5.689 8.688,-1.075 20.807,2.466 25.634,5.043 3.863,2.146 3.217,6.224 1.287,7.083 -6.007,2.897 -18.662,5.15 -31.426,11.053 l -1.075,0.536 c 7.402,-2.146 16.411,-4.83 30.143,-8.8 9.867,-2.789 23.061,-4.078 29.388,-2.575 4.933,1.073 4.72,4.506 2.574,5.579 -6.437,3.112 -20.914,6.762 -34.646,13.416 6.542,-2.254 14.803,-4.937 27.245,-8.156 9.866,-2.577 27.028,0.75 33.359,2.467 4.717,1.289 4.398,4.83 2.143,5.903 -6.54,3.004 -21.238,6.225 -35.286,12.662 8.902,-2.896 18.875,-5.902 36.36,-9.12 9.867,-1.825 22.308,5.149 28.316,7.082 4.611,1.502 4.182,4.829 1.93,5.688 -6.757,2.468 -21.985,4.614 -36.36,10.086 -3.004,1.073 -6.008,2.148 -9.119,3.112 9.654,-1.716 20.383,-3.647 37.005,-6.439 9.978,-1.608 23.171,4.185 29.282,6.654 4.614,1.825 3.968,5.366 1.827,6.224 -6.651,2.469 -21.242,4.294 -35.4,9.444 6.544,0 14.698,0.214 26.174,1.072 33.892,9.231 39.258,32.087 35.825,32.946 -7.614,1.933 -31.107,-8.048 -50.951,-7.513 -10.509,-0.535 -19.95,-1.072 -28.529,-1.608 7.615,2.682 16.84,6.008 33.356,9.443 9.87,2.039 24.029,4.935 29.821,7.512 27.351,12.233 33.036,43.355 20.591,45.821 -14.694,-12.232 -50.518,-24.252 -89.559,-34.232 6.756,4.079 15.122,8.586 28.851,13.522 9.438,3.327 23.06,8.264 28.639,11.59 21.561,13.414 37.864,49.471 20.485,50.544 C 168.721,73.08 18.879,18.888 -23.918,7.941 l 0.646,-0.107 c -51.058,-9.015 -120.026,-35.627 -130.323,-48.72 -26.492,-16.74 43.334,-49.042 28.532,-94.972 -0.537,-1.395 0,-1.502 1.93,-3.218 10.727,-12.879 8.152,-35.093 4.612,-42.605 -0.536,-1.287 -0.964,-2.575 -1.179,-3.862 -0.967,-1.502 -1.931,-3.006 -3.111,-4.4 -4.397,-6.868 -11.047,-13.63 -20.272,-20.39 7.4,15.453 8.258,28.331 4.398,39.384 -11.263,-23.287 -29.498,-42.388 -55.347,-49.685 -24.239,-8.477 -33.25,-21.894 -45.262,-65.249 -8.367,2.792 -10.942,14.918 -13.409,18.89 -1.179,1.929 -2.252,18.134 -1.822,28.756 -3.648,-0.102 -6.329,-24.142 -6.544,-26.288 -2.037,3.004 -4.183,6.115 -6.329,9.445 -4.719,-8.909 -22.846,-25.866 -18.019,-42.071 3.54,-12.445 25.85,-39.705 14.694,-49.792 -12.121,-9.551 -19.414,4.401 -30.569,2.686 -9.331,-4.296 -17.376,-14.705 -20.164,-26.509 -0.214,-0.964 2.788,-4.078 2.573,-5.15 h 12.015 c -3.862,12.768 1.5,16.634 9.545,18.886 -8.581,-4.291 -8.902,-14.378 -3.004,-18.886 h 45.587 c 6.006,1.611 10.296,10.3 12.656,9.981 2.146,10.409 0.429,19.851 10.834,23.284 1.179,11.268 -7.938,28.977 1.072,33.696 16.196,8.587 36.898,-4.184 36.898,-3.11 -3.219,7.296 -16.41,19.315 -37.541,31.765 26.599,-7.083 40.436,-31.552 41.616,-32.622 4.397,-4.403 3.004,-12.879 8.152,-16.422 20.916,-14.272 25.099,-28.866 22.953,-46.359 -1.393,-7.083 -24.455,3.756 -29.495,2.039 -8.581,-2.252 -19.093,-10.515 -19.308,-19.531 0,-1.5 4.72,-9.658 5.256,-10.839 3.11,0 6.115,0.111 8.902,0.111 -3.431,12.126 1.932,15.881 9.869,18.133 -8.259,-4.079 -8.902,-13.414 -3.863,-18.133 13.408,0.105 25.315,0.318 47.516,0.318 6.759,13.095 13.623,16.422 12.229,22.217 0.75,15.772 -2.681,44.749 7.186,57.84 -7.079,6.223 -1.823,27.579 -3.646,33.374 8.043,-5.044 2.145,-9.552 5.791,-25.324 -1.179,2.576 28.852,8.906 38.829,12.016 10.512,3.327 26.6,7.513 31.749,11.378 20.273,15.024 5.363,28.973 13.084,26.611 11.693,-7.402 8.689,-36.914 40.975,-50.437 27.673,-9.765 42.045,-20.603 46.336,-30.261 l 3.327,-1.504 c 11.902,-5.362 30.246,-22.965 16.84,-32.515 -5.151,-6.008 -8.048,12.771 -23.6,2.897 -10.402,-4.614 -13.623,-16.095 -11.689,-22.536 0.318,-1.287 3.751,-3.433 4.397,-4.074 h 7.721 c -3.539,12.126 1.823,15.881 9.76,18.133 -8.256,-4.079 -8.902,-13.414 -3.858,-18.133 h 47.301 c 9.221,15.13 9.867,44.531 -18.449,83.379 M -21.666,-379.03 c -14.906,-9.335 -15.23,5.69 -29.175,6.654 -15.016,-3.863 -20.272,-13.842 -21.666,-26.934 -0.106,-0.968 5.686,-3.756 5.902,-4.613 h 7.079 c -3.863,12.661 1.5,16.523 9.544,18.779 -8.58,-4.295 -8.902,-14.382 -3.111,-18.779 h 44.62 c 7.938,4.504 5.686,6.759 14.159,15.881 3.755,21.032 18.45,45.285 22.525,60.308 -20.273,5.795 -32.608,9.874 -42.046,21.142 -9.331,11.268 -12.441,31.658 -18.769,33.588 -3.862,-1.611 -3.327,-26.828 -31.213,-33.159 2.787,-9.445 16.945,-7.511 34.965,-21.248 26.494,-6.867 18.663,-37.453 7.186,-51.619"
              style="fill:white;fill-opacity:1;fill-rule:evenodd;stroke:white;stroke-width:8px"
              id="bodyPathBackground" />
        </g>

        <!-- head -->
        <g
            id="headIdBackground"
            transform="translate(326.4995,662.394)">
          <path
              d="m 0,0 c -2.358,0 -5.685,-1.931 -6.114,-5.258 -0.965,-8.693 8.26,-3.863 8.474,-1.825 0.536,6.547 6.865,6.868 7.079,7.941 C 9.869,2.683 7.079,-0.106 0,0 m 0.644,-41.422 c 9.76,5.687 8.473,10.731 4.719,15.668 5.899,5.901 9.976,6.116 17.27,10.194 15.66,8.906 11.904,14.058 12.548,19.959 11.906,-11.374 -3.861,-16.954 -20.485,-40.886 8.366,2.898 14.693,8.587 18.662,17.816 -1.717,-8.371 -4.183,-16.635 -11.369,-20.82 -2.896,-1.61 -5.364,-3.864 -7.616,-6.439 z m -3.754,-4.614 c 0.108,0.75 0.214,1.502 0.214,2.252 l 16.948,-2.466 c -1.288,-1.504 -2.575,-3.113 -3.754,-4.832 z m -2.146,-6.439 c 0.537,0.858 0.966,1.931 1.396,3.004 L 9.975,-51.51 C 8.796,-53.119 7.723,-54.837 6.758,-56.446 Z M 115.198,29.618 C 95.032,46.359 55.132,51.833 21.131,41.853 12.764,37.13 19.629,37.882 12.121,28.868 2.575,30.799 -3.646,19.746 -7.186,12.234 -7.829,6.333 -9.76,0.858 -13.943,-3.756 c -17.484,-11.268 -28.102,-21.998 -34.108,-33.16 5.683,1.933 11.368,2.469 15.766,2.469 -2.789,-6.975 -7.079,-9.766 -11.154,-14.916 7.4,-7.297 12.012,-10.624 24.348,-12.341 4.718,1.502 8.687,3.433 11.583,6.331 l 13.944,-1.61 c -2.788,-4.291 -6.65,-12.878 -7.615,-17.492 4.827,5.689 9.868,9.659 14.372,11.697 9.975,8.263 23.919,14.274 33.68,23.394 9.439,12.019 5.255,22.644 1.716,28.009 -1.073,1.609 -2.36,2.684 -2.788,3.219 12.227,-11.267 14.588,-23.717 7.079,-36.593 -7.616,-13.307 -33.143,-16.096 -44.084,-32.516 -6.006,-8.799 -6.329,-22.964 -4.719,-37.99 4.504,-18.134 14.479,-36.056 23.596,-49.899 0.108,0.536 0.323,2.469 0.858,5.15 -0.215,0.429 -0.321,0.858 -0.429,1.292 -6.756,34.764 -11.477,60.951 -1.073,77.477 10.835,17.277 37.22,26.506 53.845,41.959 9.118,11.697 9.975,26.506 0.214,38.311 0,0.107 -0.106,0.107 -0.214,0.215 -0.644,0.535 -1.179,1.073 -1.502,1.502 0.644,-0.752 1.287,-1.181 1.931,-1.825 13.944,-14.057 16.41,-29.296 7.187,-45.071 -9.762,-16.955 -42.368,-20.497 -56.42,-41.53 -10.939,-16.205 -6.864,-47.645 -3.11,-69.968 1.181,6.331 3.11,14.811 5.15,17.709 1.715,26.611 29.389,47.43 54.487,55.048 20.058,6.118 34.86,20.176 34.645,42.605 3.54,15.667 -13.944,39.705 -23.275,47.753 -1.931,1.61 -4.827,3.22 -3.968,3.111 1.394,-1.072 2.896,-2.037 4.183,-3.111 26.278,-19.209 31.641,-33.59 30.783,-49.578 -3.111,-59.345 -86.236,-35.949 -92.888,-109.994 0.537,-11.7 1.931,-26.83 9.762,-30.48 11.477,44.965 27.137,59.67 50.841,69.646 25.741,10.733 37.647,26.615 48.803,50.117 3.861,-11.161 3.646,-27.581 -3.648,-43.14 43.119,31.55 29.606,65.461 -10.51,100.444 7.938,-4.506 17.59,-3.756 25.206,-10.516 -6.65,18.565 -20.916,39.17 -60.495,39.276 5.792,2.79 11.477,5.581 17.162,8.37 M -24.67,-78.123 c 7.508,2.146 9.762,5.902 9.01,13.307 -4.075,-1.718 -10.833,-0.429 -15.338,1.179 -3.003,-4.185 3.755,-8.476 6.328,-14.486"
              style="fill:white;fill-opacity:1;fill-rule:evenodd;stroke:white;stroke-width:8px"
              id="headPathBackground" />
        </g>

        <!-- book -->
        <g
            id="bookIdBackground"
            transform="translate(242.1943,381.1289)">
          <path
              d="m 0,0 h 154.454 c 5.256,-1.61 7.186,-6.977 7.186,-10.626 0,-3.969 -1.394,-9.335 -6.542,-11.268 -51.7,0 -103.292,-0.106 -154.992,-0.106 4.29,3.649 5.686,6.866 5.686,11.161 C 5.684,-6.547 3.969,-2.685 0,0"
              style="fill:white;fill-opacity:1;fill-rule:evenodd;stroke:white;stroke-width:8px"
              id="bookPathBackground" />
        </g>

        <!-- text -->
        <g
            id="textIdBackground"
            transform="translate(718.6436,331.5498)">
          <path
              d="M 0,0 V 12.449 H -40.116 V -37.024 H 0 v 12.449 h -26.063 v 6.547 H -2.362 V -5.583 H -26.063 V 0 Z m -105.438,-37.882 c 2.681,0 5.15,0.322 7.615,1.074 2.469,0.642 4.72,1.717 6.866,3.004 2.146,1.287 4.075,2.898 5.686,4.721 l -10.3,8.906 c -0.748,-1.071 -1.716,-1.929 -2.681,-2.681 -1.071,-0.752 -2.252,-1.288 -3.434,-1.717 -1.176,-0.429 -2.464,-0.646 -3.752,-0.646 -1.716,0 -3.327,0.324 -4.933,1.075 -1.504,0.646 -2.791,1.61 -3.969,2.792 -1.181,1.177 -2.039,2.574 -2.681,4.075 -0.751,1.61 -1.075,3.219 -1.075,5.047 0,1.716 0.324,3.323 1.075,4.933 0.642,1.504 1.5,2.898 2.681,4.078 1.178,1.182 2.465,2.146 3.969,2.792 1.606,0.642 3.217,1.071 4.933,1.071 1.288,0 2.576,-0.213 3.752,-0.642 1.182,-0.429 2.363,-0.965 3.328,-1.717 1.071,-0.752 1.929,-1.717 2.787,-2.684 l 10.3,9.015 c -1.611,1.717 -3.54,3.327 -5.686,4.615 -2.146,1.287 -4.397,2.251 -6.866,3.003 -2.465,0.646 -4.934,1.076 -7.615,1.076 -3.003,0 -5.791,-0.43 -8.472,-1.288 -2.682,-0.968 -5.257,-2.15 -7.509,-3.756 -2.252,-1.504 -4.185,-3.437 -5.901,-5.473 -1.607,-2.149 -2.895,-4.508 -3.859,-7.083 -0.965,-2.468 -1.394,-5.153 -1.394,-7.94 0,-2.791 0.429,-5.477 1.394,-8.051 0.964,-2.575 2.252,-4.827 3.859,-6.974 1.716,-2.148 3.649,-4.078 5.901,-5.582 2.252,-1.61 4.827,-2.897 7.509,-3.756 2.681,-0.858 5.469,-1.287 8.472,-1.287 m -87.629,0.858 h 14.048 V 12.45 h -14.048 z m -95.999,0 h 14.049 v 26.508 l 19.415,-26.508 h 14.052 v 49.473 h -14.052 V -14.06 l -19.415,26.509 h -14.049 z M -335.618,0 v 12.449 h -40.116 v -49.473 h 40.116 v 12.449 h -26.064 v 6.547 h 23.704 v 12.445 h -23.704 V 0 Z m -99.859,12.449 -11.154,-28.976 -11.262,28.976 h -15.875 l 19.2,-49.473 h 15.875 l 19.091,49.473 z"
              style="fill:white;fill-opacity:1;fill-rule:evenodd;stroke:white;stroke-width:8px"
              id="textPathBackground" />
        </g>

        <!-- black image, on top of the white background -->

        <!-- body -->
        <g
            id="bodyId"
            transform="translate(615.1348,762.5171)">
          <path
              d="m 0,0 c -30.78,-8.156 -118.521,-36.058 -125.385,-55.266 -4.184,-4.829 12.443,-32.731 28.424,-47.861 14.482,-13.628 -1.393,-35.52 -6.544,-38.632 0.965,5.043 15.662,17.598 4.505,35.197 -10.189,15.99 -39.685,45.179 -35.181,55.052 C -122.596,-31.658 -21.985,-3.004 0,0 m 9.332,-25.11 c 5.685,0.75 11.37,1.608 16.949,2.36 22.631,9.122 37.435,19.853 43.762,32.301 0.535,1.288 -1.394,1.396 -3.217,1.179 -8.26,-14.057 -27.78,-25.968 -57.494,-35.84 m -41.187,-26.829 c 7.189,-0.859 14.481,-1.396 21.772,-1.932 32.179,3.433 53.526,12.664 62.429,28.438 0.641,1.395 -1.395,1.716 -2.899,1.825 -9.331,-15.133 -30.675,-23.932 -62.424,-27.259 z m 14.91,-23.501 c 3.645,-0.86 7.292,-1.61 10.831,-2.577 14.697,1.825 25.638,6.977 32.289,15.883 0.854,1.395 -1.287,2.147 -2.575,2.468 C 15.557,-69.861 1.823,-75.011 -16.945,-75.44 M -27.67,-95.509 c 2.035,-1.073 4.074,-2.146 6.221,-3.326 12.548,-0.215 22.201,3.755 28.851,12.448 0.965,1.502 -1.287,2.575 -2.145,2.79 l -0.213,0.108 C -2.252,-92.932 -13.3,-96.796 -27.67,-95.509 m 1.607,-26.935 c 0,-0.321 -0.213,-0.75 -0.643,-0.965 -5.256,-3.006 -11.264,-5.366 -17.804,-6.224 7.186,-1.288 13.836,-0.323 19.95,3.112 1.5,0.964 -0.216,2.897 -0.858,3.541 z m -13.194,11.911 c 1.398,-1.072 2.791,-2.145 4.185,-3.218 7.831,-0.323 14.588,1.825 20.485,6.653 1.287,1.18 -0.748,2.79 -1.5,3.327 l -0.323,0.215 c -0.106,-0.215 -0.212,-0.323 -0.322,-0.429 -6.434,-5.259 -13.942,-7.298 -22.525,-6.548 M 67.685,-223.426 c 58.561,44.214 70.897,-49.256 91.169,-47.646 14.481,1.181 30.246,24.788 30.782,39.922 -10.726,28.866 -39.365,23.929 -2.572,59.879 -5.362,-22.643 14.159,-19.209 10.19,-35.413 2.681,3.434 2.893,12.877 3.11,12.77 10.19,-28.866 -4.292,-35.307 -4.398,-36.165 -3.968,-24.575 -25.099,-62.564 -47.518,-51.832 -27.78,13.414 -49.337,89.82 -78.405,34.343 -1.61,4.717 -3.11,6.756 -4.291,12.339 -0.643,2.788 0.752,8.26 1.933,11.803 m 17.375,-97.118 c -35.289,9.337 -8.155,50.007 -22.631,83.921 -0.752,11.052 4.504,14.808 -2.682,18.347 -12.445,14.811 -31.749,16.742 -85.81,24.04 -6.757,1.181 -14.048,3.112 -21.451,5.366 5.147,0.106 9.009,0.966 9.225,3.862 0,2.468 -0.646,5.366 -2.039,8.372 l 1.717,-0.645 c 23.059,-8.156 34.859,-0.107 29.925,7.943 -0.109,0.214 -0.215,0.429 -0.322,0.535 18.449,-5.152 28.639,3.435 24.67,10.302 -0.429,0.751 -0.857,1.395 -1.393,2.147 10.937,0.321 14.799,5.901 10.189,12.232 -0.965,1.289 -2.145,2.577 -3.539,3.865 12.441,0.32 12.977,6.545 7.937,14.38 -1.181,1.824 -2.898,3.648 -5.043,5.687 14.587,-1.288 21.989,2.253 17.162,9.014 -1.5,2.039 -3.433,3.97 -5.791,5.689 8.688,-1.075 20.807,2.466 25.634,5.043 3.863,2.146 3.217,6.224 1.287,7.083 -6.007,2.897 -18.662,5.15 -31.426,11.053 l -1.075,0.536 c 7.402,-2.146 16.411,-4.83 30.143,-8.8 9.867,-2.789 23.061,-4.078 29.388,-2.575 4.933,1.073 4.72,4.506 2.574,5.579 -6.437,3.112 -20.914,6.762 -34.646,13.416 6.542,-2.254 14.803,-4.937 27.245,-8.156 9.866,-2.577 27.028,0.75 33.359,2.467 4.717,1.289 4.398,4.83 2.143,5.903 -6.54,3.004 -21.238,6.225 -35.286,12.662 8.902,-2.896 18.875,-5.902 36.36,-9.12 9.867,-1.825 22.308,5.149 28.316,7.082 4.611,1.502 4.182,4.829 1.93,5.688 -6.757,2.468 -21.985,4.614 -36.36,10.086 -3.004,1.073 -6.008,2.148 -9.119,3.112 9.654,-1.716 20.383,-3.647 37.005,-6.439 9.978,-1.608 23.171,4.185 29.282,6.654 4.614,1.825 3.968,5.366 1.827,6.224 -6.651,2.469 -21.242,4.294 -35.4,9.444 6.544,0 14.698,0.214 26.174,1.072 33.892,9.231 39.258,32.087 35.825,32.946 -7.614,1.933 -31.107,-8.048 -50.951,-7.513 -10.509,-0.535 -19.95,-1.072 -28.529,-1.608 7.615,2.682 16.84,6.008 33.356,9.443 9.87,2.039 24.029,4.935 29.821,7.512 27.351,12.233 33.036,43.355 20.591,45.821 -14.694,-12.232 -50.518,-24.252 -89.559,-34.232 6.756,4.079 15.122,8.586 28.851,13.522 9.438,3.327 23.06,8.264 28.639,11.59 21.561,13.414 37.864,49.471 20.485,50.544 C 168.721,73.08 18.879,18.888 -23.918,7.941 l 0.646,-0.107 c -51.058,-9.015 -120.026,-35.627 -130.323,-48.72 -26.492,-16.74 43.334,-49.042 28.532,-94.972 -0.537,-1.395 0,-1.502 1.93,-3.218 10.727,-12.879 8.152,-35.093 4.612,-42.605 -0.536,-1.287 -0.964,-2.575 -1.179,-3.862 -0.967,-1.502 -1.931,-3.006 -3.111,-4.4 -4.397,-6.868 -11.047,-13.63 -20.272,-20.39 7.4,15.453 8.258,28.331 4.398,39.384 -11.263,-23.287 -29.498,-42.388 -55.347,-49.685 -24.239,-8.477 -33.25,-21.894 -45.262,-65.249 -8.367,2.792 -10.942,14.918 -13.409,18.89 -1.179,1.929 -2.252,18.134 -1.822,28.756 -3.648,-0.102 -6.329,-24.142 -6.544,-26.288 -2.037,3.004 -4.183,6.115 -6.329,9.445 -4.719,-8.909 -22.846,-25.866 -18.019,-42.071 3.54,-12.445 25.85,-39.705 14.694,-49.792 -12.121,-9.551 -19.414,4.401 -30.569,2.686 -9.331,-4.296 -17.376,-14.705 -20.164,-26.509 -0.214,-0.964 2.788,-4.078 2.573,-5.15 h 12.015 c -3.862,12.768 1.5,16.634 9.545,18.886 -8.581,-4.291 -8.902,-14.378 -3.004,-18.886 h 45.587 c 6.006,1.611 10.296,10.3 12.656,9.981 2.146,10.409 0.429,19.851 10.834,23.284 1.179,11.268 -7.938,28.977 1.072,33.696 16.196,8.587 36.898,-4.184 36.898,-3.11 -3.219,7.296 -16.41,19.315 -37.541,31.765 26.599,-7.083 40.436,-31.552 41.616,-32.622 4.397,-4.403 3.004,-12.879 8.152,-16.422 20.916,-14.272 25.099,-28.866 22.953,-46.359 -1.393,-7.083 -24.455,3.756 -29.495,2.039 -8.581,-2.252 -19.093,-10.515 -19.308,-19.531 0,-1.5 4.72,-9.658 5.256,-10.839 3.11,0 6.115,0.111 8.902,0.111 -3.431,12.126 1.932,15.881 9.869,18.133 -8.259,-4.079 -8.902,-13.414 -3.863,-18.133 13.408,0.105 25.315,0.318 47.516,0.318 6.759,13.095 13.623,16.422 12.229,22.217 0.75,15.772 -2.681,44.749 7.186,57.84 -7.079,6.223 -1.823,27.579 -3.646,33.374 8.043,-5.044 2.145,-9.552 5.791,-25.324 -1.179,2.576 28.852,8.906 38.829,12.016 10.512,3.327 26.6,7.513 31.749,11.378 20.273,15.024 5.363,28.973 13.084,26.611 11.693,-7.402 8.689,-36.914 40.975,-50.437 27.673,-9.765 42.045,-20.603 46.336,-30.261 l 3.327,-1.504 c 11.902,-5.362 30.246,-22.965 16.84,-32.515 -5.151,-6.008 -8.048,12.771 -23.6,2.897 -10.402,-4.614 -13.623,-16.095 -11.689,-22.536 0.318,-1.287 3.751,-3.433 4.397,-4.074 h 7.721 c -3.539,12.126 1.823,15.881 9.76,18.133 -8.256,-4.079 -8.902,-13.414 -3.858,-18.133 h 47.301 c 9.221,15.13 9.867,44.531 -18.449,83.379 M -21.666,-379.03 c -14.906,-9.335 -15.23,5.69 -29.175,6.654 -15.016,-3.863 -20.272,-13.842 -21.666,-26.934 -0.106,-0.968 5.686,-3.756 5.902,-4.613 h 7.079 c -3.863,12.661 1.5,16.523 9.544,18.779 -8.58,-4.295 -8.902,-14.382 -3.111,-18.779 h 44.62 c 7.938,4.504 5.686,6.759 14.159,15.881 3.755,21.032 18.45,45.285 22.525,60.308 -20.273,5.795 -32.608,9.874 -42.046,21.142 -9.331,11.268 -12.441,31.658 -18.769,33.588 -3.862,-1.611 -3.327,-26.828 -31.213,-33.159 2.787,-9.445 16.945,-7.511 34.965,-21.248 26.494,-6.867 18.663,-37.453 7.186,-51.619"
              style="fill:#000000;fill-opacity:1;fill-rule:evenodd;stroke:none"
              id="bodyPath" />
        </g>

        <!-- head -->
        <g
            id="headId"
            transform="translate(326.4995,662.394)">
          <path
             d="m 0,0 c -2.358,0 -5.685,-1.931 -6.114,-5.258 -0.965,-8.693 8.26,-3.863 8.474,-1.825 0.536,6.547 6.865,6.868 7.079,7.941 C 9.869,2.683 7.079,-0.106 0,0 m 0.644,-41.422 c 9.76,5.687 8.473,10.731 4.719,15.668 5.899,5.901 9.976,6.116 17.27,10.194 15.66,8.906 11.904,14.058 12.548,19.959 11.906,-11.374 -3.861,-16.954 -20.485,-40.886 8.366,2.898 14.693,8.587 18.662,17.816 -1.717,-8.371 -4.183,-16.635 -11.369,-20.82 -2.896,-1.61 -5.364,-3.864 -7.616,-6.439 z m -3.754,-4.614 c 0.108,0.75 0.214,1.502 0.214,2.252 l 16.948,-2.466 c -1.288,-1.504 -2.575,-3.113 -3.754,-4.832 z m -2.146,-6.439 c 0.537,0.858 0.966,1.931 1.396,3.004 L 9.975,-51.51 C 8.796,-53.119 7.723,-54.837 6.758,-56.446 Z M 115.198,29.618 C 95.032,46.359 55.132,51.833 21.131,41.853 12.764,37.13 19.629,37.882 12.121,28.868 2.575,30.799 -3.646,19.746 -7.186,12.234 -7.829,6.333 -9.76,0.858 -13.943,-3.756 c -17.484,-11.268 -28.102,-21.998 -34.108,-33.16 5.683,1.933 11.368,2.469 15.766,2.469 -2.789,-6.975 -7.079,-9.766 -11.154,-14.916 7.4,-7.297 12.012,-10.624 24.348,-12.341 4.718,1.502 8.687,3.433 11.583,6.331 l 13.944,-1.61 c -2.788,-4.291 -6.65,-12.878 -7.615,-17.492 4.827,5.689 9.868,9.659 14.372,11.697 9.975,8.263 23.919,14.274 33.68,23.394 9.439,12.019 5.255,22.644 1.716,28.009 -1.073,1.609 -2.36,2.684 -2.788,3.219 12.227,-11.267 14.588,-23.717 7.079,-36.593 -7.616,-13.307 -33.143,-16.096 -44.084,-32.516 -6.006,-8.799 -6.329,-22.964 -4.719,-37.99 4.504,-18.134 14.479,-36.056 23.596,-49.899 0.108,0.536 0.323,2.469 0.858,5.15 -0.215,0.429 -0.321,0.858 -0.429,1.292 -6.756,34.764 -11.477,60.951 -1.073,77.477 10.835,17.277 37.22,26.506 53.845,41.959 9.118,11.697 9.975,26.506 0.214,38.311 0,0.107 -0.106,0.107 -0.214,0.215 -0.644,0.535 -1.179,1.073 -1.502,1.502 0.644,-0.752 1.287,-1.181 1.931,-1.825 13.944,-14.057 16.41,-29.296 7.187,-45.071 -9.762,-16.955 -42.368,-20.497 -56.42,-41.53 -10.939,-16.205 -6.864,-47.645 -3.11,-69.968 1.181,6.331 3.11,14.811 5.15,17.709 1.715,26.611 29.389,47.43 54.487,55.048 20.058,6.118 34.86,20.176 34.645,42.605 3.54,15.667 -13.944,39.705 -23.275,47.753 -1.931,1.61 -4.827,3.22 -3.968,3.111 1.394,-1.072 2.896,-2.037 4.183,-3.111 26.278,-19.209 31.641,-33.59 30.783,-49.578 -3.111,-59.345 -86.236,-35.949 -92.888,-109.994 0.537,-11.7 1.931,-26.83 9.762,-30.48 11.477,44.965 27.137,59.67 50.841,69.646 25.741,10.733 37.647,26.615 48.803,50.117 3.861,-11.161 3.646,-27.581 -3.648,-43.14 43.119,31.55 29.606,65.461 -10.51,100.444 7.938,-4.506 17.59,-3.756 25.206,-10.516 -6.65,18.565 -20.916,39.17 -60.495,39.276 5.792,2.79 11.477,5.581 17.162,8.37 M -24.67,-78.123 c 7.508,2.146 9.762,5.902 9.01,13.307 -4.075,-1.718 -10.833,-0.429 -15.338,1.179 -3.003,-4.185 3.755,-8.476 6.328,-14.486"
             style="fill:#000000;fill-opacity:1;fill-rule:evenodd;stroke:none"
             id="headPath" />
        </g>


        <!-- book -->
        <g
            id="bookId"
            transform="translate(242.1943,381.1289)">
          <path
              d="m 0,0 h 154.454 c 5.256,-1.61 7.186,-6.977 7.186,-10.626 0,-3.969 -1.394,-9.335 -6.542,-11.268 -51.7,0 -103.292,-0.106 -154.992,-0.106 4.29,3.649 5.686,6.866 5.686,11.161 C 5.684,-6.547 3.969,-2.685 0,0"
              style="fill:#000000;fill-opacity:1;fill-rule:evenodd;stroke:none"
              id="bookPath" />
        </g>

        <!-- text -->
        <g
            id="textId"
            transform="translate(718.6436,331.5498)">
          <path
              d="M 0,0 V 12.449 H -40.116 V -37.024 H 0 v 12.449 h -26.063 v 6.547 H -2.362 V -5.583 H -26.063 V 0 Z m -105.438,-37.882 c 2.681,0 5.15,0.322 7.615,1.074 2.469,0.642 4.72,1.717 6.866,3.004 2.146,1.287 4.075,2.898 5.686,4.721 l -10.3,8.906 c -0.748,-1.071 -1.716,-1.929 -2.681,-2.681 -1.071,-0.752 -2.252,-1.288 -3.434,-1.717 -1.176,-0.429 -2.464,-0.646 -3.752,-0.646 -1.716,0 -3.327,0.324 -4.933,1.075 -1.504,0.646 -2.791,1.61 -3.969,2.792 -1.181,1.177 -2.039,2.574 -2.681,4.075 -0.751,1.61 -1.075,3.219 -1.075,5.047 0,1.716 0.324,3.323 1.075,4.933 0.642,1.504 1.5,2.898 2.681,4.078 1.178,1.182 2.465,2.146 3.969,2.792 1.606,0.642 3.217,1.071 4.933,1.071 1.288,0 2.576,-0.213 3.752,-0.642 1.182,-0.429 2.363,-0.965 3.328,-1.717 1.071,-0.752 1.929,-1.717 2.787,-2.684 l 10.3,9.015 c -1.611,1.717 -3.54,3.327 -5.686,4.615 -2.146,1.287 -4.397,2.251 -6.866,3.003 -2.465,0.646 -4.934,1.076 -7.615,1.076 -3.003,0 -5.791,-0.43 -8.472,-1.288 -2.682,-0.968 -5.257,-2.15 -7.509,-3.756 -2.252,-1.504 -4.185,-3.437 -5.901,-5.473 -1.607,-2.149 -2.895,-4.508 -3.859,-7.083 -0.965,-2.468 -1.394,-5.153 -1.394,-7.94 0,-2.791 0.429,-5.477 1.394,-8.051 0.964,-2.575 2.252,-4.827 3.859,-6.974 1.716,-2.148 3.649,-4.078 5.901,-5.582 2.252,-1.61 4.827,-2.897 7.509,-3.756 2.681,-0.858 5.469,-1.287 8.472,-1.287 m -87.629,0.858 h 14.048 V 12.45 h -14.048 z m -95.999,0 h 14.049 v 26.508 l 19.415,-26.508 h 14.052 v 49.473 h -14.052 V -14.06 l -19.415,26.509 h -14.049 z M -335.618,0 v 12.449 h -40.116 v -49.473 h 40.116 v 12.449 h -26.064 v 6.547 h 23.704 v 12.445 h -23.704 V 0 Z m -99.859,12.449 -11.154,-28.976 -11.262,28.976 h -15.875 l 19.2,-49.473 h 15.875 l 19.091,49.473 z"
              style="fill:#000000;fill-opacity:1;fill-rule:nonzero;stroke:none"
              id="textPath" />
        </g>
      </g>
    </g>
  </g>
</svg>
