<svg xmlns="http://www.w3.org/2000/svg" xmlns:xlink="http://www.w3.org/1999/xlink" xmlns:lucid="lucid" width="3476" height="1974"><g transform="translate(-10029 -5856)" lucid:page-tab-id="0_0"><path d="M0-500h13500v8500H0z" fill="#fff"/><path d="M10280.27 5976.16a6 6 0 0 1 6-6h574.87a6 6 0 0 1 6 6v139.54a6 6 0 0 1-6 6h-574.87a6 6 0 0 1-6-6zM11485.3 7285.85a6 6 0 0 1 6-6h611.5a6 6 0 0 1 6 6v446.55a6 6 0 0 1-6 6h-611.5a6 6 0 0 1-6-6zM11490.87 6466.9a6 6 0 0 1 6-6h466.1a6 6 0 0 1 6 6v367.04a6 6 0 0 1-6 6h-466.1a6 6 0 0 1-6-6z" stroke="#3a414a" stroke-width="5" fill="#fff"/><path d="M10427.58 6005.52c22.1 0 40 17.9 40 40s-17.9 40-40 40h-80c-22.1 0-40-17.9-40-40s17.9-40 40-40z" stroke="#e08fff" stroke-width="2" fill="#f4d9ff"/><use xlink:href="#a" transform="matrix(1,0,0,1,10312.578526727511,6010.51937974103) translate(29.3359375 45.45138888888889)"/><path d="M10594.87 5984.06c33.94 0 61.46 27.5 61.46 61.46 0 33.94-27.52 61.46-61.46 61.46h-37.07c-33.95 0-61.47-27.5-61.47-61.46 0-33.95 27.52-61.47 61.47-61.47z" stroke="#ba23f6" stroke-width="2" fill="#f4d9ff"/><use xlink:href="#b" transform="matrix(1,0,0,1,10501.332754363228,5989.05453599103) translate(21.87457465277777 36.14888888888889)"/><use xlink:href="#c" transform="matrix(1,0,0,1,10501.332754363228,5989.05453599103) translate(5.7443576388888715 73.79211805555556)"/><use xlink:href="#d" transform="matrix(1,0,0,1,10501.332754363228,5989.05453599103) translate(129.94574652777777 73.79211805555556)"/><use xlink:href="#e" transform="matrix(1,0,0,1,10501.332754363228,5989.05453599103) translate(63.642152777777774 111.43534722222222)"/><path d="M10783.62 5984.06c33.95 0 61.47 27.5 61.47 61.46 0 33.94-27.53 61.46-61.48 61.46h-37.07c-33.94 0-61.46-27.5-61.46-61.46 0-33.95 27.5-61.47 61.45-61.47z" stroke="#e81313" stroke-width="2" fill="#ffd9d9"/><use xlink:href="#f" transform="matrix(1,0,0,1,10690.086981998944,5989.05453599103) translate(31.809470486111113 33.67013888888889)"/><use xlink:href="#c" transform="matrix(1,0,0,1,10690.086981998944,5989.05453599103) translate(5.7443576388888715 71.31336805555557)"/><use xlink:href="#d" transform="matrix(1,0,0,1,10690.086981998944,5989.05453599103) translate(129.94574652777777 71.31336805555557)"/><use xlink:href="#g" transform="matrix(1,0,0,1,10690.086981998944,5989.05453599103) translate(64.96376736111111 108.95659722222223)"/><path d="M10426.74 6248.84a6 6 0 0 1 6-6h281.93a6 6 0 0 1 6 6v111.27a6 6 0 0 1-6 6h-281.93a6 6 0 0 1-6-6z" stroke="#6db1ff" stroke-width="5" fill="#edf5ff"/><use xlink:href="#h" transform="matrix(1,0,0,1,10438.740077105113,6254.844252939614) translate(-12.496744791666686 42.49565972222222)"/><use xlink:href="#i" transform="matrix(1,0,0,1,10438.740077105113,6254.844252939614) translate(93.26280381944444 80.13888888888889)"/><path d="M10568.9 6501.8a8 8 0 0 1 9.6 0l70.4 52.8a4.5 4.5 0 0 1 0 7.2l-70.4 52.8a8 8 0 0 1-9.6 0l-70.4-52.8a4.5 4.5 0 0 1 0-7.2z" stroke="#3a414a" stroke-width="5" fill="#fff"/><use xlink:href="#j" transform="matrix(1,0,0,1,10498.70713986376,6503.196524354007) translate(64.96376736111111 32.14888888888889)"/><use xlink:href="#k" transform="matrix(1,0,0,1,10498.70713986376,6503.196524354007) translate(26.462248263888885 69.79211805555556)"/><use xlink:href="#l" transform="matrix(1,0,0,1,10498.70713986376,6503.196524354007) translate(55.796015625 69.79211805555556)"/><path d="M10573.7 6371.1V6472.84" stroke="#3a414a" stroke-width="5" fill="none"/><path d="M10576.18 6371.18h-4.95v-2.57h4.95z" stroke="#3a414a" stroke-width=".05" fill="#3a414a"/><path d="M10573.7 6489.6l-4.63-14.27h9.27z" stroke="#3a414a" stroke-width="5" fill="#3a414a"/><path d="M10326.73 6559.17h-54.3l-.84.07-.77.18-.73.3-.67.4-.6.53-.5.6-.43.67-.3.73-.18.76-.07.84v101.52h-1.95v-101.6l.1-1.06.24-1.06.42-1 .57-.94.7-.84.85-.7.93-.58 1.02-.42 1.07-.26 1.04-.08h54.4zm166.47 0h-111.17v-1.95h111.17z" stroke="#008a0e" stroke-width=".05" fill="#008a0e"/><path d="M10494.2 6558.2l.1.97h-1.13v-1.95h1.12z" fill="#008a0e"/><path stroke="#008a0e" stroke-width=".05" fill="#008a0e"/><path d="M10266.38 6681.03l-4.64-14.27h9.27z" fill="#008a0e"/><path d="M10266.38 6684.2l-5.98-18.4h11.95zm-3.3-16.46l3.3 10.14 3.3-10.14z" stroke="#008a0e" stroke-width=".05" fill="#008a0e"/><use xlink:href="#m" transform="matrix(1,0,0,1,10326.733385199926,6539.374909770674) translate(0 30.138888888888893)"/><path d="M10186.38 6692.77a6 6 0 0 1 6-6h148a6 6 0 0 1 6 6v124.93a6 6 0 0 1-6 6h-148a6 6 0 0 1-6-6z" stroke="#008a0e" stroke-width="5" fill="#e3fae3"/><use xlink:href="#n" transform="matrix(1,0,0,1,10198.37738949947,6698.766227350926) translate(10.798394097222214 33.67013888888889)"/><use xlink:href="#o" transform="matrix(1,0,0,1,10198.37738949947,6698.766227350926) translate(16.874782986111107 71.31336805555557)"/><use xlink:href="#p" transform="matrix(1,0,0,1,10198.37738949947,6698.766227350926) translate(28.564236111111107 108.95659722222223)"/><path d="M10581.15 6678.95h-1.95v-12.14h1.95zm-6.47-49.78h-1.95v-9.47h1.95z" stroke="#e81313" stroke-width=".05" fill="#e81313"/><path d="M10573.7 6618.7l.98-.06v1.1h-1.95v-1.1z" fill="#e81313"/><path stroke="#e81313" stroke-width=".05" fill="#e81313"/><path d="M10580.17 6694.22l-4.63-14.27h9.27z" fill="#e81313"/><path d="M10580.17 6697.37l-5.97-18.4h11.95zm-3.3-16.44l3.3 10.13 3.3-10.13z" stroke="#e81313" stroke-width=".05" fill="#e81313"/><use xlink:href="#q" transform="matrix(1,0,0,1,10552.31065548876,6629.165008940361) translate(0 30.138888888888893)"/><path d="M10575.12 6701.44a9.35 9.35 0 0 1 10.1 0l117.08 75.15a3.85 3.85 0 0 1 0 6.47l-117.08 75.15a9.35 9.35 0 0 1-10.1 0l-117.07-75.15a3.85 3.85 0 0 1 0-6.48z" stroke="#3a414a" stroke-width="5" fill="#fff"/><use xlink:href="#r" transform="matrix(1,0,0,1,10458,6703.196524354007) translate(73.43186631944444 59.01388888888889)"/><use xlink:href="#s" transform="matrix(1,0,0,1,10458,6703.196524354007) translate(42.366328125 96.65711805555557)"/><use xlink:href="#t" transform="matrix(1,0,0,1,10458,6703.196524354007) translate(92.28386284722222 96.65711805555557)"/><a xlink:href="http://C.type" target="_blank" transform="matrix(1,0,0,1,10458,6703.196524354007)"><path class="lucid-link lucid-hotspot lucid-overlay-hotspot" fill-opacity="0" d="M73.43 28.88h97.15v37.64H73.43z"/></a><path d="M10707.58 6780.8v-1.95h14.5v1.95z" stroke="#008a0e" stroke-width=".05" fill="#008a0e"/><path d="M10707.6 6780.8h-1.12l.1-.97-.1-.98h1.13z" fill="#008a0e"/><path stroke="#008a0e" stroke-width=".05" fill="#008a0e"/><path d="M10789.63 6785.94l-12.26 4v-7.98z" fill="#008a0e"/><path d="M10792.78 6785.94l-15.4 5v-2.04l9.1-2.96-9.1-2.96v-2.05z" stroke="#008a0e" stroke-width=".05" fill="#008a0e"/><use xlink:href="#m" transform="matrix(1,0,0,1,10722.075007465006,6764.064332346065) translate(0 30.138888888888893)"/><path d="M10921.3 6695.9a8.6 8.6 0 0 1 9.85 0l124.13 86.6a4.18 4.18 0 0 1 0 6.88l-124.13 86.6a8.6 8.6 0 0 1-9.85 0l-124.13-86.6a4.18 4.18 0 0 1 0-6.87z" stroke="#3a414a" stroke-width="5" fill="#fff"/><use xlink:href="#u" transform="matrix(1,0,0,1,10797.246220180861,6697.47982387461) translate(30.471354166666657 80.99565972222223)"/><use xlink:href="#v" transform="matrix(1,0,0,1,10797.246220180861,6697.47982387461) translate(186.36111111111111 80.99565972222223)"/><use xlink:href="#w" transform="matrix(1,0,0,1,10797.246220180861,6697.47982387461) translate(49.32335069444444 118.63888888888889)"/><a xlink:href="http://C.schema" target="_blank" transform="matrix(1,0,0,1,10797.246220180861,6697.47982387461)"><path class="lucid-link lucid-hotspot lucid-overlay-hotspot" fill-opacity="0" d="M30.47 50.86H177.6V88.5H30.48z"/></a><path d="M10581.15 6970.92h-1.95v-26.28h1.95zm0-63.93h-1.95v-43.8h1.95z" stroke="#e81313" stroke-width=".05" fill="#e81313"/><path d="M10580.17 6862.2l.98-.05v1.08h-1.95v-1.08z" fill="#e81313"/><path stroke="#e81313" stroke-width=".05" fill="#e81313"/><path d="M10580.17 6986.2l-4.63-14.28h9.27z" fill="#e81313"/><path d="M10580.17 6989.34l-5.97-18.4h11.95zm-3.3-16.44l3.3 10.13 3.3-10.13z" stroke="#e81313" stroke-width=".05" fill="#e81313"/><use xlink:href="#q" transform="matrix(1,0,0,1,10558.77661122426,6906.994015727442) translate(0 30.138888888888893)"/><path d="M10575.37 6993.53a8 8 0 0 1 9.6 0l70.4 52.8a4.5 4.5 0 0 1 0 7.2l-70.4 52.8a8 8 0 0 1-9.6 0l-70.4-52.8a4.5 4.5 0 0 1 0-7.2z" stroke="#e81313" stroke-width="5" fill="#fff"/><use xlink:href="#x" transform="matrix(1,0,0,1,10505.17309559926,6994.928617146934) translate(42.86849826388888 67.95138888888889)"/><path d="M11535.52 6511.73a6 6 0 0 1 6-6h148a6 6 0 0 1 6 6v108a6 6 0 0 1-6 6h-148a6 6 0 0 1-6-6z" stroke="#fc9432" stroke-width="5" fill="#fff3d9"/><use xlink:href="#y" transform="matrix(1,0,0,1,11547.518702637151,6517.731216012626) translate(15.811414930555557 60.13888888888889)"/><path d="M10927.2 6964.64h-1.95v-14.24h1.95zm0-51.88h-1.95v-31.74h1.95z" stroke="#008a0e" stroke-width=".05" fill="#008a0e"/><path d="M10926.23 6880.02l.97-.06v1.1h-1.95v-1.1z" fill="#008a0e"/><path stroke="#008a0e" stroke-width=".05" fill="#008a0e"/><path d="M10926.23 6979.9l-4.64-14.26h9.26z" fill="#008a0e"/><path d="M10926.23 6983.06l-5.98-18.4h11.95zm-3.3-16.45l3.3 10.15 3.3-10.14z" stroke="#008a0e" stroke-width=".05" fill="#008a0e"/><use xlink:href="#m" transform="matrix(1,0,0,1,10898.577395151271,6912.760203273133) translate(0 30.138888888888893)"/><path d="M10920.87 6986.92a11.85 11.85 0 0 1 10.7 0l119.12 60.3a3.04 3.04 0 0 1 0 5.42l-119.12 60.3a11.85 11.85 0 0 1-10.7 0l-119.12-60.3a3.04 3.04 0 0 1 0-5.42z" stroke="#008a0e" stroke-width="5" fill="#fff"/><use xlink:href="#z" transform="matrix(1,0,0,1,10801.408003275259,6989.211916667537) translate(78.38390625 72.07638888888889)"/><path d="M11081.2 6786.92h-20.62v-1.95h20.6zm45.9 0h-3.1v-1.95h3.1z" stroke="#e81313" stroke-width=".05" fill="#e81313"/><path d="M11060.6 6786.92h-1.1l.08-.98-.1-.97h1.13z" fill="#e81313"/><path stroke="#e81313" stroke-width=".05" fill="#e81313"/><path d="M11142.36 6785.94l-14.27 4.64v-9.27z" fill="#e81313"/><path d="M11145.52 6785.94l-18.4 5.98v-11.95zm-16.45 3.3l10.14-3.3-10.13-3.3z" stroke="#e81313" stroke-width=".05" fill="#e81313"/><use xlink:href="#q" transform="matrix(1,0,0,1,11081.195180988387,6767.120130399993) translate(0 30.138888888888893)"/><path d="M11259.7 6700.23a8.02 8.02 0 0 1 9.62 0l109.8 82.12a4.5 4.5 0 0 1 0 7.18l-109.8 82.12a8.02 8.02 0 0 1-9.6 0l-109.8-82.1a4.5 4.5 0 0 1 0-7.2z" stroke="#3a414a" stroke-width="5" fill="#fff"/><use xlink:href="#A" transform="matrix(1,0,0,1,11150.103737992911,6701.641606969008) translate(79.45183159722222 77.67013888888889)"/><use xlink:href="#B" transform="matrix(1,0,0,1,11150.103737992911,6701.641606969008) translate(62.77973958333333 115.31336805555557)"/><path d="M11760.46 6511.73a6 6 0 0 1 6-6h148a6 6 0 0 1 6 6v108a6 6 0 0 1-6 6h-148a6 6 0 0 1-6-6z" stroke="#fc9432" stroke-width="5" fill="#fff3d9"/><use xlink:href="#C" transform="matrix(1,0,0,1,11772.460517213842,6517.731216012626) translate(24.94878472222222 60.13888888888889)"/><path d="M11535.52 6684a6 6 0 0 1 6-6h148a6 6 0 0 1 6 6v108a6 6 0 0 1-6 6h-148a6 6 0 0 1-6-6z" stroke="#fc9432" stroke-width="5" fill="#fff3d9"/><use xlink:href="#D" transform="matrix(1,0,0,1,11547.518702637151,6690.0041868889875) translate(35.68880208333333 60.13888888888889)"/><path d="M11760.46 6684a6 6 0 0 1 6-6h148a6 6 0 0 1 6 6v108a6 6 0 0 1-6 6h-148a6 6 0 0 1-6-6z" stroke="#fc9432" stroke-width="5" fill="#fff3d9"/><use xlink:href="#E" transform="matrix(1,0,0,1,11772.460517213842,6690.0041868889875) translate(28.06293402777777 60.13888888888889)"/><path d="M11529.94 6921.46a6 6 0 0 1 6-6h148a6 6 0 0 1 6 6v108a6 6 0 0 1-6 6h-148a6 6 0 0 1-6-6z" stroke="#ff80df" stroke-width="5" fill="#fff0fb"/><use xlink:href="#F" transform="matrix(1,0,0,1,11541.939737054672,6927.457118339352) translate(26.634982638888886 60.13888888888889)"/><path d="M11529.94 7089.05a6 6 0 0 1 6-6h148a6 6 0 0 1 6 6v108a6 6 0 0 1-6 6h-148a6 6 0 0 1-6-6z" stroke="#ff80df" stroke-width="5" fill="#fff0fb"/><use xlink:href="#G" transform="matrix(1,0,0,1,11541.939737054672,7095.052650185962) translate(28.313585069444443 60.13888888888889)"/><path d="M11529.94 7311.98a6 6 0 0 1 6-6h148a6 6 0 0 1 6 6v108a6 6 0 0 1-6 6h-148a6 6 0 0 1-6-6z" stroke="#00c2a8" stroke-width="5" fill="#d7faf5"/><use xlink:href="#H" transform="matrix(1,0,0,1,11541.939737054672,7317.97560571288) translate(16.160807291666664 60.13888888888889)"/><path d="M11722.73 7311.98a6 6 0 0 1 6-6h148a6 6 0 0 1 6 6v108a6 6 0 0 1-6 6h-148a6 6 0 0 1-6-6z" stroke="#00c2a8" stroke-width="5" fill="#d7faf5"/><use xlink:href="#I" transform="matrix(1,0,0,1,11734.730229923203,7317.97560571288) translate(8.253906249999993 60.13888888888889)"/><path d="M11529.94 7450.58a6 6 0 0 1 6-6h148a6 6 0 0 1 6 6v108a6 6 0 0 1-6 6h-148a6 6 0 0 1-6-6z" stroke="#00c2a8" stroke-width="5" fill="#d7faf5"/><use xlink:href="#J" transform="matrix(1,0,0,1,11541.939737054672,7456.5761177247805) translate(15.887369791666657 60.13888888888889)"/><path d="M11529.94 7600.54a6 6 0 0 1 6-6h148a6 6 0 0 1 6 6v108a6 6 0 0 1-6 6h-148a6 6 0 0 1-6-6z" stroke="#00c2a8" stroke-width="5" fill="#d7faf5"/><use xlink:href="#K" transform="matrix(1,0,0,1,11541.939737054672,7606.537327442575) translate(31.146701388888886 60.13888888888889)"/><path d="M11915.52 7311.98a6 6 0 0 1 6-6h148a6 6 0 0 1 6 6v108a6 6 0 0 1-6 6h-148a6 6 0 0 1-6-6z" stroke="#00c2a8" stroke-width="5" fill="#d7faf5"/><use xlink:href="#L" transform="matrix(1,0,0,1,11927.520722791734,7317.97560571288) translate(24.33355034722222 60.13888888888889)"/><path d="M11722.73 7450.58a6 6 0 0 1 6-6h148a6 6 0 0 1 6 6v108a6 6 0 0 1-6 6h-148a6 6 0 0 1-6-6z" stroke="#00c2a8" stroke-width="5" fill="#d7faf5"/><use xlink:href="#M" transform="matrix(1,0,0,1,11734.730229923203,7456.5761177247805) translate(31.746744791666664 60.13888888888889)"/><path d="M11722.73 7600.54a6 6 0 0 1 6-6h148a6 6 0 0 1 6 6v108a6 6 0 0 1-6 6h-148a6 6 0 0 1-6-6z" stroke="#00c2a8" stroke-width="5" fill="#d7faf5"/><use xlink:href="#N" transform="matrix(1,0,0,1,11734.730229923203,7606.537327442575) translate(26.634982638888886 60.13888888888889)"/><path d="M11480.3 7509.12h-548.07a6 6 0 0 1-6-6v-361.55" stroke="#3a414a" stroke-width="5" fill="none"/><path d="M11482.8 7511.6h-2.57v-4.95h2.56z" stroke="#3a414a" stroke-width=".05" fill="#3a414a"/><path d="M10926.23 7124.8l4.63 14.27h-9.27z" stroke="#3a414a" stroke-width="5" fill="#3a414a"/><path d="M12139.76 6557.8a6 6 0 0 1 6-6h557a6 6 0 0 1 6 6v185.25a6 6 0 0 1-6 6h-557a6 6 0 0 1-6-6z" stroke="#3a414a" stroke-width="5" fill="#fff"/><use xlink:href="#O" transform="matrix(1,0,0,1,12151.760381958167,6563.796763925551) translate(0 30.138888888888893)"/><use xlink:href="#P" transform="matrix(1,0,0,1,12151.760381958167,6563.796763925551) translate(72.64322916666667 30.138888888888893)"/><use xlink:href="#Q" transform="matrix(1,0,0,1,12151.760381958167,6563.796763925551) translate(195.69010416666669 30.138888888888893)"/><use xlink:href="#R" transform="matrix(1,0,0,1,12151.760381958167,6563.796763925551) translate(309.8654513888889 30.138888888888893)"/><use xlink:href="#S" transform="matrix(1,0,0,1,12151.760381958167,6563.796763925551) translate(366.0112847222223 30.138888888888893)"/><use xlink:href="#T" transform="matrix(1,0,0,1,12151.760381958167,6563.796763925551) translate(0 67.78211805555557)"/><use xlink:href="#U" transform="matrix(1,0,0,1,12151.760381958167,6563.796763925551) translate(109.04079861111111 67.78211805555557)"/><use xlink:href="#V" transform="matrix(1,0,0,1,12151.760381958167,6563.796763925551) translate(179.20789930555554 67.78211805555557)"/><use xlink:href="#W" transform="matrix(1,0,0,1,12151.760381958167,6563.796763925551) translate(294.21875 67.78211805555557)"/><use xlink:href="#X" transform="matrix(1,0,0,1,12151.760381958167,6563.796763925551) translate(427.3828125 67.78211805555557)"/><use xlink:href="#Y" transform="matrix(1,0,0,1,12151.760381958167,6563.796763925551) translate(0 105.42534722222223)"/><use xlink:href="#Z" transform="matrix(1,0,0,1,12151.760381958167,6563.796763925551) translate(95.14105902777777 105.42534722222223)"/><path d="M12541.4 6648.7c22.1 0 40 17.9 40 40 0 22.08-17.9 40-40 40h-80c-22.1 0-40-17.92-40-40 0-22.1 17.9-40 40-40z" stroke="#e08fff" stroke-width="5" fill="#f4d9ff"/><use xlink:href="#aa" transform="matrix(1,0,0,1,12426.400416245677,6653.690470158404) translate(29.3359375 45.45138888888889)"/><path d="M12713.75 6650.42h44.58" stroke="#3a414a" stroke-width="5" fill="none"/><path d="M12713.8 6652.9h-2.55v-4.95h2.56z" stroke="#3a414a" stroke-width=".05" fill="#3a414a"/><path d="M12775.1 6650.42l-14.27 4.64v-9.27z" stroke="#3a414a" stroke-width="5" fill="#3a414a"/><path d="M12785.7 6557.8a6 6 0 0 1 6-6h556.97a6 6 0 0 1 6 6v185.25a6 6 0 0 1-6 6h-556.98a6 6 0 0 1-6-6z" stroke="#3a414a" stroke-width="5" fill="#fff"/><path d="M12932.5 6604.74c22.1 0 40 17.9 40 40s-17.9 40-40 40h-80c-22.08 0-40-17.9-40-40s17.92-40 40-40z" stroke="#e08fff" stroke-width="5" fill="#f4d9ff"/><use xlink:href="#aa" transform="matrix(1,0,0,1,12817.507316294656,6609.741344565604) translate(29.3359375 45.45138888888889)"/><path d="M13114.72 6604.74c22.1 0 40 17.9 40 40s-17.9 40-40 40h-80c-22.1 0-40-17.9-40-40s17.9-40 40-40z" stroke="#ba23f6" stroke-width="5" fill="#f4d9ff"/><use xlink:href="#ab" transform="matrix(1,0,0,1,12999.7181922011,6609.741344565604) translate(28.553602430555557 45.45138888888889)"/><use xlink:href="#ac" transform="matrix(1,0,0,1,12999.7181922011,6609.741344565604) translate(98.720703125 45.45138888888889)"/><path d="M13296.93 6601.23c22.1 0 40 17.9 40 40s-17.9 40-40 40h-80c-22.1 0-40-17.9-40-40s17.9-40 40-40z" stroke="#e81313" stroke-width="5" fill="#ffd9d9"/><use xlink:href="#ab" transform="matrix(1,0,0,1,13181.929068107544,6606.231071100926) translate(29.875217013888886 45.45138888888889)"/><use xlink:href="#ad" transform="matrix(1,0,0,1,13181.929068107544,6606.231071100926) translate(100.04231770833333 45.45138888888889)"/><path d="M13359.67 6650.42h31.5a6 6 0 0 0 6-6v-333.94a6 6 0 0 0-6-6h-2643.14" stroke="#3a414a" stroke-width="5" fill="none"/><path d="M13359.74 6652.9h-2.57v-4.95h2.57z" stroke="#3a414a" stroke-width=".05" fill="#3a414a"/><path d="M10731.26 6304.48l14.27-4.64v9.27z" stroke="#3a414a" stroke-width="5" fill="#3a414a"/><path d="M11973.97 6650.42h138.43" stroke="#3a414a" stroke-width="5" fill="none"/><path d="M11974.03 6652.9h-2.56v-4.95h2.56z" stroke="#3a414a" stroke-width=".05" fill="#3a414a"/><path d="M12129.17 6650.42l-14.27 4.64v-9.27z" stroke="#3a414a" stroke-width="5" fill="#3a414a"/><path d="M11385.93 6785.94h43.97a6 6 0 0 0 6-6V6663.2a6 6 0 0 1 6-6h21.6" stroke="#3a414a" stroke-width="5" fill="none"/><path d="M11386 6788.42h-3.02l.33-1.2.13-1.28-.12-1.3-.32-1.17h3.02z" stroke="#3a414a" stroke-width=".05" fill="#3a414a"/><path d="M11480.28 6657.2l-14.27 4.64v-9.28z" stroke="#3a414a" stroke-width="5" fill="#3a414a"/><path d="M11385.93 6785.94h41.84a6 6 0 0 1 6 6v177.52a6 6 0 0 0 6 6h62.8" stroke="#3a414a" stroke-width="5" fill="none"/><path d="M11386 6788.42h-3.02l.33-1.2.13-1.28-.12-1.3-.32-1.17h3.02z" stroke="#3a414a" stroke-width=".05" fill="#3a414a"/><path d="M11519.35 6975.46l-14.27 4.63v-9.28z" stroke="#3a414a" stroke-width="5" fill="#3a414a"/><path d="M11385.93 6785.94h41.84a6 6 0 0 1 6 6v345.1a6 6 0 0 0 6 6h62.8" stroke="#3a414a" stroke-width="5" fill="none"/><path d="M11386 6788.42h-3.02l.33-1.2.13-1.28-.12-1.3-.32-1.17h3.02z" stroke="#3a414a" stroke-width=".05" fill="#3a414a"/><path d="M11519.35 7143.05l-14.27 4.64v-9.28z" stroke="#3a414a" stroke-width="5" fill="#3a414a"/><path d="M11385.93 6785.94h41.18a6 6 0 0 1 6 6v637.18a6 6 0 0 0 6 6h18.84" stroke="#3a414a" stroke-width="5" fill="none"/><path d="M11386 6788.42h-3.02l.33-1.2.13-1.28-.12-1.3-.32-1.17h3.02z" stroke="#3a414a" stroke-width=".05" fill="#3a414a"/><path d="M11474.7 7435.12l-14.26 4.64v-9.27z" stroke="#3a414a" stroke-width="5" fill="#3a414a"/><path d="M11803.4 6913a6 6 0 0 1 6-6h148a6 6 0 0 1 6 6v124.92a6 6 0 0 1-6 6h-148a6 6 0 0 1-6-6z" stroke="#008a0e" stroke-width="5" fill="#e3fae3"/><use xlink:href="#ae" transform="matrix(1,0,0,1,11815.391183635047,6918.992274589352) translate(10.798394097222214 33.67013888888889)"/><use xlink:href="#af" transform="matrix(1,0,0,1,11815.391183635047,6918.992274589352) translate(26.916015624999993 71.31336805555557)"/><use xlink:href="#ag" transform="matrix(1,0,0,1,11815.391183635047,6918.992274589352) translate(28.564236111111107 108.95659722222223)"/><path d="M11803.4 7080.6a6 6 0 0 1 6-6h148a6 6 0 0 1 6 6v124.92a6 6 0 0 1-6 6h-148a6 6 0 0 1-6-6z" stroke="#008a0e" stroke-width="5" fill="#e3fae3"/><use xlink:href="#ae" transform="matrix(1,0,0,1,11815.391183635047,7086.587806435962) translate(10.798394097222214 33.67013888888889)"/><use xlink:href="#ah" transform="matrix(1,0,0,1,11815.391183635047,7086.587806435962) translate(31.73914930555555 71.31336805555557)"/><use xlink:href="#ai" transform="matrix(1,0,0,1,11815.391183635047,7086.587806435962) translate(38.59027777777777 108.95659722222223)"/><path d="M11694.94 6975.46h81.1" stroke="#3a414a" stroke-width="5" fill="none"/><path d="M11695 6977.93h-2.56v-4.95h2.56z" stroke="#3a414a" stroke-width=".05" fill="#3a414a"/><path d="M11792.8 6975.46l-14.26 4.63v-9.28z" stroke="#3a414a" stroke-width="5" fill="#3a414a"/><path d="M11694.94 7143.05h81.1" stroke="#3a414a" stroke-width="5" fill="none"/><path d="M11695 7145.53h-2.56v-4.95h2.56z" stroke="#3a414a" stroke-width=".05" fill="#3a414a"/><path d="M11792.8 7143.05l-14.26 4.64v-9.28z" stroke="#3a414a" stroke-width="5" fill="#3a414a"/><path d="M10573.7 6124.7v99.26" stroke="#3a414a" fill="none"/><path d="M10574.18 6124.7h-.95v-.5h.95z" stroke="#3a414a" stroke-width=".05" fill="#3a414a"/><path d="M10573.7 6238.73l-4.63-14.27h9.27z" stroke="#3a414a" fill="#3a414a"/><path d="M10262.05 6963.07a6.25 6.25 0 0 1 8.65 0l86.1 82.7a5.76 5.76 0 0 1 0 8.3l-86.1 82.72a6.25 6.25 0 0 1-8.65 0l-86.1-82.72a5.76 5.76 0 0 1 0-8.3z" stroke="#6db1ff" stroke-width="2" fill="#edf5ff"/><use xlink:href="#aj" transform="matrix(1,0,0,1,10176.62666060726,6963.911303689929) translate(78.02691840277778 46.35763888888889)"/><use xlink:href="#o" transform="matrix(1,0,0,1,10176.62666060726,6963.911303689929) translate(38.37978298611111 84.00086805555557)"/><use xlink:href="#ak" transform="matrix(1,0,0,1,10176.62666060726,6963.911303689929) translate(42.616762152777774 121.64409722222223)"/><path d="M10266.38 6826.7v117.24" stroke="#3a414a" fill="none"/><path d="M10266.85 6826.7h-.95v-.5h.95z" stroke="#3a414a" stroke-width=".05" fill="#3a414a"/><path d="M10266.38 6958.7l-4.64-14.26h9.27z" stroke="#3a414a" fill="#3a414a"/><path d="M10267.35 7173.5l.07.82.18.77.3.7.42.7.5.6.6.5.68.4.73.3.76.2.82.06h294.02v1.95h-294.1l-1.05-.07-1.08-.26-1-.42-.94-.57-.84-.7-.7-.84-.58-.94-.42-1-.25-1.07-.1-1.06v-33.04h1.95zm608.18.07l-.08 1.06-.26 1.06-.43 1-.57.94-.7.83-.84.7-.94.58-1 .42-1.07.26-1.06.08h-246.86v-1.94h246.78l.82-.07.77-.2.73-.3.68-.4.6-.52.52-.6.4-.67.3-.7.2-.78.06-.82v-62.7h1.95z" stroke="#008a0e" stroke-width=".05" fill="#008a0e"/><path d="M10266.38 7139.53l.97-.07v1.1h-1.95v-1.1z" fill="#008a0e"/><path stroke="#008a0e" stroke-width=".05" fill="#008a0e"/><path d="M10879.2 7109.8h-9.28l4.63-14.27z" fill="#008a0e"/><path d="M10880.53 7110.77h-11.95l5.97-18.4zm-9.27-1.95h6.6l-3.3-10.14z" stroke="#008a0e" stroke-width=".05" fill="#008a0e"/><use xlink:href="#m" transform="matrix(1,0,0,1,10566.440082362597,7160.7122779407455) translate(0 30.138888888888893)"/><path d="M10408.72 7050.9h-48.14v-1.95h48.14zm73.44 0h-30.65v-1.95h30.66z" stroke="#e81313" stroke-width=".05" fill="#e81313"/><path d="M10360.6 7050.9h-1.1l.08-.97-.08-.98h1.1z" fill="#e81313"/><path stroke="#e81313" stroke-width=".05" fill="#e81313"/><path d="M10497.43 7049.93l-14.27 4.63v-9.27z" fill="#e81313"/><path d="M10500.58 7049.93l-18.4 5.98v-11.95zm-16.44 3.3l10.13-3.3-10.14-3.3z" stroke="#e81313" stroke-width=".05" fill="#e81313"/><use xlink:href="#q" transform="matrix(1,0,0,1,10408.722257243055,7031.107002563601) translate(0 30.138888888888893)"/><path d="M10154.66 6432.45c-22.72 0-41.13-12.63-41.13-28.22 0-12.46 11.14-22.98 28.42-26.83-1-36.66 67.56-43.7 94.98-29.6 13.72-21.16 82.28-14.1 82.28 7.05 41.14-7.05 82.28 21.16 54.86 56.44 27.42 28.2 0 63.47-54.85 49.37-13.7 18.34-68.55 18.34-82.27 0-27.42 14.1-82.27 7.05-82.27-28.22z" stroke="#1071e5" stroke-width="8" fill="#fff"/><use xlink:href="#al" transform="matrix(1,0,0,1,10118.52597967565,6338.6894388149685) translate(49.267152777777774 38.38888888888889)"/><use xlink:href="#am" transform="matrix(1,0,0,1,10118.52597967565,6338.6894388149685) translate(65.43056423611111 76.03211805555557)"/><use xlink:href="#an" transform="matrix(1,0,0,1,10118.52597967565,6338.6894388149685) translate(80.51389756944445 113.67534722222223)"/><path d="M10279.68 6482.4l.1 1.1.37 2.1.47 1.88.57 1.72.66 1.6.76 1.53.86 1.45 1 1.4 1.12 1.4 1.3 1.38 1.55 1.4 1.84 1.46 2.28 1.54 2.98 1.7 4.23 2.03 7.7 2.98 12 4.26" stroke="#1071e5" stroke-width="8" stroke-linejoin="round" fill="none"/><path d="M10283.56 6482.4l-7.95.2-.1-4.25 4.3.06 3.66-.16z" stroke="#1071e5" stroke-width=".05" fill="#1071e5"/><path d="M10336.1 6520.7l-14.93-1.55 3.76-8.48z" stroke="#1071e5" stroke-width="8" fill="#1071e5"/><path d="M13039.75 7320.32c-24.87 0-45.03-13.92-45.03-31.1 0-13.72 12.2-25.3 31.12-29.55-1.1-40.38 73.96-48.15 104-32.6 15-23.32 90.06-15.55 90.06 7.76 45.04-7.77 90.07 23.32 60.05 62.17 30.02 31.1 0 69.95-60.05 54.4-15 20.2-75.06 20.2-90.07 0-30.03 15.55-90.08 7.78-90.08-31.08z" stroke="#e81313" stroke-width="5" fill="#fff"/><use xlink:href="#ao" transform="matrix(1,0,0,1,12999.7181922011,7216.517493935962) translate(42.07986979166666 48.38888888888889)"/><use xlink:href="#ap" transform="matrix(1,0,0,1,12999.7181922011,7216.517493935962) translate(107.70486979166665 48.38888888888889)"/><use xlink:href="#aq" transform="matrix(1,0,0,1,12999.7181922011,7216.517493935962) translate(205.960078125 48.38888888888889)"/><use xlink:href="#ar" transform="matrix(1,0,0,1,12999.7181922011,7216.517493935962) translate(41.847013888888874 86.03211805555557)"/><use xlink:href="#am" transform="matrix(1,0,0,1,12999.7181922011,7216.517493935962) translate(112.01411458333332 86.03211805555557)"/><use xlink:href="#an" transform="matrix(1,0,0,1,12999.7181922011,7216.517493935962) translate(96.01389756944445 123.67534722222223)"/><path d="M12241.8 6891.5a13.5 13.5 0 0 1 10.98 0l176.98 78.6a2.66 2.66 0 0 1 0 4.88l-176.98 78.6a13.5 13.5 0 0 1-10.97 0l-176.97-78.6a2.66 2.66 0 0 1 0-4.88z" stroke="#3a414a" stroke-width="5" fill="#fff"/><use xlink:href="#as" transform="matrix(1,0,0,1,12064.343297699003,6894.073535744437) translate(137.3409375 49.76388888888889)"/><use xlink:href="#at" transform="matrix(1,0,0,1,12064.343297699003,6894.073535744437) translate(81.87869791666665 87.40711805555557)"/><use xlink:href="#au" transform="matrix(1,0,0,1,12064.343297699003,6894.073535744437) translate(131.79623263888888 87.40711805555557)"/><use xlink:href="#af" transform="matrix(1,0,0,1,12064.343297699003,6894.073535744437) translate(201.96333333333334 87.40711805555557)"/><use xlink:href="#av" transform="matrix(1,0,0,1,12064.343297699003,6894.073535744437) translate(135.61676215277777 125.05034722222223)"/><path d="M11966.4 6975.46h78.88" stroke="#3a414a" fill="none"/><path d="M11966.4 6975.93h-.5v-.95h.5z" stroke="#3a414a" stroke-width=".05" fill="#3a414a"/><path d="M12060.05 6975.46l-14.27 4.63v-9.28z" stroke="#3a414a" fill="#3a414a"/><path d="M12278.4 7062.02a13.5 13.5 0 0 1 10.97 0l177 78.6a2.66 2.66 0 0 1 0 4.87l-177 78.58a13.5 13.5 0 0 1-10.97 0l-176.98-78.6a2.66 2.66 0 0 1 0-4.86z" stroke="#3a414a" stroke-width="5" fill="#fff"/><g><use xlink:href="#aw" transform="matrix(1,0,0,1,12100.936610727558,7064.585623127541) translate(121.24610243055555 69.38888888888889)"/><use xlink:href="#ax" transform="matrix(1,0,0,1,12100.936610727558,7064.585623127541) translate(105.006953125 107.03211805555557)"/><use xlink:href="#ay" transform="matrix(1,0,0,1,12100.936610727558,7064.585623127541) translate(186.2786545138889 107.03211805555557)"/></g><path d="M11966.4 7143.05h114.54" stroke="#3a414a" fill="none"/><path d="M11966.4 7143.53h-.5v-.95h.5z" stroke="#3a414a" stroke-width=".05" fill="#3a414a"/><path d="M12095.7 7143.05l-14.26 4.64v-9.28z" stroke="#3a414a" fill="#3a414a"/><path d="M12881.7 6919.06a8 8 0 0 1 9.6 0l70.4 52.8a4.5 4.5 0 0 1 0 7.2l-70.4 52.8a8 8 0 0 1-9.6 0l-70.4-52.8a4.5 4.5 0 0 1 0-7.2z" stroke="#e81313" stroke-width="5" fill="#fff"/><g><use xlink:href="#x" transform="matrix(1,0,0,1,12811.4977620876,6920.457118339352) translate(42.86849826388888 67.95138888888889)"/></g><path d="M13219.5 6918.17a11.85 11.85 0 0 1 10.7 0l119.12 60.3a3.04 3.04 0 0 1 0 5.4l-119.1 60.3a11.85 11.85 0 0 1-10.72 0l-119.1-60.3a3.04 3.04 0 0 1 0-5.4z" stroke="#008a0e" stroke-width="9" fill="#fff"/><g><use xlink:href="#z" transform="matrix(1,0,0,1,13100.038211470644,6920.457118339352) translate(78.38390625 72.07638888888889)"/></g><path d="M12788.5 6974.48v1.95h-140.43v-1.95zm-353.64-.96v-1.95h157.92v1.95z" stroke="#008a0e" stroke-width=".05" fill="#008a0e"/><path d="M12434.9 6973.52h-1.15l.1-.98-.1-.97h1.14z" fill="#008a0e"/><path stroke="#008a0e" stroke-width=".05" fill="#008a0e"/><path d="M12803.75 6975.46l-14.26 4.63v-9.28z" fill="#008a0e"/><path d="M12806.9 6975.46l-18.4 5.97v-11.95zm-16.44 3.3l10.14-3.3-10.14-3.3z" stroke="#008a0e" stroke-width=".05" fill="#008a0e"/><g><use xlink:href="#m" transform="matrix(1,0,0,1,12592.777211506225,6955.177226017321) translate(0 30.138888888888893)"/></g><path d="M13219.95 6846.95l1.06.26 1.02.43.94.57.83.7.7.84.57.94.42 1 .25 1.07.08 1.06v40.08h-1.95v-40l-.06-.82-.2-.77-.3-.74-.4-.67-.5-.6-.6-.52-.68-.4-.73-.3-.76-.2-.82-.06h-449.08v-1.95h449.15zm-493 1.87h-473.62l-.82.06-.76.2-.73.3-.66.4-.6.5-.5.6-.42.68-.3.73-.2.76-.05.82v32.96h-1.95v-33.03l.08-1.05.26-1.06.42-1.02.57-.94.7-.83.84-.7.93-.57 1-.42 1.07-.25 1.06-.08h473.7z" stroke="#e81313" stroke-width=".05" fill="#e81313"/><path d="M12248.27 6887.88l-.98-.04-.98.04v-1.06h1.95z" fill="#e81313"/><path stroke="#e81313" stroke-width=".05" fill="#e81313"/><path d="M13224.85 6909.15l-4.63-14.27h9.27z" fill="#e81313"/><path d="M13224.85 6912.3l-5.97-18.4h11.95zm-3.3-16.44l3.3 10.13 3.3-10.14z" stroke="#e81313" stroke-width=".05" fill="#e81313"/><g><use xlink:href="#q" transform="matrix(1,0,0,1,12726.948840390933,6829.022098423464) translate(0 30.138888888888893)"/></g><path d="M12284.86 7261.7l.07.84.18.76.3.73.43.67.5.6.6.5.68.42.74.3.76.2.83.05h363.5v1.95h-363.58l-1.05-.08-1.07-.25-1-.43-.94-.57-.85-.72-.7-.83-.58-.93-.42-1-.25-1.08-.1-1.05v-33.05h1.96zm602.6.1l-.07 1.04-.27 1.07-.4 1.02-.6.93-.7.83-.83.72-.93.57-1.02.42-1.06.24-1.06.1h-171.8v-1.97h171.72l.82-.06.77-.17.73-.3.67-.42.6-.5.5-.6.42-.67.3-.73.2-.77.05-.82v-207.24h1.95z" stroke="#008a0e" stroke-width=".05" fill="#008a0e"/><path d="M12283.9 7227.75l.96-.04v1.07h-1.95v-1.06z" fill="#008a0e"/><path stroke="#008a0e" stroke-width=".05" fill="#008a0e"/><path d="M12891.13 7053.46h-9.27l4.64-14.26z" fill="#008a0e"/><path d="M12892.48 7054.44h-11.96l5.98-18.4zm-9.28-1.95h6.6l-3.3-10.15z" stroke="#008a0e" stroke-width=".05" fill="#008a0e"/><g><use xlink:href="#m" transform="matrix(1,0,0,1,12653.439003163901,7248.927885239356) translate(0 30.138888888888893)"/></g><path d="M12760.82 7144.03h-289.36v-1.95h289.36zm465-6.94l-.07 1.04-.26 1.07-.43 1.02-.57.93-.7.84-.84.7-.94.57-1 .42-1.07.24-1.06.1h-415.28v-1.96h415.2l.82-.07.77-.17.74-.3.67-.4.6-.53.52-.6.4-.67.3-.73.2-.76.06-.83v-68.53h1.95z" stroke="#e81313" stroke-width=".05" fill="#e81313"/><path d="M12471.48 7144.03h-1.14l.12-.98-.12-.97h1.14z" fill="#e81313"/><path stroke="#e81313" stroke-width=".05" fill="#e81313"/><path d="M13229.5 7067.47h-9.28l4.64-14.27z" fill="#e81313"/><path d="M13230.83 7068.44h-11.95l5.98-18.4zm-9.27-1.95h6.6l-3.3-10.15z" stroke="#e81313" stroke-width=".05" fill="#e81313"/><g><use xlink:href="#q" transform="matrix(1,0,0,1,12760.823796841094,7124.23103566173) translate(0 30.138888888888893)"/></g><path d="M13143.9 7367.96l-.07 3.18-.4 6.13-.54 5.3-.7 4.63-.77 4.1-.85 3.62-.9 3.26-.96 2.93-1 2.68-1.02 2.43-1.05 2.24-1.07 2.06-1.1 1.9-1.13 1.78-1.15 1.66-1.18 1.55-1.2 1.45-1.24 1.37-1.27 1.3-1.3 1.23-1.35 1.17-1.4 1.1-1.45 1.06-1.5 1-1.6.96-1.64.9-1.73.87-1.83.82-1.94.77-2.06.7-2.2.67-2.38.6-2.56.55-2.77.47-3.05.37-3.35.28-3.72.16h-4.15l-4.7-.2-5.4-.45-6.25-.8-7.37-1.25-8.88-1.9-11-2.83-14.2-4.3-19.5-6.82-30.7-12.22-197.73-86.55-26.98-9.42-20.75-6.3-10.26-2.63" stroke="#e81313" stroke-width="8" stroke-linejoin="round" fill="none"/><path d="M13142.08 7363.22l2.97 1.15 2.87.94-.06 2.84-7.95-.16.13-5.7z" stroke="#e81313" stroke-width=".05" fill="#e81313"/><path d="M12702.75 7295.78l14.9-1.6-1.9 9.07z" stroke="#e81313" stroke-width="8" fill="#e81313"/><path d="M10241.13 7357.23c-24.88 0-45.04-13.92-45.04-31.1 0-13.72 12.18-25.3 31.1-29.55-1.1-40.38 73.97-48.15 104-32.6 15-23.32 90.07-15.55 90.07 7.76 45.04-7.77 90.07 23.32 60.05 62.18 30.02 31.08 0 69.94-60.05 54.4-15 20.2-75.06 20.2-90.07 0-30.03 15.54-90.07 7.77-90.07-31.1z" stroke="#e81313" stroke-width="5" fill="#fff"/><g><use xlink:href="#ao" transform="matrix(1,0,0,1,10201.08954177716,7253.428455988366) translate(42.07986979166666 48.38888888888889)"/><use xlink:href="#ap" transform="matrix(1,0,0,1,10201.08954177716,7253.428455988366) translate(107.70486979166665 48.38888888888889)"/><use xlink:href="#aq" transform="matrix(1,0,0,1,10201.08954177716,7253.428455988366) translate(205.960078125 48.38888888888889)"/><use xlink:href="#ar" transform="matrix(1,0,0,1,10201.08954177716,7253.428455988366) translate(41.847013888888874 86.03211805555557)"/><use xlink:href="#am" transform="matrix(1,0,0,1,10201.08954177716,7253.428455988366) translate(112.01411458333332 86.03211805555557)"/><use xlink:href="#an" transform="matrix(1,0,0,1,10201.08954177716,7253.428455988366) translate(96.01389756944445 123.67534722222223)"/></g><path d="M10425.4 7099.57l-16.8 40.34-10.6 25.7-4.53 12.6-3.24 10.4-2.53 9.5-2.05 9.2-1.66 9.3-1.3 9.64-.96 10.25-.37 7.25-7.94-.4.37-7.43 1-10.58 1.34-9.97 1.7-9.62 2.13-9.55 2.62-9.82 3.33-10.7 4.66-12.94 10.66-25.87 16.8-40.36z" stroke="#e81313" stroke-width=".05" fill="#e81313"/><path d="M10381.37 7243.65l-.2 4.2-3.26-.28-4.68-.14.2-4.18z" fill="#e81313"/><path stroke="#e81313" stroke-width=".05" fill="#e81313"/><path d="M10427.42 7095.77l-8.76-3.02 9.03-11.98z" fill="#e81313"/><path d="M10431.3 7101.3l-19.1-6.58 19.6-25.97h.1z" stroke="#e81313" stroke-width=".05" fill="#e81313"/><path d="M13143.93 7210.35l-.04-2.16-.37-5.7-.56-5.33-.73-5-.9-4.72-1.05-4.48-1.2-4.3-1.35-4.1-1.48-4-1.63-3.87-1.78-3.8-1.95-3.72-2.12-3.68-2.32-3.66-2.55-3.66-2.8-3.7-3.1-3.75-3.47-3.85-3.9-3.98-4.45-4.18-5.18-4.46-6.17-4.9-7.65-5.54-10.25-6.8-17.04-10.25-60.9-35.1-12.93-8.57-10.2-7.4-8.6-6.82-7.52-6.48-5.87-5.5" stroke="#e81313" stroke-width="8" stroke-linejoin="round" fill="none"/><path d="M13147.97 7213.18l-.96.24-3 .94-2.58.97-1.35.6-.1-5.6 7.94-.16z" stroke="#e81313" stroke-width=".05" fill="#e81313"/><path d="M12941.8 7013.24l12.92 7.6-6.94 6.15z" stroke="#e81313" stroke-width="8" fill="#e81313"/><defs><path d="M613 24c-304 0-509-231-509-576 0-350 205-580 509-580 305 0 511 230 511 580 0 345-206 576-511 576zm0-161c226 0 329-195 329-415 0-222-103-419-329-419-223 0-326 196-326 419 0 220 103 415 326 415" id="az"/><path d="M677 24c-213 0-288-135-325-197h-20V0H158v-1490h180v551h14c37-59 106-193 324-193 279 0 474 222 474 576 0 356-194 580-473 580zm-27-161c209 0 317-186 317-421 0-232-105-413-317-413-206 0-314 166-314 413 0 249 111 421 314 421" id="aA"/><path d="M157-1118h181V80c1 225-123 350-364 338V252c126 9 184-48 183-172v-1198zm91-183c-68 0-125-53-125-119s57-119 125-119c69 0 126 53 126 119s-57 119-126 119" id="aB"/><path d="M628 24c-324 0-524-230-524-574 0-343 198-582 503-582 237 0 487 146 487 559v75H286c9 234 145 362 343 362 132 0 231-58 273-172l174 48C1024-91 857 24 628 24zM287-650h624c-17-190-120-322-304-322-192 0-309 151-320 322" id="aC"/><path d="M613 24c-304 0-509-231-509-576 0-350 205-580 509-580 216 0 392 114 453 309l-173 49c-33-115-133-197-280-197-223 0-326 196-326 419 0 220 103 415 326 415 150 0 252-85 285-206l172 49C1010-95 832 24 613 24" id="aD"/><path d="M598-1118v154H368v674c0 100 37 144 132 144 23 0 62-6 92-12L629-6c-37 13-88 20-134 20-193 0-307-107-307-290v-688H20v-154h168v-266h180v266h230" id="aE"/><g id="a"><use transform="matrix(0.015190972222222224,0,0,0.015190972222222224,0,0)" xlink:href="#az"/><use transform="matrix(0.015190972222222224,0,0,0.015190972222222224,18.65451388888889,0)" xlink:href="#aA"/><use transform="matrix(0.015190972222222224,0,0,0.015190972222222224,37.70399305555556,0)" xlink:href="#aB"/><use transform="matrix(0.015190972222222224,0,0,0.015190972222222224,45.23871527777778,0)" xlink:href="#aC"/><use transform="matrix(0.015190972222222224,0,0,0.015190972222222224,63.376736111111114,0)" xlink:href="#aD"/><use transform="matrix(0.015190972222222224,0,0,0.015190972222222224,81.15017361111111,0)" xlink:href="#aE"/></g><path d="M537 14c-226 0-379-139-379-422v-710h180v695c0 172 97 275 253 275 160 0 281-109 281-300v-670h181V0H879v-209C806-46 684 14 537 14" id="aF"/><path d="M158 0v-1118h174v172h12c41-113 157-188 290-188 26 0 70 2 91 3v181c-11-2-60-10-108-10-161 0-279 109-279 260V0H158" id="aG"/><path d="M338-670V0H158v-1118h173l1 207c72-158 192-221 342-221 226 0 378 139 378 422V0H872v-695c0-172-96-275-252-275-161 0-282 109-282 300" id="aH"/><g id="b"><use transform="matrix(0.015190972222222224,0,0,0.015190972222222224,0,0)" xlink:href="#aD"/><use transform="matrix(0.015190972222222224,0,0,0.015190972222222224,17.773437500000004,0)" xlink:href="#aF"/><use transform="matrix(0.015190972222222224,0,0,0.015190972222222224,36.169704861111114,0)" xlink:href="#aG"/><use transform="matrix(0.015190972222222224,0,0,0.015190972222222224,48.368055555555564,0)" xlink:href="#aG"/><use transform="matrix(0.015190972222222224,0,0,0.015190972222222224,59.56380208333334,0)" xlink:href="#aC"/><use transform="matrix(0.015190972222222224,0,0,0.015190972222222224,77.70182291666669,0)" xlink:href="#aH"/><use transform="matrix(0.015190972222222224,0,0,0.015190972222222224,96.08289930555557,0)" xlink:href="#aE"/></g><path d="M538 24C308 24 148-78 108-271l171-41c32 123 123 178 257 178 156 0 256-77 256-169 0-77-54-128-164-154l-186-44c-203-48-300-148-300-305 0-192 176-326 414-326 230 0 351 112 402 269l-163 42c-31-80-94-158-238-158-133 0-233 69-233 162 0 83 57 129 188 160l169 40c203 48 298 149 298 302 0 196-179 339-441 339" id="aI"/><path d="M338-670V0H158v-1490h180v566c73-149 190-208 336-208 226 0 379 139 379 422V0H872v-695c0-172-96-275-252-275-161 0-282 109-282 300" id="aJ"/><path d="M158 0v-1118h175l1 205c55-151 181-225 313-225 147 0 245 90 285 228 53-141 190-228 352-228 194 0 352 125 352 384V0h-181v-749c0-161-105-225-225-225-151 0-243 103-243 244V0H807v-767c0-124-93-207-219-207-131 0-250 92-250 270V0H158" id="aK"/><path d="M471 26C259 26 90-98 90-318c0-256 228-303 435-329 202-27 287-16 287-108 0-139-79-219-234-219-161 0-248 86-283 164l-173-57c86-203 278-265 451-265 150 0 419 46 419 395V0H815v-152h-12C765-73 660 26 471 26zm31-159c199 0 310-134 310-271v-155c-30 35-226 55-295 64-131 17-246 59-246 186 0 116 97 176 231 176" id="aL"/><g id="c"><use transform="matrix(0.015190972222222224,0,0,0.015190972222222224,0,0)" xlink:href="#aI"/><use transform="matrix(0.015190972222222224,0,0,0.015190972222222224,16.421440972222225,0)" xlink:href="#aD"/><use transform="matrix(0.015190972222222224,0,0,0.015190972222222224,34.19487847222223,0)" xlink:href="#aJ"/><use transform="matrix(0.015190972222222224,0,0,0.015190972222222224,52.59114583333334,0)" xlink:href="#aC"/><use transform="matrix(0.015190972222222224,0,0,0.015190972222222224,70.72916666666669,0)" xlink:href="#aK"/><use transform="matrix(0.015190972222222224,0,0,0.015190972222222224,97.98177083333336,0)" xlink:href="#aL"/></g><path d="M798-719v166H144v-166h654" id="aM"/><use transform="matrix(0.015190972222222224,0,0,0.015190972222222224,0,0)" xlink:href="#aM" id="d"/><path d="M783 20c-382 0-661-292-661-764 0-473 279-766 661-766 302 0 548 182 601 489h-190c-42-204-217-313-411-313-268 0-476 208-476 590 0 381 209 588 476 588 195 0 369-110 411-313h190c-52 303-296 489-601 489" id="aN"/><use transform="matrix(0.015190972222222224,0,0,0.015190972222222224,0,0)" xlink:href="#aN" id="e"/><path d="M611 442c-248 0-391-105-460-228l146-94c47 65 117 165 314 165 178 0 307-82 307-266v-224h-17C863-141 792-18 576-18c-268 0-472-195-472-546 0-346 197-568 476-568 216 0 288 133 326 193h17v-179h175V29c0 289-215 413-487 413zm-5-620c203 0 314-146 314-390 0-237-108-403-314-403-213 0-319 180-319 403 0 230 109 390 319 390" id="aO"/><g id="f"><use transform="matrix(0.015190972222222224,0,0,0.015190972222222224,0,0)" xlink:href="#aE"/><use transform="matrix(0.015190972222222224,0,0,0.015190972222222224,10.32986111111111,0)" xlink:href="#aL"/><use transform="matrix(0.015190972222222224,0,0,0.015190972222222224,27.799479166666668,0)" xlink:href="#aG"/><use transform="matrix(0.015190972222222224,0,0,0.015190972222222224,38.99522569444444,0)" xlink:href="#aO"/><use transform="matrix(0.015190972222222224,0,0,0.015190972222222224,58.07508680555556,0)" xlink:href="#aC"/><use transform="matrix(0.015190972222222224,0,0,0.015190972222222224,76.21310763888889,0)" xlink:href="#aE"/></g><path d="M98-1322v-168h1126v168H757V0H567v-1322H98" id="aP"/><use transform="matrix(0.015190972222222224,0,0,0.015190972222222224,0,0)" xlink:href="#aP" id="g"/><path d="M481 0L54-1118h197c107 314 236 620 325 951 87-331 217-637 324-951h197L670 0H481" id="aQ"/><path d="M52 0l541-1490h220L1361 0h-200l-149-416H398L254 0H52zm404-582h497c-103-290-145-390-251-756-108 377-145 460-246 756" id="aR"/><path d="M577 24c-279 0-473-224-473-580 0-354 195-576 474-576 218 0 287 134 324 193h14v-551h180V0H922v-173h-20C865-111 790 24 577 24zm27-161c203 0 314-172 314-421 0-247-108-413-314-413-212 0-317 181-317 413 0 235 108 421 317 421" id="aS"/><path d="M600 0L52-1490h200c166 485 304 806 458 1336 156-533 285-846 449-1336h202L819 0H600" id="aT"/><path d="M338-1490V0H158v-1490h180" id="aU"/><path d="M158 0v-1118h180V0H158zm91-1301c-68 0-125-53-125-119s57-119 125-119c69 0 126 53 126 119s-57 119-126 119" id="aV"/><g id="h"><use transform="matrix(0.015190972222222224,0,0,0.015190972222222224,0,0)" xlink:href="#aE"/><use transform="matrix(0.015190972222222224,0,0,0.015190972222222224,10.17795138888889,0)" xlink:href="#aG"/><use transform="matrix(0.015190972222222224,0,0,0.015190972222222224,21.89019097222222,0)" xlink:href="#aL"/><use transform="matrix(0.015190972222222224,0,0,0.015190972222222224,38.904079861111114,0)" xlink:href="#aQ"/><use transform="matrix(0.015190972222222224,0,0,0.015190972222222224,55.78125000000001,0)" xlink:href="#aC"/><use transform="matrix(0.015190972222222224,0,0,0.015190972222222224,73.91927083333334,0)" xlink:href="#aG"/><use transform="matrix(0.015190972222222224,0,0,0.015190972222222224,85.63151041666667,0)" xlink:href="#aI"/><use transform="matrix(0.015190972222222224,0,0,0.015190972222222224,102.0529513888889,0)" xlink:href="#aC"/><use transform="matrix(0.015190972222222224,0,0,0.015190972222222224,119.14279513888891,0)" xlink:href="#aR"/><use transform="matrix(0.015190972222222224,0,0,0.015190972222222224,140.6076388888889,0)" xlink:href="#aH"/><use transform="matrix(0.015190972222222224,0,0,0.015190972222222224,158.9887152777778,0)" xlink:href="#aS"/><use transform="matrix(0.015190972222222224,0,0,0.015190972222222224,178.03819444444446,0)" xlink:href="#aT"/><use transform="matrix(0.015190972222222224,0,0,0.015190972222222224,197.92317708333334,0)" xlink:href="#aL"/><use transform="matrix(0.015190972222222224,0,0,0.015190972222222224,215.3927951388889,0)" xlink:href="#aU"/><use transform="matrix(0.015190972222222224,0,0,0.015190972222222224,222.92751736111114,0)" xlink:href="#aV"/><use transform="matrix(0.015190972222222224,0,0,0.015190972222222224,230.46223958333337,0)" xlink:href="#aS"/><use transform="matrix(0.015190972222222224,0,0,0.015190972222222224,249.51171875000003,0)" xlink:href="#aL"/><use transform="matrix(0.015190972222222224,0,0,0.015190972222222224,266.9813368055556,0)" xlink:href="#aE"/><use transform="matrix(0.015190972222222224,0,0,0.015190972222222224,276.85546875000006,0)" xlink:href="#aC"/></g><path d="M218-607c0-325 108-727 258-974h175c-155 315-250 682-250 974 0 265 78 531 250 886H476C306-10 218-315 218-607" id="aW"/><path d="M645 0H180v-1490h484c435 0 692 280 692 742 0 466-257 748-711 748zM370-168h263c363 0 539-218 539-580 0-358-176-574-521-574H370v1154" id="aX"/><path d="M180 0v-1490h901v168H370v510h643v168H370V0H180" id="aY"/><path d="M657 26c-323 0-524-166-541-416h195c15 169 171 246 346 246 202 0 356-106 356-265 5-203-294-238-475-293-239-73-380-191-380-389 0-252 224-419 512-419 294 0 499 171 508 396H992c-17-145-151-228-328-228-193 0-321 102-321 242 0 156 175 211 284 241l149 41c160 44 422 134 422 412 0 244-197 432-541 432" id="aZ"/><path d="M96 279C273-86 346-350 346-607c0-292-95-659-250-974h175c150 246 258 650 258 974 0 297-91 602-258 886H96" id="ba"/><g id="i"><use transform="matrix(0.015190972222222224,0,0,0.015190972222222224,0,0)" xlink:href="#aW"/><use transform="matrix(0.015190972222222224,0,0,0.015190972222222224,11.347656250000002,0)" xlink:href="#aX"/><use transform="matrix(0.015190972222222224,0,0,0.015190972222222224,33.79991319444445,0)" xlink:href="#aY"/><use transform="matrix(0.015190972222222224,0,0,0.015190972222222224,52.165798611111114,0)" xlink:href="#aZ"/><use transform="matrix(0.015190972222222224,0,0,0.015190972222222224,72.12673611111111,0)" xlink:href="#ba"/></g><use transform="matrix(0.015190972222222224,0,0,0.015190972222222224,0,0)" xlink:href="#aP" id="j"/><path d="M226-283v-166h904v166H226zm0-434v-166h904v166H226" id="bb"/><use transform="matrix(0.015190972222222224,0,0,0.015190972222222224,0,0)" xlink:href="#bb" id="k"/><path d="M383-449c-3-277 82-343 222-425 88-53 156-134 156-250 0-139-108-227-243-227-118 0-235 70-246 236H82c10-251 200-395 436-395 259 0 427 165 427 393 0 161-74 273-203 352-132 80-180 132-178 316H383zm93 462c-75 0-135-60-135-134 0-75 60-135 135-135 74 0 134 60 134 135 0 74-60 134-134 134" id="bc"/><g id="l"><use transform="matrix(0.015190972222222224,0,0,0.015190972222222224,0,0)" xlink:href="#aH"/><use transform="matrix(0.015190972222222224,0,0,0.015190972222222224,18.38107638888889,0)" xlink:href="#aF"/><use transform="matrix(0.015190972222222224,0,0,0.015190972222222224,36.77734375,0)" xlink:href="#aU"/><use transform="matrix(0.015190972222222224,0,0,0.015190972222222224,44.31206597222222,0)" xlink:href="#aU"/><use transform="matrix(0.015190972222222224,0,0,0.015190972222222224,51.84678819444444,0)" xlink:href="#bc"/></g><path fill="#333" d="M601 0v-560L49-1490h357l252 464c38 68 67 130 97 208 96-243 225-446 337-672h356L905-560V0H601" id="bd"/><path fill="#333" d="M633 22C291 22 81-200 81-553c0-345 210-579 537-579 292 0 525 185 525 567v84H378c7 183 109 277 260 277 105 0 184-46 216-132l272 51C1071-99 893 22 633 22zM380-669h474c-15-146-94-237-233-237-143 0-229 99-241 237" id="be"/><path fill="#333" d="M572 22C302 22 117-98 78-306l279-48c29 105 101 156 224 156 114 0 185-48 185-115 0-118-228-130-337-155-215-49-322-150-322-317 0-215 187-347 470-347 265 0 424 116 466 298l-266 47c-24-76-87-130-196-130-98 0-174 46-174 113 0 56 38 95 144 117l201 40c216 44 320 143 320 302 0 220-207 367-500 367" id="bf"/><g id="m"><use transform="matrix(0.015190972222222224,0,0,0.015190972222222224,0,0)" xlink:href="#bd"/><use transform="matrix(0.015190972222222224,0,0,0.015190972222222224,19.33810763888889,0)" xlink:href="#be"/><use transform="matrix(0.015190972222222224,0,0,0.015190972222222224,37.87109375,0)" xlink:href="#bf"/></g><g id="n"><use transform="matrix(0.015190972222222224,0,0,0.015190972222222224,0,0)" xlink:href="#aQ"/><use transform="matrix(0.015190972222222224,0,0,0.015190972222222224,17.332899305555557,0)" xlink:href="#aL"/><use transform="matrix(0.015190972222222224,0,0,0.015190972222222224,34.802517361111114,0)" xlink:href="#aU"/><use transform="matrix(0.015190972222222224,0,0,0.015190972222222224,42.337239583333336,0)" xlink:href="#aV"/><use transform="matrix(0.015190972222222224,0,0,0.015190972222222224,49.87196180555556,0)" xlink:href="#aS"/><use transform="matrix(0.015190972222222224,0,0,0.015190972222222224,68.92144097222223,0)" xlink:href="#aL"/><use transform="matrix(0.015190972222222224,0,0,0.015190972222222224,86.39105902777779,0)" xlink:href="#aE"/><use transform="matrix(0.015190972222222224,0,0,0.015190972222222224,96.26519097222223,0)" xlink:href="#aC"/></g><path d="M678-1118v154H420V0H240v-964H20v-154h220v-149c0-194 155-293 318-293 85 0 141 18 168 30l-50 154c-19-6-47-17-97-17-111 0-159 58-159 166v109h258" id="bg"/><g id="o"><use transform="matrix(0.015190972222222224,0,0,0.015190972222222224,0,0)" xlink:href="#aS"/><use transform="matrix(0.015190972222222224,0,0,0.015190972222222224,19.049479166666668,0)" xlink:href="#aC"/><use transform="matrix(0.015190972222222224,0,0,0.015190972222222224,37.1875,0)" xlink:href="#bg"/><use transform="matrix(0.015190972222222224,0,0,0.015190972222222224,48.21614583333333,0)" xlink:href="#aL"/><use transform="matrix(0.015190972222222224,0,0,0.015190972222222224,65.68576388888889,0)" xlink:href="#aF"/><use transform="matrix(0.015190972222222224,0,0,0.015190972222222224,84.08203125,0)" xlink:href="#aU"/><use transform="matrix(0.015190972222222224,0,0,0.015190972222222224,92.0724826388889,0)" xlink:href="#aE"/></g><g id="p"><use transform="matrix(0.015190972222222224,0,0,0.015190972222222224,0,0)" xlink:href="#aQ"/><use transform="matrix(0.015190972222222224,0,0,0.015190972222222224,17.332899305555557,0)" xlink:href="#aL"/><use transform="matrix(0.015190972222222224,0,0,0.015190972222222224,34.802517361111114,0)" xlink:href="#aU"/><use transform="matrix(0.015190972222222224,0,0,0.015190972222222224,42.337239583333336,0)" xlink:href="#aF"/><use transform="matrix(0.015190972222222224,0,0,0.015190972222222224,60.73350694444445,0)" xlink:href="#aC"/></g><path fill="#333" d="M135 0v-1490h340l471 754c59 97 122 210 187 365-32-387-14-721-19-1119h312V0h-341C855-382 627-689 427-1113c32 420 16 695 20 1113H135" id="bh"/><path fill="#333" d="M628 22C291 22 81-210 81-554c0-346 210-578 547-578 336 0 547 232 547 578 0 344-211 576-547 576zm0-236c160 0 242-146 242-341 0-197-82-341-242-341S387-753 387-555c0 195 81 341 241 341" id="bi"/><g id="q"><use transform="matrix(0.015190972222222224,0,0,0.015190972222222224,0,0)" xlink:href="#bh"/><use transform="matrix(0.015190972222222224,0,0,0.015190972222222224,23.713107638888893,0)" xlink:href="#bi"/></g><path d="M295 13c-75 0-135-60-135-135s60-135 135-135 135 60 135 135S370 13 295 13" id="bj"/><path d="M140 405l46-156c120 36 205 19 263-150l32-93L54-1118h197c107 313 237 620 324 950 87-331 219-637 326-950h196L606 167c-68 178-176 259-334 259-64 0-113-12-132-21" id="bk"/><path d="M158 418v-1536h174v179h20c37-59 106-193 324-193 279 0 474 222 474 576 0 356-194 580-473 580-213 0-288-135-325-197h-14v591H158zm492-555c209 0 317-186 317-421 0-232-105-413-317-413-206 0-314 166-314 413 0 249 111 421 314 421" id="bl"/><g id="r"><use transform="matrix(0.015190972222222224,0,0,0.015190972222222224,0,0)" xlink:href="#aN"/><use transform="matrix(0.015190972222222224,0,0,0.015190972222222224,22.725694444444446,0)" xlink:href="#bj"/><use transform="matrix(0.015190972222222224,0,0,0.015190972222222224,31.688368055555557,0)" xlink:href="#aE"/><use transform="matrix(0.015190972222222224,0,0,0.015190972222222224,42.47395833333333,0)" xlink:href="#bk"/><use transform="matrix(0.015190972222222224,0,0,0.015190972222222224,59.95876736111111,0)" xlink:href="#bl"/><use transform="matrix(0.015190972222222224,0,0,0.015190972222222224,79.00824652777777,0)" xlink:href="#aC"/><path fill="#8080ff" d="M-1.56 6.35H98.7v2.13H-1.56z"/></g><g id="s"><use transform="matrix(0.015190972222222224,0,0,0.015190972222222224,0,0)" xlink:href="#bb"/><use transform="matrix(0.015190972222222224,0,0,0.015190972222222224,20.583767361111114,0)" xlink:href="#bb"/></g><g id="t"><use transform="matrix(0.015190972222222224,0,0,0.015190972222222224,0,0)" xlink:href="#aP"/><use transform="matrix(0.015190972222222224,0,0,0.015190972222222224,19.034288194444446,0)" xlink:href="#bj"/><use transform="matrix(0.015190972222222224,0,0,0.015190972222222224,27.996961805555557,0)" xlink:href="#aE"/><use transform="matrix(0.015190972222222224,0,0,0.015190972222222224,38.782552083333336,0)" xlink:href="#bk"/><use transform="matrix(0.015190972222222224,0,0,0.015190972222222224,56.267361111111114,0)" xlink:href="#bl"/><use transform="matrix(0.015190972222222224,0,0,0.015190972222222224,75.31684027777779,0)" xlink:href="#aC"/><use transform="matrix(0.015190972222222224,0,0,0.015190972222222224,93.45486111111111,0)" xlink:href="#bc"/></g><g id="u"><use transform="matrix(0.015190972222222224,0,0,0.015190972222222224,0,0)" xlink:href="#aN"/><use transform="matrix(0.015190972222222224,0,0,0.015190972222222224,22.725694444444446,0)" xlink:href="#bj"/><use transform="matrix(0.015190972222222224,0,0,0.015190972222222224,31.688368055555557,0)" xlink:href="#aI"/><use transform="matrix(0.015190972222222224,0,0,0.015190972222222224,48.109809027777786,0)" xlink:href="#aD"/><use transform="matrix(0.015190972222222224,0,0,0.015190972222222224,65.88324652777779,0)" xlink:href="#aJ"/><use transform="matrix(0.015190972222222224,0,0,0.015190972222222224,84.2795138888889,0)" xlink:href="#aC"/><use transform="matrix(0.015190972222222224,0,0,0.015190972222222224,102.41753472222223,0)" xlink:href="#aK"/><use transform="matrix(0.015190972222222224,0,0,0.015190972222222224,129.67013888888889,0)" xlink:href="#aL"/><path fill="#8080ff" d="M-1.56 6.35H148.7v2.13H-1.57z"/></g><g id="v"><use transform="matrix(0.015190972222222224,0,0,0.015190972222222224,0,0)" xlink:href="#bb"/><use transform="matrix(0.015190972222222224,0,0,0.015190972222222224,20.583767361111114,0)" xlink:href="#bb"/></g><g id="w"><use transform="matrix(0.015190972222222224,0,0,0.015190972222222224,0,0)" xlink:href="#aP"/><use transform="matrix(0.015190972222222224,0,0,0.015190972222222224,19.034288194444446,0)" xlink:href="#bj"/><use transform="matrix(0.015190972222222224,0,0,0.015190972222222224,27.996961805555557,0)" xlink:href="#aI"/><use transform="matrix(0.015190972222222224,0,0,0.015190972222222224,44.418402777777786,0)" xlink:href="#aD"/><use transform="matrix(0.015190972222222224,0,0,0.015190972222222224,62.191840277777786,0)" xlink:href="#aJ"/><use transform="matrix(0.015190972222222224,0,0,0.015190972222222224,80.5881076388889,0)" xlink:href="#aC"/><use transform="matrix(0.015190972222222224,0,0,0.015190972222222224,98.72612847222223,0)" xlink:href="#aK"/><use transform="matrix(0.015190972222222224,0,0,0.015190972222222224,125.9787326388889,0)" xlink:href="#aL"/><use transform="matrix(0.015190972222222224,0,0,0.015190972222222224,143.44835069444446,0)" xlink:href="#bc"/></g><path d="M180 0v-1490h528c311 0 458 177 458 395 0 191-114 278-244 313v14c139 9 302 137 302 371 0 225-148 397-499 397H180zm190-168h350c232 0 321-102 321-231 0-149-120-277-311-277H370v508zm0-668h328c160 0 286-101 286-255 0-129-87-231-280-231H370v486" id="bm"/><g id="x"><use transform="matrix(0.015190972222222224,0,0,0.015190972222222224,0,0)" xlink:href="#bm"/><use transform="matrix(0.015190972222222224,0,0,0.015190972222222224,20.35590277777778,0)" xlink:href="#aR"/><use transform="matrix(0.015190972222222224,0,0,0.015190972222222224,41.820746527777786,0)" xlink:href="#aX"/></g><path d="M180 0v-1490h510c348 0 508 194 508 460 0 198-88 351-276 417L1256 0h-220L726-579c-117 2-238 0-356 1V0H180zm190-747h312c235 0 327-108 327-283 0-177-92-293-329-293H370v576" id="bn"/><g id="y"><use transform="matrix(0.015190972222222224,0,0,0.015190972222222224,0,0)" xlink:href="#bn"/><use transform="matrix(0.015190972222222224,0,0,0.015190972222222224,19.56597222222222,0)" xlink:href="#aC"/><use transform="matrix(0.015190972222222224,0,0,0.015190972222222224,37.70399305555556,0)" xlink:href="#aD"/><use transform="matrix(0.015190972222222224,0,0,0.015190972222222224,55.47743055555556,0)" xlink:href="#az"/><use transform="matrix(0.015190972222222224,0,0,0.015190972222222224,74.13194444444444,0)" xlink:href="#aG"/><use transform="matrix(0.015190972222222224,0,0,0.015190972222222224,85.32769097222221,0)" xlink:href="#aS"/></g><path d="M789 20c-398 0-667-293-667-764 0-473 273-766 655-766 315 0 558 198 612 487h-196c-61-191-204-311-415-311-262 0-471 207-471 590 0 380 208 588 482 588 249 0 420-165 425-427H828v-166h572v163c0 370-256 606-611 606" id="bo"/><path d="M784 20c-382 0-662-292-662-764 0-473 280-766 662-766s660 293 660 766c0 472-278 764-660 764zm0-176c266 0 475-207 475-588 0-383-209-590-475-590-268 0-477 208-477 590 0 380 209 588 477 588" id="bp"/><g id="z"><use transform="matrix(0.015190972222222224,0,0,0.015190972222222224,0,0)" xlink:href="#bo"/><use transform="matrix(0.015190972222222224,0,0,0.015190972222222224,23.211805555555557,0)" xlink:href="#bp"/><use transform="matrix(0.015190972222222224,0,0,0.015190972222222224,47.00086805555556,0)" xlink:href="#bp"/><use transform="matrix(0.015190972222222224,0,0,0.015190972222222224,70.78993055555556,0)" xlink:href="#aX"/></g><g id="A"><use transform="matrix(0.015190972222222224,0,0,0.015190972222222224,0,0)" xlink:href="#aD"/><use transform="matrix(0.015190972222222224,0,0,0.015190972222222224,18.077256944444446,0)" xlink:href="#aL"/><use transform="matrix(0.015190972222222224,0,0,0.015190972222222224,35.546875,0)" xlink:href="#aI"/><use transform="matrix(0.015190972222222224,0,0,0.015190972222222224,51.96831597222223,0)" xlink:href="#aC"/></g><g id="B"><use transform="matrix(0.015190972222222224,0,0,0.015190972222222224,0,0)" xlink:href="#aN"/><use transform="matrix(0.015190972222222224,0,0,0.015190972222222224,22.725694444444446,0)" xlink:href="#bj"/><use transform="matrix(0.015190972222222224,0,0,0.015190972222222224,30.64019097222223,0)" xlink:href="#aP"/><use transform="matrix(0.015190972222222224,0,0,0.015190972222222224,48.778211805555564,0)" xlink:href="#bk"/><use transform="matrix(0.015190972222222224,0,0,0.015190972222222224,66.26302083333334,0)" xlink:href="#bl"/><use transform="matrix(0.015190972222222224,0,0,0.015190972222222224,85.31250000000001,0)" xlink:href="#aC"/></g><path d="M763 24c-353 0-583-224-583-531v-983h190v968c0 214 149 370 393 370 243 0 391-156 391-370v-968h190v983c0 307-230 531-581 531" id="bq"/><g id="C"><use transform="matrix(0.015190972222222224,0,0,0.015190972222222224,0,0)" xlink:href="#bq"/><use transform="matrix(0.015190972222222224,0,0,0.015190972222222224,23.151041666666668,0)" xlink:href="#aH"/><use transform="matrix(0.015190972222222224,0,0,0.015190972222222224,41.53211805555556,0)" xlink:href="#aV"/><use transform="matrix(0.015190972222222224,0,0,0.015190972222222224,49.06684027777778,0)" xlink:href="#az"/><use transform="matrix(0.015190972222222224,0,0,0.015190972222222224,67.72135416666667,0)" xlink:href="#aH"/></g><path d="M180 0v-1490h270l367 940c28 72 75 218 110 339 35-117 81-264 110-339l362-940h271V0h-187c2-448-5-837 7-1287-157 497-311 829-483 1287H842C666-458 514-784 354-1284c12 438 5 843 7 1284H180" id="br"/><g id="D"><use transform="matrix(0.015190972222222224,0,0,0.015190972222222224,0,0)" xlink:href="#br"/><use transform="matrix(0.015190972222222224,0,0,0.015190972222222224,28.103298611111114,0)" xlink:href="#aL"/><use transform="matrix(0.015190972222222224,0,0,0.015190972222222224,45.57291666666667,0)" xlink:href="#bl"/></g><g id="E"><use transform="matrix(0.015190972222222224,0,0,0.015190972222222224,0,0)" xlink:href="#aR"/><use transform="matrix(0.015190972222222224,0,0,0.015190972222222224,21.464843750000004,0)" xlink:href="#aG"/><use transform="matrix(0.015190972222222224,0,0,0.015190972222222224,33.66319444444445,0)" xlink:href="#aG"/><use transform="matrix(0.015190972222222224,0,0,0.015190972222222224,45.375434027777786,0)" xlink:href="#aL"/><use transform="matrix(0.015190972222222224,0,0,0.015190972222222224,62.38932291666667,0)" xlink:href="#bk"/></g><path d="M180 0v-1490h908v168H370v486h669v168H370v500h727V0H180" id="bs"/><g id="F"><use transform="matrix(0.015190972222222224,0,0,0.015190972222222224,0,0)" xlink:href="#bs"/><use transform="matrix(0.015190972222222224,0,0,0.015190972222222224,18.700086805555557,0)" xlink:href="#aH"/><use transform="matrix(0.015190972222222224,0,0,0.015190972222222224,37.08116319444444,0)" xlink:href="#aF"/><use transform="matrix(0.015190972222222224,0,0,0.015190972222222224,55.47743055555556,0)" xlink:href="#aK"/></g><path d="M65 0l393-574-370-544h210c88 136 192 297 267 435 67-142 176-302 264-435h206L661-564 1053 0H844c-94-144-206-310-287-458C484-308 366-142 273 0H65" id="bt"/><g id="G"><use transform="matrix(0.015190972222222224,0,0,0.015190972222222224,0,0)" xlink:href="#aY"/><use transform="matrix(0.015190972222222224,0,0,0.015190972222222224,18.365885416666668,0)" xlink:href="#aV"/><use transform="matrix(0.015190972222222224,0,0,0.015190972222222224,25.900607638888893,0)" xlink:href="#bt"/><use transform="matrix(0.015190972222222224,0,0,0.015190972222222224,42.185329861111114,0)" xlink:href="#aC"/><use transform="matrix(0.015190972222222224,0,0,0.015190972222222224,60.32335069444445,0)" xlink:href="#aS"/></g><path d="M370-1490V0H180v-1490h190" id="bu"/><g id="H"><use transform="matrix(0.015190972222222224,0,0,0.015190972222222224,0,0)" xlink:href="#bu"/><use transform="matrix(0.015190972222222224,0,0,0.015190972222222224,8.355034722222223,0)" xlink:href="#aH"/><use transform="matrix(0.015190972222222224,0,0,0.015190972222222224,26.736111111111114,0)" xlink:href="#aE"/><use transform="matrix(0.015190972222222224,0,0,0.015190972222222224,36.61024305555556,0)" xlink:href="#aC"/><use transform="matrix(0.015190972222222224,0,0,0.015190972222222224,54.74826388888889,0)" xlink:href="#aO"/><use transform="matrix(0.015190972222222224,0,0,0.015190972222222224,73.828125,0)" xlink:href="#aC"/><use transform="matrix(0.015190972222222224,0,0,0.015190972222222224,91.96614583333334,0)" xlink:href="#aG"/></g><g id="I"><use transform="matrix(0.015190972222222224,0,0,0.015190972222222224,0,0)" xlink:href="#bm"/><use transform="matrix(0.015190972222222224,0,0,0.015190972222222224,20.35590277777778,0)" xlink:href="#az"/><use transform="matrix(0.015190972222222224,0,0,0.015190972222222224,39.01041666666667,0)" xlink:href="#az"/><use transform="matrix(0.015190972222222224,0,0,0.015190972222222224,57.66493055555556,0)" xlink:href="#aU"/><use transform="matrix(0.015190972222222224,0,0,0.015190972222222224,65.19965277777779,0)" xlink:href="#aC"/><use transform="matrix(0.015190972222222224,0,0,0.015190972222222224,83.64149305555557,0)" xlink:href="#aL"/><use transform="matrix(0.015190972222222224,0,0,0.015190972222222224,101.11111111111113,0)" xlink:href="#aH"/></g><g id="J"><use transform="matrix(0.015190972222222224,0,0,0.015190972222222224,0,0)" xlink:href="#aX"/><use transform="matrix(0.015190972222222224,0,0,0.015190972222222224,22.452256944444446,0)" xlink:href="#az"/><use transform="matrix(0.015190972222222224,0,0,0.015190972222222224,41.106770833333336,0)" xlink:href="#aF"/><use transform="matrix(0.015190972222222224,0,0,0.015190972222222224,59.50303819444445,0)" xlink:href="#aA"/><use transform="matrix(0.015190972222222224,0,0,0.015190972222222224,78.55251736111111,0)" xlink:href="#aU"/><use transform="matrix(0.015190972222222224,0,0,0.015190972222222224,86.08723958333334,0)" xlink:href="#aC"/></g><path d="M180 0v-1490h190v1322h690V0H180" id="bv"/><g id="K"><use transform="matrix(0.015190972222222224,0,0,0.015190972222222224,0,0)" xlink:href="#bv"/><use transform="matrix(0.015190972222222224,0,0,0.015190972222222224,17.591145833333336,0)" xlink:href="#az"/><use transform="matrix(0.015190972222222224,0,0,0.015190972222222224,36.24565972222223,0)" xlink:href="#aH"/><use transform="matrix(0.015190972222222224,0,0,0.015190972222222224,54.626736111111114,0)" xlink:href="#aO"/></g><g id="L"><use transform="matrix(0.015190972222222224,0,0,0.015190972222222224,0,0)" xlink:href="#aZ"/><use transform="matrix(0.015190972222222224,0,0,0.015190972222222224,19.960937500000004,0)" xlink:href="#aE"/><use transform="matrix(0.015190972222222224,0,0,0.015190972222222224,30.138888888888893,0)" xlink:href="#aG"/><use transform="matrix(0.015190972222222224,0,0,0.015190972222222224,42.337239583333336,0)" xlink:href="#aV"/><use transform="matrix(0.015190972222222224,0,0,0.015190972222222224,49.87196180555556,0)" xlink:href="#aH"/><use transform="matrix(0.015190972222222224,0,0,0.015190972222222224,68.25303819444444,0)" xlink:href="#aO"/></g><g id="M"><use transform="matrix(0.015190972222222224,0,0,0.015190972222222224,0,0)" xlink:href="#aY"/><use transform="matrix(0.015190972222222224,0,0,0.015190972222222224,18.365885416666668,0)" xlink:href="#aU"/><use transform="matrix(0.015190972222222224,0,0,0.015190972222222224,25.900607638888893,0)" xlink:href="#az"/><use transform="matrix(0.015190972222222224,0,0,0.015190972222222224,44.85894097222223,0)" xlink:href="#aL"/><use transform="matrix(0.015190972222222224,0,0,0.015190972222222224,62.328559027777786,0)" xlink:href="#aE"/></g><g id="N"><use transform="matrix(0.015190972222222224,0,0,0.015190972222222224,0,0)" xlink:href="#bm"/><use transform="matrix(0.015190972222222224,0,0,0.015190972222222224,20.35590277777778,0)" xlink:href="#bk"/><use transform="matrix(0.015190972222222224,0,0,0.015190972222222224,38.29644097222223,0)" xlink:href="#aE"/><use transform="matrix(0.015190972222222224,0,0,0.015190972222222224,48.17057291666667,0)" xlink:href="#aC"/><use transform="matrix(0.015190972222222224,0,0,0.015190972222222224,66.30859375,0)" xlink:href="#aI"/></g><g id="O"><use transform="matrix(0.015190972222222224,0,0,0.015190972222222224,0,0)" xlink:href="#aU"/><use transform="matrix(0.015190972222222224,0,0,0.015190972222222224,7.534722222222223,0)" xlink:href="#az"/><use transform="matrix(0.015190972222222224,0,0,0.015190972222222224,26.189236111111114,0)" xlink:href="#az"/><use transform="matrix(0.015190972222222224,0,0,0.015190972222222224,44.84375,0)" xlink:href="#bl"/></g><g id="P"><use transform="matrix(0.015190972222222224,0,0,0.015190972222222224,0,0)" xlink:href="#aE"/><use transform="matrix(0.015190972222222224,0,0,0.015190972222222224,10.17795138888889,0)" xlink:href="#aJ"/><use transform="matrix(0.015190972222222224,0,0,0.015190972222222224,28.574218750000004,0)" xlink:href="#aG"/><use transform="matrix(0.015190972222222224,0,0,0.015190972222222224,39.76996527777778,0)" xlink:href="#az"/><use transform="matrix(0.015190972222222224,0,0,0.015190972222222224,58.42447916666667,0)" xlink:href="#aF"/><use transform="matrix(0.015190972222222224,0,0,0.015190972222222224,76.82074652777779,0)" xlink:href="#aO"/><use transform="matrix(0.015190972222222224,0,0,0.015190972222222224,95.9006076388889,0)" xlink:href="#aJ"/></g><path d="M128 359l88-567h206L266 359H128" id="bw"/><g id="Q"><use transform="matrix(0.015190972222222224,0,0,0.015190972222222224,0,0)" xlink:href="#bp"/><use transform="matrix(0.015190972222222224,0,0,0.015190972222222224,23.789062500000004,0)" xlink:href="#aA"/><use transform="matrix(0.015190972222222224,0,0,0.015190972222222224,42.83854166666667,0)" xlink:href="#aB"/><use transform="matrix(0.015190972222222224,0,0,0.015190972222222224,50.37326388888889,0)" xlink:href="#aC"/><use transform="matrix(0.015190972222222224,0,0,0.015190972222222224,68.51128472222223,0)" xlink:href="#aD"/><use transform="matrix(0.015190972222222224,0,0,0.015190972222222224,86.28472222222223,0)" xlink:href="#aE"/><use transform="matrix(0.015190972222222224,0,0,0.015190972222222224,96.46267361111111,0)" xlink:href="#bw"/></g><g id="R"><use transform="matrix(0.015190972222222224,0,0,0.015190972222222224,0,0)" xlink:href="#aO"/><use transform="matrix(0.015190972222222224,0,0,0.015190972222222224,19.079861111111114,0)" xlink:href="#aC"/><use transform="matrix(0.015190972222222224,0,0,0.015190972222222224,37.21788194444445,0)" xlink:href="#aE"/></g><g id="S"><use transform="matrix(0.015190972222222224,0,0,0.015190972222222224,0,0)" xlink:href="#aH"/><use transform="matrix(0.015190972222222224,0,0,0.015190972222222224,18.38107638888889,0)" xlink:href="#aC"/><use transform="matrix(0.015190972222222224,0,0,0.015190972222222224,36.51909722222223,0)" xlink:href="#aI"/><use transform="matrix(0.015190972222222224,0,0,0.015190972222222224,52.94053819444446,0)" xlink:href="#aE"/><use transform="matrix(0.015190972222222224,0,0,0.015190972222222224,62.81467013888889,0)" xlink:href="#aC"/><use transform="matrix(0.015190972222222224,0,0,0.015190972222222224,80.95269097222223,0)" xlink:href="#aS"/></g><g id="T"><use transform="matrix(0.015190972222222224,0,0,0.015190972222222224,0,0)" xlink:href="#az"/><use transform="matrix(0.015190972222222224,0,0,0.015190972222222224,18.65451388888889,0)" xlink:href="#aA"/><use transform="matrix(0.015190972222222224,0,0,0.015190972222222224,37.70399305555556,0)" xlink:href="#aB"/><use transform="matrix(0.015190972222222224,0,0,0.015190972222222224,45.23871527777778,0)" xlink:href="#aC"/><use transform="matrix(0.015190972222222224,0,0,0.015190972222222224,63.376736111111114,0)" xlink:href="#aD"/><use transform="matrix(0.015190972222222224,0,0,0.015190972222222224,81.15017361111111,0)" xlink:href="#aE"/><use transform="matrix(0.015190972222222224,0,0,0.015190972222222224,91.328125,0)" xlink:href="#bw"/></g><path d="M409 0L70-1118h191c89 329 165 560 243 925 75-353 154-601 240-925h192c85 325 161 564 235 922 77-354 157-598 244-922h191L1267 0h-179c-86-307-176-590-250-913C763-588 675-308 588 0H409" id="bx"/><g id="U"><use transform="matrix(0.015190972222222224,0,0,0.015190972222222224,0,0)" xlink:href="#aH"/><use transform="matrix(0.015190972222222224,0,0,0.015190972222222224,18.38107638888889,0)" xlink:href="#aC"/><use transform="matrix(0.015190972222222224,0,0,0.015190972222222224,35.95703125,0)" xlink:href="#bx"/></g><g id="V"><use transform="matrix(0.015190972222222224,0,0,0.015190972222222224,0,0)" xlink:href="#aD"/><use transform="matrix(0.015190972222222224,0,0,0.015190972222222224,17.773437500000004,0)" xlink:href="#aF"/><use transform="matrix(0.015190972222222224,0,0,0.015190972222222224,36.169704861111114,0)" xlink:href="#aG"/><use transform="matrix(0.015190972222222224,0,0,0.015190972222222224,48.368055555555564,0)" xlink:href="#aG"/><use transform="matrix(0.015190972222222224,0,0,0.015190972222222224,59.56380208333334,0)" xlink:href="#aC"/><use transform="matrix(0.015190972222222224,0,0,0.015190972222222224,77.70182291666669,0)" xlink:href="#aH"/><use transform="matrix(0.015190972222222224,0,0,0.015190972222222224,96.08289930555557,0)" xlink:href="#aE"/></g><g id="W"><use transform="matrix(0.015190972222222224,0,0,0.015190972222222224,0,0)" xlink:href="#aI"/><use transform="matrix(0.015190972222222224,0,0,0.015190972222222224,16.421440972222225,0)" xlink:href="#aD"/><use transform="matrix(0.015190972222222224,0,0,0.015190972222222224,34.19487847222223,0)" xlink:href="#aJ"/><use transform="matrix(0.015190972222222224,0,0,0.015190972222222224,52.59114583333334,0)" xlink:href="#aC"/><use transform="matrix(0.015190972222222224,0,0,0.015190972222222224,70.72916666666669,0)" xlink:href="#aK"/><use transform="matrix(0.015190972222222224,0,0,0.015190972222222224,97.98177083333336,0)" xlink:href="#aL"/><use transform="matrix(0.015190972222222224,0,0,0.015190972222222224,115.45138888888891,0)" xlink:href="#bw"/></g><g id="X"><use transform="matrix(0.015190972222222224,0,0,0.015190972222222224,0,0)" xlink:href="#aH"/><use transform="matrix(0.015190972222222224,0,0,0.015190972222222224,18.38107638888889,0)" xlink:href="#aC"/><use transform="matrix(0.015190972222222224,0,0,0.015190972222222224,35.95703125,0)" xlink:href="#bx"/></g><g id="Y"><use transform="matrix(0.015190972222222224,0,0,0.015190972222222224,0,0)" xlink:href="#aE"/><use transform="matrix(0.015190972222222224,0,0,0.015190972222222224,10.32986111111111,0)" xlink:href="#aL"/><use transform="matrix(0.015190972222222224,0,0,0.015190972222222224,27.799479166666668,0)" xlink:href="#aG"/><use transform="matrix(0.015190972222222224,0,0,0.015190972222222224,38.99522569444444,0)" xlink:href="#aO"/><use transform="matrix(0.015190972222222224,0,0,0.015190972222222224,58.07508680555556,0)" xlink:href="#aC"/><use transform="matrix(0.015190972222222224,0,0,0.015190972222222224,76.21310763888889,0)" xlink:href="#aE"/></g><g id="Z"><use transform="matrix(0.015190972222222224,0,0,0.015190972222222224,0,0)" xlink:href="#aI"/><use transform="matrix(0.015190972222222224,0,0,0.015190972222222224,16.421440972222225,0)" xlink:href="#aD"/><use transform="matrix(0.015190972222222224,0,0,0.015190972222222224,34.19487847222223,0)" xlink:href="#aJ"/><use transform="matrix(0.015190972222222224,0,0,0.015190972222222224,52.59114583333334,0)" xlink:href="#aC"/><use transform="matrix(0.015190972222222224,0,0,0.015190972222222224,70.72916666666669,0)" xlink:href="#aK"/><use transform="matrix(0.015190972222222224,0,0,0.015190972222222224,97.98177083333336,0)" xlink:href="#aL"/></g><g id="aa"><use transform="matrix(0.015190972222222224,0,0,0.015190972222222224,0,0)" xlink:href="#az"/><use transform="matrix(0.015190972222222224,0,0,0.015190972222222224,18.65451388888889,0)" xlink:href="#aA"/><use transform="matrix(0.015190972222222224,0,0,0.015190972222222224,37.70399305555556,0)" xlink:href="#aB"/><use transform="matrix(0.015190972222222224,0,0,0.015190972222222224,45.23871527777778,0)" xlink:href="#aC"/><use transform="matrix(0.015190972222222224,0,0,0.015190972222222224,63.376736111111114,0)" xlink:href="#aD"/><use transform="matrix(0.015190972222222224,0,0,0.015190972222222224,81.15017361111111,0)" xlink:href="#aE"/></g><g id="ab"><use transform="matrix(0.015190972222222224,0,0,0.015190972222222224,0,0)" xlink:href="#aH"/><use transform="matrix(0.015190972222222224,0,0,0.015190972222222224,18.38107638888889,0)" xlink:href="#aC"/><use transform="matrix(0.015190972222222224,0,0,0.015190972222222224,35.95703125,0)" xlink:href="#bx"/></g><use transform="matrix(0.015190972222222224,0,0,0.015190972222222224,0,0)" xlink:href="#aN" id="ac"/><use transform="matrix(0.015190972222222224,0,0,0.015190972222222224,0,0)" xlink:href="#aP" id="ad"/><g id="ae"><use transform="matrix(0.015190972222222224,0,0,0.015190972222222224,0,0)" xlink:href="#aQ"/><use transform="matrix(0.015190972222222224,0,0,0.015190972222222224,17.332899305555557,0)" xlink:href="#aL"/><use transform="matrix(0.015190972222222224,0,0,0.015190972222222224,34.802517361111114,0)" xlink:href="#aU"/><use transform="matrix(0.015190972222222224,0,0,0.015190972222222224,42.337239583333336,0)" xlink:href="#aV"/><use transform="matrix(0.015190972222222224,0,0,0.015190972222222224,49.87196180555556,0)" xlink:href="#aS"/><use transform="matrix(0.015190972222222224,0,0,0.015190972222222224,68.92144097222223,0)" xlink:href="#aL"/><use transform="matrix(0.015190972222222224,0,0,0.015190972222222224,86.39105902777779,0)" xlink:href="#aE"/><use transform="matrix(0.015190972222222224,0,0,0.015190972222222224,96.26519097222223,0)" xlink:href="#aC"/></g><g id="af"><use transform="matrix(0.015190972222222224,0,0,0.015190972222222224,0,0)" xlink:href="#aC"/><use transform="matrix(0.015190972222222224,0,0,0.015190972222222224,18.138020833333336,0)" xlink:href="#aH"/><use transform="matrix(0.015190972222222224,0,0,0.015190972222222224,36.51909722222223,0)" xlink:href="#aF"/><use transform="matrix(0.015190972222222224,0,0,0.015190972222222224,54.91536458333334,0)" xlink:href="#aK"/></g><g id="ag"><use transform="matrix(0.015190972222222224,0,0,0.015190972222222224,0,0)" xlink:href="#aQ"/><use transform="matrix(0.015190972222222224,0,0,0.015190972222222224,17.332899305555557,0)" xlink:href="#aL"/><use transform="matrix(0.015190972222222224,0,0,0.015190972222222224,34.802517361111114,0)" xlink:href="#aU"/><use transform="matrix(0.015190972222222224,0,0,0.015190972222222224,42.337239583333336,0)" xlink:href="#aF"/><use transform="matrix(0.015190972222222224,0,0,0.015190972222222224,60.73350694444445,0)" xlink:href="#aC"/></g><g id="ah"><use transform="matrix(0.015190972222222224,0,0,0.015190972222222224,0,0)" xlink:href="#bg"/><use transform="matrix(0.015190972222222224,0,0,0.015190972222222224,11.514756944444446,0)" xlink:href="#aV"/><use transform="matrix(0.015190972222222224,0,0,0.015190972222222224,19.04947916666667,0)" xlink:href="#bt"/><use transform="matrix(0.015190972222222224,0,0,0.015190972222222224,35.3342013888889,0)" xlink:href="#aC"/><use transform="matrix(0.015190972222222224,0,0,0.015190972222222224,53.472222222222236,0)" xlink:href="#aS"/></g><path d="M126 0v-134l627-806v-11H146v-167h839v143L376-178v11h629V0H126" id="by"/><g id="ai"><use transform="matrix(0.015190972222222224,0,0,0.015190972222222224,0,0)" xlink:href="#aI"/><use transform="matrix(0.015190972222222224,0,0,0.015190972222222224,16.421440972222225,0)" xlink:href="#aV"/><use transform="matrix(0.015190972222222224,0,0,0.015190972222222224,23.95616319444445,0)" xlink:href="#by"/><use transform="matrix(0.015190972222222224,0,0,0.015190972222222224,40.681423611111114,0)" xlink:href="#aC"/></g><g id="aj"><use transform="matrix(0.015190972222222224,0,0,0.015190972222222224,0,0)" xlink:href="#aV"/><use transform="matrix(0.015190972222222224,0,0,0.015190972222222224,7.534722222222223,0)" xlink:href="#aI"/></g><g id="ak"><use transform="matrix(0.015190972222222224,0,0,0.015190972222222224,0,0)" xlink:href="#aQ"/><use transform="matrix(0.015190972222222224,0,0,0.015190972222222224,17.332899305555557,0)" xlink:href="#aL"/><use transform="matrix(0.015190972222222224,0,0,0.015190972222222224,34.802517361111114,0)" xlink:href="#aU"/><use transform="matrix(0.015190972222222224,0,0,0.015190972222222224,42.337239583333336,0)" xlink:href="#aF"/><use transform="matrix(0.015190972222222224,0,0,0.015190972222222224,60.73350694444445,0)" xlink:href="#aC"/><use transform="matrix(0.015190972222222224,0,0,0.015190972222222224,78.87152777777779,0)" xlink:href="#bc"/></g><path d="M180 0v-1490h224l606 953c40 63 108 177 176 312-27-437-7-821-13-1265h190V0h-226C860-448 622-778 356-1262c27 476 11 792 15 1262H180" id="bz"/><g id="al"><use transform="matrix(0.015190972222222224,0,0,0.015190972222222224,0,0)" xlink:href="#bz"/><use transform="matrix(0.015190972222222224,0,0,0.015190972222222224,23.439670138888893,0)" xlink:href="#aC"/><use transform="matrix(0.015190972222222224,0,0,0.015190972222222224,41.01562500000001,0)" xlink:href="#bx"/></g><g id="am"><use transform="matrix(0.015190972222222224,0,0,0.015190972222222224,0,0)" xlink:href="#aI"/><use transform="matrix(0.015190972222222224,0,0,0.015190972222222224,16.421440972222225,0)" xlink:href="#aC"/><use transform="matrix(0.015190972222222224,0,0,0.015190972222222224,34.55946180555556,0)" xlink:href="#aK"/><use transform="matrix(0.015190972222222224,0,0,0.015190972222222224,61.81206597222223,0)" xlink:href="#aL"/><use transform="matrix(0.015190972222222224,0,0,0.015190972222222224,79.28168402777779,0)" xlink:href="#aH"/><use transform="matrix(0.015190972222222224,0,0,0.015190972222222224,97.66276041666667,0)" xlink:href="#aE"/><use transform="matrix(0.015190972222222224,0,0,0.015190972222222224,107.84071180555556,0)" xlink:href="#aV"/><use transform="matrix(0.015190972222222224,0,0,0.015190972222222224,115.37543402777779,0)" xlink:href="#aD"/></g><path d="M204-479l-12-1011h204L383-479H204zm91 492c-75 0-135-60-135-134 0-75 60-135 135-135 74 0 134 60 134 135 0 74-60 134-134 134" id="bA"/><g id="an"><use transform="matrix(0.015190972222222224,0,0,0.015190972222222224,0,0)" xlink:href="#aS"/><use transform="matrix(0.015190972222222224,0,0,0.015190972222222224,19.049479166666668,0)" xlink:href="#aC"/><use transform="matrix(0.015190972222222224,0,0,0.015190972222222224,37.1875,0)" xlink:href="#aE"/><use transform="matrix(0.015190972222222224,0,0,0.015190972222222224,47.06163194444444,0)" xlink:href="#aC"/><use transform="matrix(0.015190972222222224,0,0,0.015190972222222224,65.19965277777777,0)" xlink:href="#aD"/><use transform="matrix(0.015190972222222224,0,0,0.015190972222222224,82.97309027777777,0)" xlink:href="#aE"/><use transform="matrix(0.015190972222222224,0,0,0.015190972222222224,92.84722222222221,0)" xlink:href="#aC"/><use transform="matrix(0.015190972222222224,0,0,0.015190972222222224,110.98524305555554,0)" xlink:href="#aS"/><use transform="matrix(0.015190972222222224,0,0,0.015190972222222224,130.0347222222222,0)" xlink:href="#bA"/></g><g id="ao"><use transform="matrix(0.015190972222222224,0,0,0.015190972222222224,0,0)" xlink:href="#bm"/><use transform="matrix(0.015190972222222224,0,0,0.015190972222222224,20.35590277777778,0)" xlink:href="#aL"/><use transform="matrix(0.015190972222222224,0,0,0.015190972222222224,37.825520833333336,0)" xlink:href="#aS"/></g><g id="ap"><use transform="matrix(0.015190972222222224,0,0,0.015190972222222224,0,0)" xlink:href="#aF"/><use transform="matrix(0.015190972222222224,0,0,0.015190972222222224,18.396267361111114,0)" xlink:href="#aI"/><use transform="matrix(0.015190972222222224,0,0,0.015190972222222224,34.81770833333334,0)" xlink:href="#aL"/><use transform="matrix(0.015190972222222224,0,0,0.015190972222222224,52.2873263888889,0)" xlink:href="#aO"/><use transform="matrix(0.015190972222222224,0,0,0.015190972222222224,71.36718750000001,0)" xlink:href="#aC"/></g><g id="aq"><use transform="matrix(0.015190972222222224,0,0,0.015190972222222224,0,0)" xlink:href="#bg"/><use transform="matrix(0.015190972222222224,0,0,0.015190972222222224,10.603298611111112,0)" xlink:href="#az"/><use transform="matrix(0.015190972222222224,0,0,0.015190972222222224,29.2578125,0)" xlink:href="#aG"/></g><g id="ar"><use transform="matrix(0.015190972222222224,0,0,0.015190972222222224,0,0)" xlink:href="#aH"/><use transform="matrix(0.015190972222222224,0,0,0.015190972222222224,18.38107638888889,0)" xlink:href="#aC"/><use transform="matrix(0.015190972222222224,0,0,0.015190972222222224,35.95703125,0)" xlink:href="#bx"/></g><g id="as"><use transform="matrix(0.015190972222222224,0,0,0.015190972222222224,0,0)" xlink:href="#az"/><use transform="matrix(0.015190972222222224,0,0,0.015190972222222224,18.65451388888889,0)" xlink:href="#aA"/><use transform="matrix(0.015190972222222224,0,0,0.015190972222222224,37.70399305555556,0)" xlink:href="#aB"/><use transform="matrix(0.015190972222222224,0,0,0.015190972222222224,45.23871527777778,0)" xlink:href="#aC"/><use transform="matrix(0.015190972222222224,0,0,0.015190972222222224,63.376736111111114,0)" xlink:href="#aD"/><use transform="matrix(0.015190972222222224,0,0,0.015190972222222224,81.15017361111111,0)" xlink:href="#aE"/></g><g id="at"><use transform="matrix(0.015190972222222224,0,0,0.015190972222222224,0,0)" xlink:href="#bb"/><use transform="matrix(0.015190972222222224,0,0,0.015190972222222224,20.583767361111114,0)" xlink:href="#bb"/></g><g id="au"><use transform="matrix(0.015190972222222224,0,0,0.015190972222222224,0,0)" xlink:href="#aH"/><use transform="matrix(0.015190972222222224,0,0,0.015190972222222224,18.38107638888889,0)" xlink:href="#aC"/><use transform="matrix(0.015190972222222224,0,0,0.015190972222222224,35.95703125,0)" xlink:href="#bx"/></g><g id="av"><use transform="matrix(0.015190972222222224,0,0,0.015190972222222224,0,0)" xlink:href="#aQ"/><use transform="matrix(0.015190972222222224,0,0,0.015190972222222224,17.332899305555557,0)" xlink:href="#aL"/><use transform="matrix(0.015190972222222224,0,0,0.015190972222222224,34.802517361111114,0)" xlink:href="#aU"/><use transform="matrix(0.015190972222222224,0,0,0.015190972222222224,42.337239583333336,0)" xlink:href="#aF"/><use transform="matrix(0.015190972222222224,0,0,0.015190972222222224,60.73350694444445,0)" xlink:href="#aC"/><use transform="matrix(0.015190972222222224,0,0,0.015190972222222224,78.87152777777779,0)" xlink:href="#bc"/></g><g id="aw"><use transform="matrix(0.015190972222222224,0,0,0.015190972222222224,0,0)" xlink:href="#aS"/><use transform="matrix(0.015190972222222224,0,0,0.015190972222222224,19.049479166666668,0)" xlink:href="#aV"/><use transform="matrix(0.015190972222222224,0,0,0.015190972222222224,26.584201388888893,0)" xlink:href="#bg"/><use transform="matrix(0.015190972222222224,0,0,0.015190972222222224,36.88368055555556,0)" xlink:href="#bg"/><use transform="matrix(0.015190972222222224,0,0,0.015190972222222224,47.48697916666667,0)" xlink:href="#aC"/><use transform="matrix(0.015190972222222224,0,0,0.015190972222222224,65.625,0)" xlink:href="#aG"/><use transform="matrix(0.015190972222222224,0,0,0.015190972222222224,76.82074652777777,0)" xlink:href="#aC"/><use transform="matrix(0.015190972222222224,0,0,0.015190972222222224,94.95876736111111,0)" xlink:href="#aH"/><use transform="matrix(0.015190972222222224,0,0,0.015190972222222224,113.33984375,0)" xlink:href="#aE"/></g><g id="ax"><use transform="matrix(0.015190972222222224,0,0,0.015190972222222224,0,0)" xlink:href="#bg"/><use transform="matrix(0.015190972222222224,0,0,0.015190972222222224,11.514756944444446,0)" xlink:href="#aV"/><use transform="matrix(0.015190972222222224,0,0,0.015190972222222224,19.04947916666667,0)" xlink:href="#bt"/><use transform="matrix(0.015190972222222224,0,0,0.015190972222222224,35.3342013888889,0)" xlink:href="#aC"/><use transform="matrix(0.015190972222222224,0,0,0.015190972222222224,53.472222222222236,0)" xlink:href="#aS"/></g><g id="ay"><use transform="matrix(0.015190972222222224,0,0,0.015190972222222224,0,0)" xlink:href="#aI"/><use transform="matrix(0.015190972222222224,0,0,0.015190972222222224,16.421440972222225,0)" xlink:href="#aV"/><use transform="matrix(0.015190972222222224,0,0,0.015190972222222224,23.95616319444445,0)" xlink:href="#by"/><use transform="matrix(0.015190972222222224,0,0,0.015190972222222224,40.681423611111114,0)" xlink:href="#aC"/><use transform="matrix(0.015190972222222224,0,0,0.015190972222222224,58.81944444444445,0)" xlink:href="#bc"/></g></defs></g></svg>