<svg xmlns="http://www.w3.org/2000/svg" xmlns:xlink="http://www.w3.org/1999/xlink" xmlns:lucid="lucid" width="3201" height="2391"><g transform="translate(-21715 -71)" lucid:page-tab-id="0_0"><path d="M0-500h25000v4500H0z" fill="#fff"/><path d="M24294.78 1157.14a6 6 0 0 1 6-6h519.04a6 6 0 0 1 6 6v345.27a6 6 0 0 1-6 6h-519.04a6 6 0 0 1-6-6z" stroke="#3a414a" stroke-width="2" fill="#fff3d9"/><path d="M21892.67 406.24a6 6 0 0 1 6-6h1953.23a6 6 0 0 1 6 6v336.23a6 6 0 0 1-6 6h-1953.23a6 6 0 0 1-6-6z" stroke="#3a414a" stroke-width="2" fill="#e3fae3"/><use xlink:href="#a" transform="matrix(1,0,0,1,21904.669659620587,412.23781354236405) translate(0 24.888888888888893)"/><use xlink:href="#b" transform="matrix(1,0,0,1,21904.669659620587,412.23781354236405) translate(100.1604938271605 24.888888888888893)"/><use xlink:href="#c" transform="matrix(1,0,0,1,21904.669659620587,412.23781354236405) translate(195.04938271604937 24.888888888888893)"/><path d="M21919.02 509.8a6 6 0 0 1 6-6h394.36a6 6 0 0 1 6 6v123.67a6 6 0 0 1-6 6h-394.36a6 6 0 0 1-6-6z" stroke="#3a414a" stroke-width="4" fill="#fff"/><use xlink:href="#d" transform="matrix(1,0,0,1,21931.01760673558,515.789241612489) translate(0 29.400607638888893)"/><use xlink:href="#e" transform="matrix(1,0,0,1,21931.01760673558,515.789241612489) translate(0 64.64366319444446)"/><use xlink:href="#f" transform="matrix(1,0,0,1,21931.01760673558,515.789241612489) translate(0 99.88671875)"/><use xlink:href="#g" transform="matrix(1,0,0,1,21931.01760673558,515.789241612489) translate(130.6879340277778 99.88671875)"/><use xlink:href="#h" transform="matrix(1,0,0,1,21931.01760673558,515.789241612489) translate(186.69704861111114 99.88671875)"/><path d="M23629.56 439.1a6 6 0 0 1 6-6h148a6 6 0 0 1 6 6v108a6 6 0 0 1-6 6h-148a6 6 0 0 1-6-6z" stroke="#3a414a" stroke-width="2" fill="#fff"/><use xlink:href="#i" transform="matrix(1,0,0,1,23641.55812766617,445.10427766034263) translate(30.882716049382708 36.88888888888889)"/><use xlink:href="#j" transform="matrix(1,0,0,1,23641.55812766617,445.10427766034263) translate(17.962962962962962 74.22222222222223)"/><path d="M23629.56 578.96a6 6 0 0 1 6-6h148a6 6 0 0 1 6 6v124a6 6 0 0 1-6 6h-148a6 6 0 0 1-6-6z" stroke="#3a414a" stroke-width="3" fill="#f4d9ff"/><use xlink:href="#k" transform="matrix(1,0,0,1,23641.55812766617,584.9558148800911) translate(23.969135802469133 28.388888888888893)"/><use xlink:href="#l" transform="matrix(1,0,0,1,23641.55812766617,584.9558148800911) translate(4.222222222222221 65.72222222222223)"/><use xlink:href="#m" transform="matrix(1,0,0,1,23641.55812766617,584.9558148800911) translate(31.79012345679012 103.05555555555557)"/><path d="M24512.5 414.53a6 6 0 0 1 6-6h301.32a6 6 0 0 1 6 6v184.9a6 6 0 0 1-6 6h-301.3a6 6 0 0 1-6-6z" stroke="#3a414a" stroke-width="2" fill="#e3fae3"/><use xlink:href="#a" transform="matrix(1,0,0,1,24524.51209092958,420.53331240057395) translate(0 24.888888888888893)"/><use xlink:href="#n" transform="matrix(1,0,0,1,24524.51209092958,420.53331240057395) translate(100.1604938271605 24.888888888888893)"/><use xlink:href="#o" transform="matrix(1,0,0,1,24524.51209092958,420.53331240057395) translate(217.69135802469134 24.888888888888893)"/><use xlink:href="#p" transform="matrix(1,0,0,1,24524.51209092958,420.53331240057395) translate(0 62.222222222222236)"/><path d="M24603.77 469.96a6 6 0 0 1 6-6h148a6 6 0 0 1 6 6v108a6 6 0 0 1-6 6h-148a6 6 0 0 1-6-6z" stroke="#3a414a" stroke-width="2" fill="#fff"/><use xlink:href="#i" transform="matrix(1,0,0,1,24615.76737692601,475.9574508493878) translate(30.882716049382708 36.88888888888889)"/><use xlink:href="#j" transform="matrix(1,0,0,1,24615.76737692601,475.9574508493878) translate(17.962962962962962 74.22222222222223)"/><path d="M24512.5 654.44a6 6 0 0 1 6-6h301.32a6 6 0 0 1 6 6v184.9a6 6 0 0 1-6 6h-301.3a6 6 0 0 1-6-6z" stroke="#3a414a" stroke-width="2" fill="#e3fae3"/><use xlink:href="#a" transform="matrix(1,0,0,1,24524.51209092958,660.4420993618558) translate(0 24.888888888888893)"/><use xlink:href="#n" transform="matrix(1,0,0,1,24524.51209092958,660.4420993618558) translate(100.1604938271605 24.888888888888893)"/><use xlink:href="#q" transform="matrix(1,0,0,1,24524.51209092958,660.4420993618558) translate(217.69135802469134 24.888888888888893)"/><path d="M24603.77 711.77a6 6 0 0 1 6-6h148a6 6 0 0 1 6 6v108a6 6 0 0 1-6 6h-148a6 6 0 0 1-6-6z" stroke="#3a414a" stroke-width="2" fill="#fff"/><use xlink:href="#i" transform="matrix(1,0,0,1,24615.76737692601,717.7691591421659) translate(30.882716049382708 36.88888888888889)"/><use xlink:href="#j" transform="matrix(1,0,0,1,24615.76737692601,717.7691591421659) translate(17.962962962962962 74.22222222222223)"/><path d="M22011.15 1275.3a6 6 0 0 1 6-6h829.87a6 6 0 0 1 6 6v411.32a6 6 0 0 1-6 6h-829.87a6 6 0 0 1-6-6z" stroke="#3a414a" stroke-width="2" fill="#fff7a1"/><use xlink:href="#r" transform="matrix(1,0,0,1,22023.146057277274,1281.2972638921224) translate(0 24.888888888888893)"/><use xlink:href="#b" transform="matrix(1,0,0,1,22023.146057277274,1281.2972638921224) translate(79.24691358024693 24.888888888888893)"/><use xlink:href="#s" transform="matrix(1,0,0,1,22023.146057277274,1281.2972638921224) translate(174.1358024691358 24.888888888888893)"/><use xlink:href="#t" transform="matrix(1,0,0,1,22023.146057277274,1281.2972638921224) translate(0 62.222222222222236)"/><use xlink:href="#u" transform="matrix(1,0,0,1,22023.146057277274,1281.2972638921224) translate(105.17283950617285 62.222222222222236)"/><use xlink:href="#v" transform="matrix(1,0,0,1,22023.146057277274,1281.2972638921224) translate(131.0987654320988 62.222222222222236)"/><use xlink:href="#w" transform="matrix(1,0,0,1,22023.146057277274,1281.2972638921224) translate(150.0246913580247 62.222222222222236)"/><use xlink:href="#x" transform="matrix(1,0,0,1,22023.146057277274,1281.2972638921224) translate(250.0987654320988 62.222222222222236)"/><path d="M22093.4 1365.78a6 6 0 0 1 6-6h148a6 6 0 0 1 6 6v108a6 6 0 0 1-6 6h-148a6 6 0 0 1-6-6z" stroke="#3a414a" stroke-width="2" fill="#fff"/><use xlink:href="#i" transform="matrix(1,0,0,1,22105.403227429983,1371.7769333312706) translate(30.882716049382708 36.88888888888889)"/><use xlink:href="#j" transform="matrix(1,0,0,1,22105.403227429983,1371.7769333312706) translate(17.962962962962962 74.22222222222223)"/><path d="M22093.4 1508a6 6 0 0 1 6-6h148a6 6 0 0 1 6 6v124a6 6 0 0 1-6 6h-148a6 6 0 0 1-6-6z" stroke="#3a414a" stroke-width="3" fill="#f4d9ff"/><use xlink:href="#y" transform="matrix(1,0,0,1,22105.403227429983,1514.009899320603) translate(36.11111111111111 28.388888888888893)"/><use xlink:href="#l" transform="matrix(1,0,0,1,22105.403227429983,1514.009899320603) translate(4.222222222222221 65.72222222222223)"/><use xlink:href="#m" transform="matrix(1,0,0,1,22105.403227429983,1514.009899320603) translate(31.79012345679012 103.05555555555557)"/><path d="M23210.12 1275.3a6 6 0 0 1 6-6h810.48a6 6 0 0 1 6 6v411.32a6 6 0 0 1-6 6h-810.48a6 6 0 0 1-6-6z" stroke="#3a414a" stroke-width="2" fill="#ffe342"/><use xlink:href="#r" transform="matrix(1,0,0,1,23222.123686890474,1281.2972638921224) translate(0 24.888888888888893)"/><use xlink:href="#b" transform="matrix(1,0,0,1,23222.123686890474,1281.2972638921224) translate(79.24691358024693 24.888888888888893)"/><use xlink:href="#z" transform="matrix(1,0,0,1,23222.123686890474,1281.2972638921224) translate(174.1358024691358 24.888888888888893)"/><use xlink:href="#A" transform="matrix(1,0,0,1,23222.123686890474,1281.2972638921224) translate(0 62.222222222222236)"/><use xlink:href="#B" transform="matrix(1,0,0,1,23222.123686890474,1281.2972638921224) translate(105.17283950617285 62.222222222222236)"/><use xlink:href="#v" transform="matrix(1,0,0,1,23222.123686890474,1281.2972638921224) translate(131.0987654320988 62.222222222222236)"/><use xlink:href="#w" transform="matrix(1,0,0,1,23222.123686890474,1281.2972638921224) translate(150.0246913580247 62.222222222222236)"/><use xlink:href="#x" transform="matrix(1,0,0,1,23222.123686890474,1281.2972638921224) translate(250.0987654320988 62.222222222222236)"/><path d="M23282.1 1371.1a6 6 0 0 1 6-6h148a6 6 0 0 1 6 6v108a6 6 0 0 1-6 6h-148a6 6 0 0 1-6-6z" stroke="#3a414a" stroke-width="2" fill="#fff"/><use xlink:href="#i" transform="matrix(1,0,0,1,23294.09871077409,1377.0978335320917) translate(30.882716049382708 36.88888888888889)"/><use xlink:href="#j" transform="matrix(1,0,0,1,23294.09871077409,1377.0978335320917) translate(17.962962962962962 74.22222222222223)"/><path d="M23287.24 1514.4a6 6 0 0 1 6-6h148a6 6 0 0 1 6 6v124a6 6 0 0 1-6 6h-148a6 6 0 0 1-6-6z" stroke="#3a414a" stroke-width="3" fill="#f4d9ff"/><use xlink:href="#y" transform="matrix(1,0,0,1,23299.239783908637,1520.4138511012702) translate(36.11111111111111 28.388888888888893)"/><use xlink:href="#l" transform="matrix(1,0,0,1,23299.239783908637,1520.4138511012702) translate(4.222222222222221 65.72222222222223)"/><use xlink:href="#m" transform="matrix(1,0,0,1,23299.239783908637,1520.4138511012702) translate(31.79012345679012 103.05555555555557)"/><path d="M22577.2 1801.16a6 6 0 0 1 6-6h345.85a6 6 0 0 1 6 6v184.9a6 6 0 0 1-6 6h-345.85a6 6 0 0 1-6-6z" stroke="#3a414a" stroke-width="2" fill="#fff7a1"/><use xlink:href="#C" transform="matrix(1,0,0,1,22589.194968280546,1807.156683430237) translate(0 24.888888888888893)"/><use xlink:href="#n" transform="matrix(1,0,0,1,22589.194968280546,1807.156683430237) translate(79.24691358024693 24.888888888888893)"/><use xlink:href="#D" transform="matrix(1,0,0,1,22589.194968280546,1807.156683430237) translate(196.77777777777777 24.888888888888893)"/><path d="M22746.08 1856.58a6 6 0 0 1 6-6h148a6 6 0 0 1 6 6v108a6 6 0 0 1-6 6h-148a6 6 0 0 1-6-6z" stroke="#3a414a" stroke-width="2" fill="#fff"/><use xlink:href="#i" transform="matrix(1,0,0,1,22758.082428185146,1862.580821879051) translate(30.882716049382708 36.88888888888889)"/><use xlink:href="#j" transform="matrix(1,0,0,1,22758.082428185146,1862.580821879051) translate(17.962962962962962 74.22222222222223)"/><path d="M22577.2 2034.07a6 6 0 0 1 6-6h345.85a6 6 0 0 1 6 6v184.9a6 6 0 0 1-6 6h-345.85a6 6 0 0 1-6-6z" stroke="#3a414a" stroke-width="2" fill="#fff7a1"/><use xlink:href="#C" transform="matrix(1,0,0,1,22589.194968280546,2040.069648992871) translate(0 24.888888888888893)"/><use xlink:href="#n" transform="matrix(1,0,0,1,22589.194968280546,2040.069648992871) translate(79.24691358024693 24.888888888888893)"/><use xlink:href="#q" transform="matrix(1,0,0,1,22589.194968280546,2040.069648992871) translate(196.77777777777777 24.888888888888893)"/><path d="M22746.08 2089.5a6 6 0 0 1 6-6h148a6 6 0 0 1 6 6v108a6 6 0 0 1-6 6h-148a6 6 0 0 1-6-6z" stroke="#3a414a" stroke-width="2" fill="#fff"/><use xlink:href="#i" transform="matrix(1,0,0,1,22758.082428185146,2095.4937874416855) translate(30.882716049382708 36.88888888888889)"/><use xlink:href="#j" transform="matrix(1,0,0,1,22758.082428185146,2095.4937874416855) translate(17.962962962962962 74.22222222222223)"/><path d="M23871.03 1813.25a6 6 0 0 1 6-6h345.86a6 6 0 0 1 6 6v184.9a6 6 0 0 1-6 6h-345.87a6 6 0 0 1-6-6z" stroke="#3a414a" stroke-width="2" fill="#ffe342"/><use xlink:href="#C" transform="matrix(1,0,0,1,23883.030492210877,1819.2516483298173) translate(0 24.888888888888893)"/><use xlink:href="#n" transform="matrix(1,0,0,1,23883.030492210877,1819.2516483298173) translate(79.24691358024693 24.888888888888893)"/><use xlink:href="#D" transform="matrix(1,0,0,1,23883.030492210877,1819.2516483298173) translate(196.77777777777777 24.888888888888893)"/><path d="M24039.92 1868.68a6 6 0 0 1 6-6h148a6 6 0 0 1 6 6v108a6 6 0 0 1-6 6h-148a6 6 0 0 1-6-6z" stroke="#3a414a" stroke-width="2" fill="#fff"/><use xlink:href="#i" transform="matrix(1,0,0,1,24051.917952115473,1874.6757867786312) translate(30.882716049382708 36.88888888888889)"/><use xlink:href="#j" transform="matrix(1,0,0,1,24051.917952115473,1874.6757867786312) translate(17.962962962962962 74.22222222222223)"/><path d="M23871.03 2034.07a6 6 0 0 1 6-6h345.86a6 6 0 0 1 6 6v184.9a6 6 0 0 1-6 6h-345.87a6 6 0 0 1-6-6z" stroke="#3a414a" stroke-width="2" fill="#ffe342"/><use xlink:href="#C" transform="matrix(1,0,0,1,23883.030492210877,2040.069648992871) translate(0 24.888888888888893)"/><use xlink:href="#n" transform="matrix(1,0,0,1,23883.030492210877,2040.069648992871) translate(79.24691358024693 24.888888888888893)"/><use xlink:href="#q" transform="matrix(1,0,0,1,23883.030492210877,2040.069648992871) translate(196.77777777777777 24.888888888888893)"/><path d="M24039.92 2089.5a6 6 0 0 1 6-6h148a6 6 0 0 1 6 6v108a6 6 0 0 1-6 6h-148a6 6 0 0 1-6-6z" stroke="#3a414a" stroke-width="2" fill="#fff"/><use xlink:href="#i" transform="matrix(1,0,0,1,24051.917952115477,2095.4937874416855) translate(30.882716049382708 36.88888888888889)"/><use xlink:href="#j" transform="matrix(1,0,0,1,24051.917952115477,2095.4937874416855) translate(17.962962962962962 74.22222222222223)"/><path d="M22587.5 1173.32h-39.05l-.65.06-.54.12-.5.2-.48.3-.42.36-.35.42-.28.47-.2.5-.14.55-.05.65v66.5h-4.95v-66.7l.1-1.23.3-1.3.5-1.22.7-1.14.87-1 1.02-.87 1.13-.7 1.23-.52 1.3-.3 1.22-.1h39.24zm38.97-21.14h-4.95v-512.6h4.95z" stroke="#ba23f6" stroke-width=".05" fill="#ba23f6"/><path d="M22626.47 639.66h-4.95v-2.57h4.95z" stroke="#ba23f6" stroke-width=".05" fill="#ba23f6"/><path d="M22542.35 1260.2l-4.63-14.26h9.27z" fill="#ba23f6"/><path d="M22542.35 1268.22l-8.04-24.75h16.1zm-1.23-19.8l1.23 3.78 1.23-3.78zM23329.6 1168.37l1.24.1 1.3.3 1.23.52 1.13.7 1 .85.88 1 .7 1.15.5 1.23.3 1.3.1 1.22v66.7h-4.94v-66.5l-.05-.65-.14-.54-.2-.5-.3-.48-.36-.42-.42-.36-.47-.3-.5-.2-.53-.13-.65-.05h-27.84v-4.95zm-703.13-16.2h-4.95V639.6h4.95z" stroke="#ba23f6" stroke-width=".05" fill="#ba23f6"/><path d="M22626.47 639.66h-4.95v-2.57h4.95z" fill="#ba23f6"/><path stroke="#ba23f6" stroke-width=".05" fill="#ba23f6"/><path d="M23335.52 1260.2l-4.64-14.26h9.27z" fill="#ba23f6"/><path d="M23335.52 1268.22l-8.05-24.75h16.1zm-1.23-19.8l1.22 3.78 1.22-3.78z" stroke="#ba23f6" stroke-width=".05" fill="#ba23f6"/><use xlink:href="#E" transform="matrix(1,0,0,1,22587.493548217513,1152.1821020602188) translate(0 24.888888888888893)"/><path d="M22175.88 1887.5l.05.65.13.54.2.5.3.47.36.42.42.35.47.3.52.2.53.13.65.05h37.1v4.95h-37.3l-1.22-.1-1.3-.3-1.23-.52-1.13-.7-1-.86-.88-1-.7-1.14-.5-1.23-.3-1.3-.1-1.23V1642h4.94zm375.46 3.63v4.95h-63.82v-4.95z" stroke="#ba23f6" stroke-width=".05" fill="#ba23f6"/><path d="M22175.88 1642.07h-4.95v-2.56h4.95z" fill="#ba23f6"/><path stroke="#ba23f6" stroke-width=".05" fill="#ba23f6"/><path d="M22568.1 1893.6l-14.26 4.64v-9.27z" fill="#ba23f6"/><path d="M22576.1 1893.6l-24.74 8.05v-16.1zm-19.8 1.23l3.8-1.22-3.8-1.22z" stroke="#ba23f6" stroke-width=".05" fill="#ba23f6"/><use xlink:href="#F" transform="matrix(1,0,0,1,22216.597386500307,1874.9385119288074) translate(0 24.888888888888893)"/><path d="M22175.88 2120.42l.05.65.13.53.2.5.3.5.36.4.42.36.47.3.52.2.53.13.65.04h371.84v4.95h-372.03l-1.22-.1-1.3-.3-1.23-.52-1.13-.7-1-.86-.88-1.02-.7-1.13-.5-1.23-.3-1.3-.1-1.23V1642h4.94z" stroke="#ba23f6" stroke-width=".05" fill="#ba23f6"/><path d="M22175.88 1642.07h-4.95v-2.56h4.95z" fill="#ba23f6"/><path stroke="#ba23f6" stroke-width=".05" fill="#ba23f6"/><path d="M22568.1 2126.52l-14.26 4.63v-9.27z" fill="#ba23f6"/><path d="M22576.1 2126.52l-24.74 8.04v-16.08zm-19.8 1.23l3.8-1.23-3.8-1.23z" stroke="#ba23f6" stroke-width=".05" fill="#ba23f6"/><use xlink:href="#F" transform="matrix(1,0,0,1,22198.882025595794,2085.184810824775) translate(0 24.888888888888893)"/><path d="M23369.7 1899.6l.07.65.13.54.2.5.3.47.35.42.42.35.47.28.5.22.55.12.64.05h27.43v4.95h-27.63l-1.23-.1-1.28-.3-1.23-.5-1.15-.7-1-.87-.87-1-.7-1.15-.5-1.23-.32-1.3-.1-1.22v-251.4h4.96zm475.47 3.63v4.94h-173.47v-4.95z" stroke="#ba23f6" stroke-width=".05" fill="#ba23f6"/><path d="M23369.7 1648.48h-4.94v-2.57h4.96z" fill="#ba23f6"/><path stroke="#ba23f6" stroke-width=".05" fill="#ba23f6"/><path d="M23861.94 1905.7l-14.26 4.63v-9.26z" fill="#ba23f6"/><path d="M23869.95 1905.7l-24.75 8.04v-16.08zm-19.8 1.23l3.78-1.23-3.78-1.23z" stroke="#ba23f6" stroke-width=".05" fill="#ba23f6"/><use xlink:href="#F" transform="matrix(1,0,0,1,23400.77191027682,1887.0334768283876) translate(0 24.888888888888893)"/><path d="M23369.7 2120.42l.07.65.13.53.2.5.3.5.35.4.42.36.47.3.5.2.55.13.64.04h471.83v4.95h-472.03l-1.23-.1-1.28-.3-1.23-.52-1.15-.7-1-.86-.87-1.02-.7-1.13-.5-1.23-.32-1.3-.1-1.23v-472.2h4.96z" stroke="#ba23f6" stroke-width=".05" fill="#ba23f6"/><path d="M23369.7 1648.48h-4.94v-2.57h4.96z" fill="#ba23f6"/><path stroke="#ba23f6" stroke-width=".05" fill="#ba23f6"/><path d="M23861.94 2126.52l-14.26 4.63v-9.27z" fill="#ba23f6"/><path d="M23869.95 2126.52l-24.75 8.04v-16.08zm-19.8 1.23l3.78-1.23-3.78-1.23z" stroke="#ba23f6" stroke-width=".05" fill="#ba23f6"/><use xlink:href="#F" transform="matrix(1,0,0,1,23401.201692362953,2085.184810824775) translate(0 24.888888888888893)"/><path d="M22445.34 519.1a6 6 0 0 1 6-6h345.3a6 6 0 0 1 6 6v110.5a6 6 0 0 1-6 6h-345.3a6 6 0 0 1-6-6z" stroke="#3a414a" stroke-width="3" fill="#f4d9ff"/><use xlink:href="#G" transform="matrix(1,0,0,1,22457.335637725195,525.1100135210179) translate(0 56.83810763888889)"/><path d="M22928.55 521.6a6 6 0 0 1 6-6h224.74a6 6 0 0 1 6 6v108a6 6 0 0 1-6 6h-224.75a6 6 0 0 1-6-6z" fill-opacity="0"/><path d="M23084.38 515.6h74.9l.95.07.9.22.88.35.8.5.73.6.6.72.5.8.36.87.2.92.1.93v108l-.1.93-.2.92-.37.87-.5.8-.6.72-.72.6-.8.5-.86.36-.9.22-.95.07h-74.92m-74.92 0h-74.9l-.94-.08-.92-.22-.87-.36-.8-.5-.72-.6-.6-.72-.5-.8-.35-.87-.22-.92-.08-.94v-108l.08-.94.22-.92.36-.87.5-.8.6-.72.73-.6.8-.5.87-.36.92-.23.93-.07h74.92" stroke="#e81313" stroke-width="7" fill="none"/><use xlink:href="#H" transform="matrix(1,0,0,1,22940.55333157524,527.5944962698929) translate(46.99999999999999 36.88888888888889)"/><use xlink:href="#I" transform="matrix(1,0,0,1,22940.55333157524,527.5944962698929) translate(54.73456790123456 74.22222222222223)"/><path d="M22327.88 571.63h99.57" stroke="#3a414a" fill="none"/><path d="M22327.9 572.1h-.52v-.95h.5z" stroke="#3a414a" stroke-width=".05" fill="#3a414a"/><path d="M22442.22 571.63l-14.27 4.63V567z" stroke="#3a414a" fill="#3a414a"/><path d="M22804.65 574.35h104.02" stroke="#3a414a" fill="none"/><path d="M22804.66 574.83h-.5v-.95h.5z" stroke="#3a414a" stroke-width=".05" fill="#3a414a"/><path d="M22923.44 574.35l-14.27 4.64v-9.28z" stroke="#3a414a" fill="#3a414a"/><path d="M22384.44 1411.44a6 6 0 0 1 6-6h341.64a6 6 0 0 1 6 6v124a6 6 0 0 1-6 6h-341.64a6 6 0 0 1-6-6z" stroke="#008a0e" stroke-width="3" fill="#e3fae3"/><use xlink:href="#J" transform="matrix(1,0,0,1,22396.445454869172,1417.4428331232687) translate(-0.5370370370370381 62.22222222222222)"/><path d="M22256.88 1431.33l101.44 14.03" stroke="#3a414a" stroke-width="5" fill="none"/><path d="M22257.28 1428.88l-.68 4.9-2.2-.3v-5z" stroke="#3a414a" stroke-width=".05" fill="#3a414a"/><path d="M22374.93 1447.66l-14.76 2.64 1.27-9.18z" stroke="#3a414a" stroke-width="5" fill="#3a414a"/><path d="M22909.6 1910.53l2.34-.05 4.48-.28 4.15-.43 3.85-.57 3.58-.68 3.34-.8 3.12-.86 2.94-.95 2.75-1.02 2.6-1.1 2.46-1.14 2.33-1.22 2.2-1.27 2.08-1.32 2-1.38 1.88-1.43 1.8-1.48 1.7-1.54 1.63-1.6 1.56-1.65 1.48-1.7 1.4-1.8 1.35-1.83 1.26-1.92 1.2-2 1.14-2.06 1.07-2.15 1-2.25.92-2.33.84-2.44.77-2.55.7-2.66.58-2.78.5-2.93.38-3.05.27-3.2.14-3.36v-3.52l-.16-3.68-.3-3.87-.52-4.05-.72-4.23-.94-4.43-1.2-4.62-1.44-4.8-1.73-5-2.05-5.15-2.38-5.34-2.73-5.5-3.1-5.64-3.5-5.76-3.88-5.85-4.32-5.93-4.74-6-5.2-6-5.62-6-6.1-5.96-6.55-5.9-7.04-5.8-7.5-5.7-7.98-5.55-7.9-5-9.5-5.53-11.53-6.06-14.44-6.82-19.07-8.05-28.34-10.58-146.28-48.88-16.35-6.9-12.03-5.7-9.4-4.93-7.6-4.4-6.28-4.02-5.3-3.7-4.54-3.46-3.93-3.26-3.43-3.1-3-2.96-2.66-2.84-2.35-2.75-2.1-2.67-1.9-2.6-1.7-2.57-1.5-2.5-1.36-2.5-1.24-2.48-1.1-2.47-.2-.55" stroke="#1071e5" stroke-width="5" stroke-linejoin="round" fill="none"/><path d="M22909.7 1913l-2.62.06v-4.95l2.52-.05z" stroke="#1071e5" stroke-width=".05" fill="#1071e5"/><path d="M22569.52 1550.9l7.25 13.12-9.1 1.75z" stroke="#1071e5" stroke-width="5" fill="#1071e5"/><path d="M22909.6 2143.44l4.15-.08 6.24-.4 5.88-.6 5.57-.84 5.28-1 5.04-1.18 4.8-1.35 4.63-1.5 4.44-1.66 4.28-1.8 4.14-1.95 4-2.1 3.9-2.26 3.8-2.4 3.72-2.6 3.63-2.74 3.57-2.95 3.5-3.14 3.42-3.35 3.37-3.6 3.33-3.86 3.28-4.15 3.23-4.45 3.2-4.8 3.14-5.18 3.08-5.6 3.02-6.1 2.95-6.64 2.85-7.23 2.76-7.92 2.63-8.68 2.44-9.55 2.24-10.52 1.97-11.6 1.6-12.84 1.2-14.18.65-15.66v-17.25l-.8-18.94-1.75-20.63-2.83-22.3-4.03-23.83-5.32-25.06-6.66-25.9-7.93-26.27-9.1-26.1-10.07-25.42-10.8-24.28-11.33-22.8-11.6-21.1-11.68-19.32-11.63-17.5-11.44-15.75-11.17-14.1-10.87-12.58-10.5-11.2-10.16-9.94-9.8-8.82-9.45-7.83-9.13-6.93-8.84-6.13-8.54-5.44-8.28-4.78-8.05-4.2-7.84-3.7-7.64-3.2-7.48-2.8-7.33-2.37-7.2-2-7.1-1.67-7-1.34-2.87-.43" stroke="#1071e5" stroke-width="5" stroke-linejoin="round" fill="none"/><path d="M22909.7 2145.9l-2.62.07v-4.95l2.52-.05z" stroke="#1071e5" stroke-width=".05" fill="#1071e5"/><path d="M22747.64 1503.8l14.58-3.54-.7 9.24z" stroke="#1071e5" stroke-width="5" fill="#1071e5"/><path d="M23564.34 1422.5a6 6 0 0 1 6-6h325.12a6 6 0 0 1 6 6v107.77a6 6 0 0 1-6 6h-325.12a6 6 0 0 1-6-6z" stroke="#008a0e" stroke-width="3" fill="#e3fae3"/><use xlink:href="#J" transform="matrix(1,0,0,1,23576.338940165555,1428.5051805506123) translate(-8.537037037037038 54.22222222222222)"/><path d="M24203.42 1922.63l4-.1 5.6-.34 4.88-.52 4.27-.63 3.77-.7 3.35-.8 3-.84 2.7-.87 2.46-.9 2.23-.95 2.03-.95 1.88-.98 1.74-1 1.6-1.02 1.5-1.03 1.37-1.06 1.3-1.07 1.22-1.1 1.14-1.1 1.07-1.14 1-1.16.95-1.2.9-1.23.83-1.27.8-1.3.75-1.36.7-1.4.65-1.47.6-1.53.57-1.6.5-1.7.47-1.78.4-1.9.34-2 .27-2.15.2-2.3.1-2.48v-2.7l-.13-2.9-.27-3.2-.44-3.5-.65-3.87-.92-4.3-1.24-4.84-1.65-5.44-2.15-6.16-2.8-7.03-3.6-8.08-4.64-9.35-5.97-10.85-7.67-12.63-9.77-14.7-12.37-17-15.4-19.38-18.68-21.64-21.9-23.3-24.54-24.02-26.12-23.52-26.44-21.88-25.6-19.44-23.93-16.64-21.85-13.87-19.6-11.34-17.46-9.14-15.5-7.3-13.74-5.78-12.22-4.55-.8-.27" stroke="#1071e5" stroke-width="5" stroke-linejoin="round" fill="none"/><path d="M24203.54 1925.1l-2.62.05v-4.95l2.52-.05z" stroke="#1071e5" stroke-width=".05" fill="#1071e5"/><path d="M23910.47 1534.4l15-.42-2.62 8.9z" stroke="#1071e5" stroke-width="5" fill="#1071e5"/><path d="M24203.43 2143.44l5.2-.1 7.03-.45 6.5-.7 6-.87 5.57-1.07 5.2-1.22 4.88-1.36 4.6-1.5 4.33-1.6 4.1-1.72 3.9-1.83 3.7-1.94 3.55-2.06 3.4-2.15 3.25-2.28 3.13-2.38 3.03-2.5 2.9-2.62 2.83-2.77 2.73-2.9 2.65-3.08 2.6-3.25 2.48-3.43 2.42-3.66 2.35-3.88 2.27-4.13 2.2-4.4 2.1-4.75 2-5.1 1.92-5.48 1.8-5.94 1.65-6.45 1.48-7.02 1.3-7.7 1.06-8.43.78-9.3.42-10.25v-11.37l-.54-12.63-1.18-14.06-2-15.67-2.95-17.44-4.13-19.38-5.5-21.43-7.12-23.5-8.9-25.53-10.8-27.3-12.77-28.64-14.6-29.4-16.2-29.48-17.47-28.83-18.3-27.54-18.7-25.74-18.72-23.63-18.43-21.36-17.9-19.1-17.25-16.88-16.5-14.85-15.68-13-14.9-11.3-14.13-9.83-13.4-8.5-12.72-7.36-12.1-6.33-11.5-5.42-11-4.6-10.52-3.92-10.08-3.28-9.7-2.7-9.34-2.2-9.03-1.73-8.76-1.3h-.15" stroke="#1071e5" stroke-width="5" stroke-linejoin="round" fill="none"/><path d="M24203.54 2145.9l-2.62.07v-4.95l2.52-.05z" stroke="#1071e5" stroke-width=".05" fill="#1071e5"/><path d="M23911.04 1476.9l14.53-3.72-.6 9.25z" stroke="#1071e5" stroke-width="5" fill="#1071e5"/><path d="M23445.4 1426.08l94.6 40.52" stroke="#3a414a" stroke-width="5" fill="none"/><path d="M23446.43 1423.83l-1.95 4.55-1.38-.6v-5.38z" stroke="#3a414a" stroke-width=".05" fill="#3a414a"/><path d="M23555.4 1473.2l-14.94-1.35 3.65-8.52z" stroke="#3a414a" stroke-width="5" fill="#3a414a"/><path d="M23235.3 437.7a6 6 0 0 1 6-6h323.05a6 6 0 0 1 6 6v109.4a6 6 0 0 1-6 6h-323.06a6 6 0 0 1-6-6z" stroke="#008a0e" stroke-width="3" fill="#e3fae3"/><use xlink:href="#J" transform="matrix(1,0,0,1,23247.2848856946,443.6917696815477) translate(-9.537037037037038 55.22222222222222)"/><path d="M22999.73 1015.62l-.1 1.23-.3 1.3-.52 1.22-.68 1.13-.87 1.02-1 .86-1.15.7-1.22.5-1.3.32-1.23.1h-529.76l-.66.05-.54.12-.5.2-.48.3-.42.36-.35.42-.3.47-.2.5-.13.55-.05.65v373.82h-4.95v-374.02l.1-1.23.3-1.3.5-1.23.7-1.14.87-1 1-.87 1.14-.7 1.23-.5 1.3-.32 1.22-.1h529.76l.65-.05.54-.14.5-.2.48-.3.42-.35.36-.4.3-.48.2-.5.13-.55.05-.65V663.95h4.95z" stroke="#1071e5" stroke-width=".05" fill="#1071e5"/><path d="M22457.97 1403.94h-4.95v-2.56h4.95z" fill="#1071e5"/><path stroke="#1071e5" stroke-width=".05" fill="#1071e5"/><path d="M23001.9 661.45h-9.28l4.63-14.27z" fill="#1071e5"/><path d="M23005.3 663.92h-16.1l8.05-24.75zm-9.27-4.94h2.45l-1.23-3.8zM23073.87 1020.95l.05.65.13.54.2.5.3.48.35.42.42.36.47.28.5.2.54.14.65.06h649.5l1.23.1 1.3.3 1.22.5 1.14.7 1 .87.86 1 .7 1.15.5 1.23.32 1.3.1 1.22v379.56h-4.95v-379.35l-.06-.65-.12-.54-.22-.5-.28-.48-.36-.42-.43-.36-.47-.28-.5-.22-.55-.12-.65-.05h-649.5l-1.24-.1-1.3-.3-1.22-.52-1.13-.7-1-.85-.87-1-.7-1.15-.5-1.23-.32-1.3-.08-1.22v-357.2h4.95z" stroke="#1071e5" stroke-width=".05" fill="#1071e5"/><path d="M23735.38 1415h-4.95v-2.56h4.95z" fill="#1071e5"/><path stroke="#1071e5" stroke-width=".05" fill="#1071e5"/><path d="M23076.03 661.45h-9.27l4.63-14.27z" fill="#1071e5"/><path d="M23079.43 663.92h-16.08l8.04-24.75zm-9.27-4.94h2.46l-1.23-3.8z" stroke="#1071e5" stroke-width=".05" fill="#1071e5"/><path d="M23231.3 492.4h-24a6 6 0 0 0-6 6v80.03a6 6 0 0 1-6 6h-1.66" stroke="#1071e5" stroke-width="5" fill="none"/><path d="M23233.8 494.87h-2.58v-4.95h2.56z" stroke="#1071e5" stroke-width=".05" fill="#1071e5"/><path d="M23176.88 584.43l14.26-4.64v9.26z" stroke="#1071e5" stroke-width="5" fill="#1071e5"/><path d="M23970.63 643.43h-177.07v-4.95h177.07zm516.03-91.43h-329.28l-.65.05-.53.13-.5.2-.48.3-.42.36-.36.42-.3.47-.2.5-.13.55-.04.64v66.67h-4.95v-66.87l.1-1.23.32-1.3.5-1.22.7-1.14.87-1 1-.88 1.13-.7 1.23-.5 1.3-.3 1.23-.1h329.46z" stroke="#ba23f6" stroke-width=".05" fill="#ba23f6"/><path d="M23793.62 643.43h-2.56v-4.95h2.56z" fill="#ba23f6"/><path stroke="#ba23f6" stroke-width=".05" fill="#ba23f6"/><path d="M24503.42 549.53l-14.26 4.63v-9.27z" fill="#ba23f6"/><path d="M24511.43 549.53l-24.75 8.04V541.5zm-19.8 1.23l3.78-1.23-3.77-1.23zM24153.76 740.8l.05.64.14.54.2.5.3.48.36.42.42.36.47.28.5.22.53.13.65.05h329.28v4.95h-329.47l-1.24-.1-1.3-.3-1.23-.52-1.13-.7-1-.86-.88-1.02-.7-1.14-.5-1.23-.3-1.28-.1-1.23V659.6h4.94zm-360.2-97.37v-4.95h177.07v4.95z" stroke="#ba23f6" stroke-width=".05" fill="#ba23f6"/><path d="M23793.62 643.43h-2.56v-4.95h2.56z" fill="#ba23f6"/><path stroke="#ba23f6" stroke-width=".05" fill="#ba23f6"/><path d="M24503.42 746.9l-14.26 4.63v-9.27z" fill="#ba23f6"/><path d="M24511.43 746.9l-24.75 8.03v-16.08zm-19.8 1.22l3.78-1.23-3.77-1.24z" stroke="#ba23f6" stroke-width=".05" fill="#ba23f6"/><g><use xlink:href="#F" transform="matrix(1,0,0,1,23970.62807729739,622.2891482134245) translate(0 24.888888888888893)"/></g><path d="M24577.9 523.66L24439.7 522l-47.76-2.95-35.27-3.68-31.7-4.68-32.5-6.22-37.93-8.93-53.37-15-122.53-40.43-2.65-.92-240.74-81.2-79.3-22.3-55.42-13.1-41.7-8-32.7-4.87-26.34-2.8-21.7-1.4-18.17-.4-15.45.32-13.3.82-11.56 1.2-10.16 1.5-9 1.7-8.02 1.9-7.22 2-6.53 2.1-5.94 2.22-5.44 2.27-5 2.34-4.6 2.42-4.3 2.47-3.97 2.5-3.72 2.6-3.47 2.63-3.27 2.7-3.08 2.78-2.9 2.85-2.77 2.93-2.6 3.02-2.47 3.12-2.35 3.24-2.23 3.35-2.12 3.5-2 3.66-1.9 3.82-1.8 4.02-1.68 4.24-1.56 4.5-1.46 4.77-1.3 5.1-1.17 5.47-1 5.9-.8 6.38-.6 6.95-.3 7.6-.03 1.7" stroke="#1071e5" stroke-width="5" stroke-linejoin="round" fill="none"/><path d="M24594.67 523.86l-14.32 4.46.1-9.27z" stroke="#1071e5" stroke-width="5" fill="#1071e5"/><path d="M23405.32 427.65l-.03 2.54h-4.96l.03-2.6zM23479.53 581.65l1.43 55.42 1.85 26.47 1.98 17.48 2 12.97 2.06 10.26 2.06 8.48 2.08 7.22 2.1 6.3 2.13 5.58 2.18 5.04 2.2 4.6 2.28 4.26 2.35 3.98 2.43 3.75 2.53 3.58 2.65 3.43 2.8 3.3 2.97 3.25 3.17 3.2 3.43 3.15 3.72 3.15 4.08 3.2 4.54 3.23 5.12 3.33 5.86 3.47 6.83 3.67 8.16 3.96 10.08 4.38 13.06 5.03 18.2 6.15 29.4 8.53 164.82 38.43 292.9 63.28 128.37 21.94 85.72 10.94 62.32 5.3 47.4 2.03 37.14.03 29.84-1.23 24.4-2.03 20.3-2.55 17.12-2.9 14.6-3.08 12.6-3.23 10.94-3.3 9.62-3.34 8.5-3.36 7.56-3.36 6.78-3.36 6.1-3.36 5.53-3.34 5.02-3.34 4.58-3.33 4.2-3.32 3.88-3.34 3.57-3.35 3.3-3.38 3.05-3.4 2.84-3.42 2.64-3.48 2.46-3.53 2.28-3.6 2.13-3.7 1.97-3.76 1.82-3.87 1.68-4 1.54-4.14 1.4-4.3 1.25-4.48 1.1-4.7.95-4.92.76-5.2.6-5.5.36-5.88.08-3.82 4.95.1-.1 3.93-.37 6.07-.6 5.72-.8 5.4-.98 5.14-1.15 4.88-1.3 4.68-1.46 4.5-1.6 4.33-1.78 4.18-1.9 4.06-2.08 3.96-2.22 3.85-2.4 3.78-2.57 3.7-2.78 3.64-2.97 3.6-3.2 3.54-3.44 3.53-3.7 3.5-4.03 3.46-4.37 3.46-4.76 3.45-5.2 3.46-5.7 3.45-6.3 3.47-6.95 3.45-7.76 3.45-8.7 3.44-9.8 3.42-11.17 3.36-12.78 3.28-14.82 3.13-17.32 2.9-20.5 2.6-24.62 2.04-30.03 1.24-37.35-.03-47.6-2.05-62.53-5.3-85.92-10.98-128.58-21.98-293.04-63.3-165-38.46-29.6-8.6-18.42-6.22-13.25-5.1-10.27-4.46-8.36-4.05-7-3.77-6.04-3.6-5.3-3.43-4.7-3.37-4.26-3.3-3.88-3.3-3.6-3.3-3.3-3.33-3.12-3.4-2.92-3.47-2.78-3.6-2.65-3.73-2.54-3.93-2.46-4.16-2.36-4.44-2.3-4.8-2.26-5.22-2.2-5.78-2.17-6.5-2.14-7.4-2.1-8.7-2.08-10.47-2.05-13.17-2-17.7-1.85-26.67-1.44-55.57v-2.26l4.94-.02z" stroke="#1071e5" stroke-width=".05" fill="#1071e5"/><path d="M24686.2 829.4l-4.96-.1.05-2.53h4.94z" fill="#1071e5"/><path stroke="#1071e5" stroke-width=".05" fill="#1071e5"/><path d="M23481.67 576.94l-9.27.04 4.58-14.3z" fill="#1071e5"/><path d="M23485.1 579.4l-16.1.07 7.95-24.8zm-9.3-4.9l2.45-.02-1.24-3.78z" stroke="#1071e5" stroke-width=".05" fill="#1071e5"/><path d="M23626.06 493.1h-25.75a.1.1 0 0 1-.1-.1.1.1 0 0 0-.1-.1h-3.4" stroke="#000" stroke-width="5" fill="none"/><path d="M23628.56 495.58h-2.57v-4.95h2.56z" stroke="#000" stroke-width=".05"/><path d="M23579.94 492.9l14.26-4.64v9.27z" stroke="#000" stroke-width="5"/><path d="M24385.7 1217.75h167.3M24385.77 1217.75h-2.57" stroke="#ba23f6" stroke-width="5" fill="none"/><path d="M24569.77 1217.75l-14.27 4.64v-9.28z" stroke="#ba23f6" stroke-width="5" fill="#ba23f6"/><path d="M24386.33 1330.98h167.3M24386.4 1330.98h-2.57" stroke="#1071e5" stroke-width="5" fill="none"/><path d="M24570.4 1330.98l-14.28 4.64v-9.27z" stroke="#1071e5" stroke-width="5" fill="#1071e5"/><path d="M24522.32 1196.48a6 6 0 0 1 6-6h228a6 6 0 0 1 6 6v48a6 6 0 0 1-6 6h-228a6 6 0 0 1-6-6z" fill="none"/><g><use xlink:href="#K" transform="matrix(1,0,0,1,24522.32345229933,1190.476727337647) translate(64.49074074074073 36.66666666666667)"/></g><path d="M24532 1305.78a6 6 0 0 1 6-6h228a6 6 0 0 1 6 6v48a6 6 0 0 1-6 6h-228a6 6 0 0 1-6-6z" fill="none"/><g><use xlink:href="#L" transform="matrix(1,0,0,1,24531.993613247287,1299.7771403404556) translate(51.52777777777777 36.66666666666667)"/></g><path d="M24392.35 1447.95h167.3M24392.4 1447.95h-2.55" stroke="#000" stroke-width="5" fill="none"/><path d="M24576.4 1447.95l-14.26 4.64v-9.28z" stroke="#000" stroke-width="5"/><path d="M24532 1426.86a6 6 0 0 1 6-6h228a6 6 0 0 1 6 6v48a6 6 0 0 1-6 6h-228a6 6 0 0 1-6-6z" fill="none"/><g><use xlink:href="#M" transform="matrix(1,0,0,1,24531.993613247287,1420.8551826483238) translate(54.39814814814815 36.66666666666667)"/><use xlink:href="#N" transform="matrix(1,0,0,1,24531.993613247287,1420.8551826483238) translate(131.99074074074073 36.66666666666667)"/></g><defs><path d="M30-248c87 1 191-15 191 75 0 78-77 80-158 76V0H30v-248zm33 125c57 0 124 11 124-50 0-59-68-47-124-48v98" id="O"/><path d="M141-36C126-15 110 5 73 4 37 3 15-17 15-53c-1-64 63-63 125-63 3-35-9-54-41-54-24 1-41 7-42 31l-33-3c5-37 33-52 76-52 45 0 72 20 72 64v82c-1 20 7 32 28 27v20c-31 9-61-2-59-35zM48-53c0 20 12 33 32 33 41-3 63-29 60-74-43 2-92-5-92 41" id="P"/><path d="M114-163C36-179 61-72 57 0H25l-1-190h30c1 12-1 29 2 39 6-27 23-49 58-41v29" id="Q"/><path d="M100-194c63 0 86 42 84 106H49c0 40 14 67 53 68 26 1 43-12 49-29l28 8c-11 28-37 45-77 45C44 4 14-33 15-96c1-61 26-98 85-98zm52 81c6-60-76-77-97-28-3 7-6 17-6 28h103" id="R"/><path d="M117-194c89-4 53 116 60 194h-32v-121c0-31-8-49-39-48C34-167 62-67 57 0H25l-1-190h30c1 10-1 24 2 32 11-22 29-35 61-36" id="S"/><path d="M59-47c-2 24 18 29 38 22v24C64 9 27 4 27-40v-127H5v-23h24l9-43h21v43h35v23H59v120" id="T"/><g id="a"><use transform="matrix(0.08641975308641976,0,0,0.08641975308641976,0,0)" xlink:href="#O"/><use transform="matrix(0.08641975308641976,0,0,0.08641975308641976,20.740740740740744,0)" xlink:href="#P"/><use transform="matrix(0.08641975308641976,0,0,0.08641975308641976,38.0246913580247,0)" xlink:href="#Q"/><use transform="matrix(0.08641975308641976,0,0,0.08641975308641976,48.308641975308646,0)" xlink:href="#R"/><use transform="matrix(0.08641975308641976,0,0,0.08641975308641976,65.5925925925926,0)" xlink:href="#S"/><use transform="matrix(0.08641975308641976,0,0,0.08641975308641976,82.87654320987654,0)" xlink:href="#T"/></g><path d="M24 0v-261h32V0H24" id="U"/><path d="M85-194c31 0 48 13 60 33l-1-100h32l1 261h-30c-2-10 0-23-3-31C134-8 116 4 85 4 32 4 16-35 15-94c0-66 23-100 70-100zm9 24c-40 0-46 34-46 75 0 40 6 74 45 74 42 0 51-32 51-76 0-42-9-74-50-73" id="V"/><g id="b"><use transform="matrix(0.08641975308641976,0,0,0.08641975308641976,0,0)" xlink:href="#U"/><use transform="matrix(0.08641975308641976,0,0,0.08641975308641976,6.8271604938271615,0)" xlink:href="#R"/><use transform="matrix(0.08641975308641976,0,0,0.08641975308641976,24.111111111111114,0)" xlink:href="#P"/><use transform="matrix(0.08641975308641976,0,0,0.08641975308641976,41.39506172839506,0)" xlink:href="#V"/><use transform="matrix(0.08641975308641976,0,0,0.08641975308641976,58.679012345679006,0)" xlink:href="#R"/><use transform="matrix(0.08641975308641976,0,0,0.08641975308641976,75.96296296296296,0)" xlink:href="#Q"/></g><path d="M96-169c-40 0-48 33-48 73s9 75 48 75c24 0 41-14 43-38l32 2c-6 37-31 61-74 61-59 0-76-41-82-99-10-93 101-131 147-64 4 7 5 14 7 22l-32 3c-4-21-16-35-41-35" id="W"/><path d="M100-194c62-1 85 37 85 99 1 63-27 99-86 99S16-35 15-95c0-66 28-99 85-99zM99-20c44 1 53-31 53-75 0-43-8-75-51-75s-53 32-53 75 10 74 51 75" id="X"/><g id="c"><use transform="matrix(0.08641975308641976,0,0,0.08641975308641976,0,0)" xlink:href="#W"/><use transform="matrix(0.08641975308641976,0,0,0.08641975308641976,15.555555555555557,0)" xlink:href="#X"/><use transform="matrix(0.08641975308641976,0,0,0.08641975308641976,32.839506172839506,0)" xlink:href="#S"/><use transform="matrix(0.08641975308641976,0,0,0.08641975308641976,50.123456790123456,0)" xlink:href="#T"/><use transform="matrix(0.08641975308641976,0,0,0.08641975308641976,58.76543209876543,0)" xlink:href="#Q"/><use transform="matrix(0.08641975308641976,0,0,0.08641975308641976,69.04938271604938,0)" xlink:href="#X"/><use transform="matrix(0.08641975308641976,0,0,0.08641975308641976,86.33333333333333,0)" xlink:href="#U"/><use transform="matrix(0.08641975308641976,0,0,0.08641975308641976,93.16049382716048,0)" xlink:href="#U"/><use transform="matrix(0.08641975308641976,0,0,0.08641975308641976,99.98765432098766,0)" xlink:href="#R"/><use transform="matrix(0.08641975308641976,0,0,0.08641975308641976,117.27160493827162,0)" xlink:href="#Q"/></g><path fill="#af6161" d="M622-1349c296 4 497 117 497 404 0 282-193 424-485 431H353V0H162v-1349h460zm-15 684c195-3 320-88 320-277 0-184-129-255-328-254H353v531h254" id="Y"/><path fill="#af6161" d="M839-1102c70 0 148 7 206 17v167c-112-18-268-36-363 15-129 69-208 203-208 395V0H294c-10-367 32-789-52-1082h171c21 75 41 161 48 250h5c67-152 152-270 373-270" id="Z"/><path fill="#af6161" d="M615-1102c343 0 484 203 482 560-1 347-147 562-488 562-336 0-475-219-479-562-4-349 156-560 485-560zm-8 989c240 0 301-180 301-429 0-245-55-427-290-427-236 0-299 181-299 427 0 243 61 429 288 429" id="aa"/><path fill="#af6161" d="M682 16c-209 0-323-80-324-285v-671H190v-142h170l58-282h120v282h432v142H538v652c2 114 60 155 182 155 106 0 209-16 297-34v137C921-4 806 16 682 16" id="ab"/><path fill="#af6161" d="M631 20c-350 0-501-215-501-562 0-355 162-560 502-560 250 0 399 118 446 323l-192 14c-23-124-109-196-262-196-242 0-305 171-305 415 1 245 61 427 304 427 151 0 248-77 267-215l190 12C1039-107 883 20 631 20" id="ac"/><path fill="#af6161" d="M736-142h380V0H134v-142h422v-1200H267v-142h469v1342" id="ad"/><path fill="#af6161" d="M713 0H515L10-1349h201C345-955 498-579 615-168c116-411 269-787 402-1181h201" id="ae"/><path fill="#af6161" d="M617-1102c355 0 481 238 477 599H322c5 222 84 388 301 388 144 0 244-59 284-166l158 45C1002-72 854 20 623 20c-342 0-490-220-490-568 0-346 151-554 484-554zm291 461c-18-192-90-328-289-328-194 0-287 128-295 328h584" id="af"/><path fill="#af6161" d="M873-819c-18-114-119-146-250-146-163 0-245 50-245 151 0 151 170 148 294 185 182 54 388 94 388 320 0 240-189 325-439 329-245 4-410-69-454-268l159-31c24 133 136 168 295 165 144-2 270-31 270-171 0-164-195-160-331-202-167-52-350-87-350-299 0-218 173-315 413-313 220 2 373 77 412 260" id="ag"/><path fill="#af6161" d="M745-142h380V0H143v-142h422v-798H246v-142h499v940zM545-1292v-192h200v192H545" id="ah"/><path fill="#af6161" d="M706-1102c241 0 344 136 343 381V0H868v-695c1-168-57-273-220-268-190 6-283 138-283 336V0H185c-3-360 6-732-6-1082h170c4 54 7 126 8 185h3c63-121 164-204 346-205" id="ai"/><g id="d"><use transform="matrix(0.015190972222222224,0,0,0.015190972222222224,0,0)" xlink:href="#Y"/><use transform="matrix(0.015190972222222224,0,0,0.015190972222222224,18.669704861111114,0)" xlink:href="#Z"/><use transform="matrix(0.015190972222222224,0,0,0.015190972222222224,37.33940972222223,0)" xlink:href="#aa"/><use transform="matrix(0.015190972222222224,0,0,0.015190972222222224,56.00911458333334,0)" xlink:href="#ab"/><use transform="matrix(0.015190972222222224,0,0,0.015190972222222224,74.67881944444446,0)" xlink:href="#aa"/><use transform="matrix(0.015190972222222224,0,0,0.015190972222222224,93.34852430555557,0)" xlink:href="#ac"/><use transform="matrix(0.015190972222222224,0,0,0.015190972222222224,112.01822916666669,0)" xlink:href="#aa"/><use transform="matrix(0.015190972222222224,0,0,0.015190972222222224,130.6879340277778,0)" xlink:href="#ad"/><use transform="matrix(0.015190972222222224,0,0,0.015190972222222224,149.3576388888889,0)" xlink:href="#ae"/><use transform="matrix(0.015190972222222224,0,0,0.015190972222222224,168.02734375000003,0)" xlink:href="#af"/><use transform="matrix(0.015190972222222224,0,0,0.015190972222222224,186.69704861111114,0)" xlink:href="#Z"/><use transform="matrix(0.015190972222222224,0,0,0.015190972222222224,205.36675347222226,0)" xlink:href="#ag"/><use transform="matrix(0.015190972222222224,0,0,0.015190972222222224,224.03645833333337,0)" xlink:href="#ah"/><use transform="matrix(0.015190972222222224,0,0,0.015190972222222224,242.70616319444449,0)" xlink:href="#aa"/><use transform="matrix(0.015190972222222224,0,0,0.015190972222222224,261.3758680555556,0)" xlink:href="#ai"/></g><path fill="#af6161" d="M1034 0L896-382H333L196 0H0l510-1349h217L1228 0h-194zM847-531c-77-225-157-447-231-674-69 231-154 451-232 674h463" id="aj"/><path fill="#af6161" d="M528 20c-247 0-343-132-343-381v-721h180v686c-4 177 45 284 224 277 194-8 279-136 279-336v-627h181c3 360-6 732 6 1082H885c-4-54-7-126-8-185h-3C809-64 714 20 528 20" id="ak"/><path fill="#af6161" d="M473-1349c438-1 655 221 652 661C1122-268 945-8 532 0H162v-1349h311zm42 1193c308-4 416-205 418-532 2-330-131-509-459-505H353v1037h162" id="al"/><path fill="#af6161" d="M614-1226c-167 1-283 53-283 213 0 183 186 193 334 234 230 63 463 120 463 409 0 286-219 387-518 390C309 23 131-98 79-338l185-37c34 165 149 248 351 246 184-2 324-58 324-238 0-203-207-221-372-266-210-57-422-111-422-377 0-267 201-356 470-360 279-5 430 101 480 324l-188 33c-28-141-121-215-293-213" id="am"/><path fill="#af6161" d="M715 0H502L69-1082h202c94 253 197 500 285 758 19 57 36 126 52 183 96-335 234-626 350-941h201" id="an"/><g id="e"><use transform="matrix(0.015190972222222224,0,0,0.015190972222222224,0,0)" xlink:href="#aj"/><use transform="matrix(0.015190972222222224,0,0,0.015190972222222224,18.669704861111114,0)" xlink:href="#ak"/><use transform="matrix(0.015190972222222224,0,0,0.015190972222222224,37.33940972222223,0)" xlink:href="#ab"/><use transform="matrix(0.015190972222222224,0,0,0.015190972222222224,56.00911458333334,0)" xlink:href="#aa"/><use transform="matrix(0.015190972222222224,0,0,0.015190972222222224,74.67881944444446,0)" xlink:href="#al"/><use transform="matrix(0.015190972222222224,0,0,0.015190972222222224,93.34852430555557,0)" xlink:href="#af"/><use transform="matrix(0.015190972222222224,0,0,0.015190972222222224,112.01822916666669,0)" xlink:href="#ab"/><use transform="matrix(0.015190972222222224,0,0,0.015190972222222224,130.6879340277778,0)" xlink:href="#af"/><use transform="matrix(0.015190972222222224,0,0,0.015190972222222224,149.3576388888889,0)" xlink:href="#ac"/><use transform="matrix(0.015190972222222224,0,0,0.015190972222222224,168.02734375000003,0)" xlink:href="#ab"/><use transform="matrix(0.015190972222222224,0,0,0.015190972222222224,186.69704861111114,0)" xlink:href="#ah"/><use transform="matrix(0.015190972222222224,0,0,0.015190972222222224,205.36675347222226,0)" xlink:href="#aa"/><use transform="matrix(0.015190972222222224,0,0,0.015190972222222224,224.03645833333337,0)" xlink:href="#ai"/><use transform="matrix(0.015190972222222224,0,0,0.015190972222222224,242.70616319444449,0)" xlink:href="#am"/><use transform="matrix(0.015190972222222224,0,0,0.015190972222222224,261.3758680555556,0)" xlink:href="#af"/><use transform="matrix(0.015190972222222224,0,0,0.015190972222222224,280.04557291666674,0)" xlink:href="#Z"/><use transform="matrix(0.015190972222222224,0,0,0.015190972222222224,298.7152777777778,0)" xlink:href="#an"/><use transform="matrix(0.015190972222222224,0,0,0.015190972222222224,317.3849826388889,0)" xlink:href="#ah"/><use transform="matrix(0.015190972222222224,0,0,0.015190972222222224,336.0546875,0)" xlink:href="#ac"/><use transform="matrix(0.015190972222222224,0,0,0.015190972222222224,354.7243923611111,0)" xlink:href="#af"/></g><path fill="#af6161" d="M891-1484c-201 251-362 514-362 954 0 441 161 704 362 955H701C500 176 342-90 342-532c0-440 159-704 359-952h190" id="ao"/><path fill="#af6161" d="M168 279c222 39 310-114 368-290L66-1082h192c120 299 249 590 362 896 115-301 235-597 351-896h190L705 0c-65 164-130 320-275 396-67 36-177 35-262 18V279" id="ap"/><g id="f"><use transform="matrix(0.015190972222222224,0,0,0.015190972222222224,0,0)" xlink:href="#ao"/><use transform="matrix(0.015190972222222224,0,0,0.015190972222222224,18.669704861111114,0)" xlink:href="#af"/><use transform="matrix(0.015190972222222224,0,0,0.015190972222222224,37.33940972222223,0)" xlink:href="#an"/><use transform="matrix(0.015190972222222224,0,0,0.015190972222222224,56.00911458333334,0)" xlink:href="#af"/><use transform="matrix(0.015190972222222224,0,0,0.015190972222222224,74.67881944444446,0)" xlink:href="#Z"/><use transform="matrix(0.015190972222222224,0,0,0.015190972222222224,93.34852430555557,0)" xlink:href="#ap"/></g><path fill="#af6161" d="M148-1120c216-7 379-89 463-229h166v1204h353V0H157v-145h439v-1021c-79 124-254 184-448 194v-148" id="aq"/><path fill="#af6161" d="M1065-1013c47 164 49 500-1 665C999-130 875 20 611 20c-377 0-484-300-487-695-2-245 41-425 141-551 77-98 191-144 352-144 261 0 386 140 448 357zM741-155c199-92 203-504 159-785-26-168-96-284-283-284-281 0-308 256-311 549-2 181 18 324 80 428 46 77 115 118 227 120 47 0 90-10 128-28" id="ar"/><g id="g"><use transform="matrix(0.015190972222222224,0,0,0.015190972222222224,0,0)" xlink:href="#aq"/><use transform="matrix(0.015190972222222224,0,0,0.015190972222222224,18.669704861111114,0)" xlink:href="#ar"/></g><path fill="#af6161" d="M904-1102c199 0 220 177 220 381V0H956v-686c-3-114 0-215-60-264-70-33-125-4-158 71-26 56-39 140-39 252V0H531v-686c-3-114-1-215-61-264-78-41-136 24-157 84-24 69-39 159-39 259V0H105c-3-360 6-732-6-1082h149c6 50 3 123 8 175 36-100 83-195 216-195 135 0 166 79 196 196 42-105 93-196 236-196" id="as"/><path fill="#af6161" d="M528-1484c201 248 357 511 357 952 0 442-156 709-357 957H336C537 174 700-89 700-530c0-440-163-703-364-954h192" id="at"/><g id="h"><use transform="matrix(0.015190972222222224,0,0,0.015190972222222224,0,0)" xlink:href="#as"/><use transform="matrix(0.015190972222222224,0,0,0.015190972222222224,18.669704861111114,0)" xlink:href="#ah"/><use transform="matrix(0.015190972222222224,0,0,0.015190972222222224,37.33940972222223,0)" xlink:href="#ai"/><use transform="matrix(0.015190972222222224,0,0,0.015190972222222224,56.00911458333334,0)" xlink:href="#ag"/><use transform="matrix(0.015190972222222224,0,0,0.015190972222222224,74.67881944444446,0)" xlink:href="#at"/></g><path d="M30 0v-248h33v221h125V0H30" id="au"/><g id="i"><use transform="matrix(0.08641975308641976,0,0,0.08641975308641976,0,0)" xlink:href="#au"/><use transform="matrix(0.08641975308641976,0,0,0.08641975308641976,17.283950617283953,0)" xlink:href="#X"/><use transform="matrix(0.08641975308641976,0,0,0.08641975308641976,34.567901234567906,0)" xlink:href="#W"/><use transform="matrix(0.08641975308641976,0,0,0.08641975308641976,50.12345679012346,0)" xlink:href="#P"/><use transform="matrix(0.08641975308641976,0,0,0.08641975308641976,67.40740740740742,0)" xlink:href="#U"/></g><path d="M108 0H70L1-190h34L89-25l56-165h34" id="av"/><path d="M135-143c-3-34-86-38-87 0 15 53 115 12 119 90S17 21 10-45l28-5c4 36 97 45 98 0-10-56-113-15-118-90-4-57 82-63 122-42 12 7 21 19 24 35" id="aw"/><path d="M24-231v-30h32v30H24zM24 0v-190h32V0H24" id="ax"/><g id="j"><use transform="matrix(0.08641975308641976,0,0,0.08641975308641976,0,0)" xlink:href="#av"/><use transform="matrix(0.08641975308641976,0,0,0.08641975308641976,15.555555555555557,0)" xlink:href="#R"/><use transform="matrix(0.08641975308641976,0,0,0.08641975308641976,32.839506172839506,0)" xlink:href="#Q"/><use transform="matrix(0.08641975308641976,0,0,0.08641975308641976,43.123456790123456,0)" xlink:href="#aw"/><use transform="matrix(0.08641975308641976,0,0,0.08641975308641976,58.679012345679006,0)" xlink:href="#ax"/><use transform="matrix(0.08641975308641976,0,0,0.08641975308641976,65.50617283950618,0)" xlink:href="#X"/><use transform="matrix(0.08641975308641976,0,0,0.08641975308641976,82.79012345679013,0)" xlink:href="#S"/></g><path d="M115-194c55 1 70 41 70 98S169 2 115 4C84 4 66-9 55-30l1 105H24l-1-265h31l2 30c10-21 28-34 59-34zm-8 174c40 0 45-34 45-75s-6-73-45-74c-42 0-51 32-51 76 0 43 10 73 51 73" id="ay"/><g id="k"><use transform="matrix(0.08641975308641976,0,0,0.08641975308641976,0,0)" xlink:href="#ay"/><use transform="matrix(0.08641975308641976,0,0,0.08641975308641976,17.283950617283953,0)" xlink:href="#P"/><use transform="matrix(0.08641975308641976,0,0,0.08641975308641976,34.567901234567906,0)" xlink:href="#Q"/><use transform="matrix(0.08641975308641976,0,0,0.08641975308641976,44.851851851851855,0)" xlink:href="#R"/><use transform="matrix(0.08641975308641976,0,0,0.08641975308641976,62.13580246913581,0)" xlink:href="#S"/><use transform="matrix(0.08641975308641976,0,0,0.08641975308641976,79.41975308641976,0)" xlink:href="#T"/></g><g id="l"><use transform="matrix(0.08641975308641976,0,0,0.08641975308641976,0,0)" xlink:href="#W"/><use transform="matrix(0.08641975308641976,0,0,0.08641975308641976,15.555555555555557,0)" xlink:href="#X"/><use transform="matrix(0.08641975308641976,0,0,0.08641975308641976,32.839506172839506,0)" xlink:href="#S"/><use transform="matrix(0.08641975308641976,0,0,0.08641975308641976,50.123456790123456,0)" xlink:href="#T"/><use transform="matrix(0.08641975308641976,0,0,0.08641975308641976,58.76543209876543,0)" xlink:href="#Q"/><use transform="matrix(0.08641975308641976,0,0,0.08641975308641976,69.04938271604938,0)" xlink:href="#X"/><use transform="matrix(0.08641975308641976,0,0,0.08641975308641976,86.33333333333333,0)" xlink:href="#U"/><use transform="matrix(0.08641975308641976,0,0,0.08641975308641976,93.16049382716048,0)" xlink:href="#U"/><use transform="matrix(0.08641975308641976,0,0,0.08641975308641976,99.98765432098766,0)" xlink:href="#R"/><use transform="matrix(0.08641975308641976,0,0,0.08641975308641976,117.27160493827162,0)" xlink:href="#Q"/></g><g id="m"><use transform="matrix(0.08641975308641976,0,0,0.08641975308641976,0,0)" xlink:href="#W"/><use transform="matrix(0.08641975308641976,0,0,0.08641975308641976,15.555555555555557,0)" xlink:href="#U"/><use transform="matrix(0.08641975308641976,0,0,0.08641975308641976,22.38271604938272,0)" xlink:href="#ax"/><use transform="matrix(0.08641975308641976,0,0,0.08641975308641976,29.20987654320988,0)" xlink:href="#R"/><use transform="matrix(0.08641975308641976,0,0,0.08641975308641976,46.49382716049383,0)" xlink:href="#S"/><use transform="matrix(0.08641975308641976,0,0,0.08641975308641976,63.777777777777786,0)" xlink:href="#T"/></g><path d="M115-194c53 0 69 39 70 98 0 66-23 100-70 100C84 3 66-7 56-30L54 0H23l1-261h32v101c10-23 28-34 59-34zm-8 174c40 0 45-34 45-75 0-40-5-75-45-74-42 0-51 32-51 76 0 43 10 73 51 73" id="az"/><path d="M179-190L93 31C79 59 56 82 12 73V49c39 6 53-20 64-50L1-190h34L92-34l54-156h33" id="aA"/><g id="n"><use transform="matrix(0.08641975308641976,0,0,0.08641975308641976,0,0)" xlink:href="#aw"/><use transform="matrix(0.08641975308641976,0,0,0.08641975308641976,15.555555555555557,0)" xlink:href="#T"/><use transform="matrix(0.08641975308641976,0,0,0.08641975308641976,24.19753086419753,0)" xlink:href="#P"/><use transform="matrix(0.08641975308641976,0,0,0.08641975308641976,41.48148148148148,0)" xlink:href="#S"/><use transform="matrix(0.08641975308641976,0,0,0.08641975308641976,58.76543209876543,0)" xlink:href="#V"/><use transform="matrix(0.08641975308641976,0,0,0.08641975308641976,76.04938271604938,0)" xlink:href="#az"/><use transform="matrix(0.08641975308641976,0,0,0.08641975308641976,93.33333333333333,0)" xlink:href="#aA"/></g><path d="M27 0v-27h64v-190l-56 39v-29l58-41h29v221h61V0H27" id="aB"/><use transform="matrix(0.08641975308641976,0,0,0.08641975308641976,0,0)" xlink:href="#aB" id="o"/><path d="M101-251c82-7 93 87 43 132L82-64C71-53 59-42 53-27h129V0H18c2-99 128-94 128-182 0-28-16-43-45-43s-46 15-49 41l-32-3c6-41 34-60 81-64" id="aC"/><use transform="matrix(0.08641975308641976,0,0,0.08641975308641976,0,0)" xlink:href="#aC" id="q"/><path d="M212-179c-10-28-35-45-73-45-59 0-87 40-87 99 0 60 29 101 89 101 43 0 62-24 78-52l27 14C228-24 195 4 139 4 59 4 22-46 18-125c-6-104 99-153 187-111 19 9 31 26 39 46" id="aD"/><path d="M106-169C34-169 62-67 57 0H25v-261h32l-1 103c12-21 28-36 61-36 89 0 53 116 60 194h-32v-121c2-32-8-49-39-48" id="aE"/><g id="r"><use transform="matrix(0.08641975308641976,0,0,0.08641975308641976,0,0)" xlink:href="#aD"/><use transform="matrix(0.08641975308641976,0,0,0.08641975308641976,22.38271604938272,0)" xlink:href="#aE"/><use transform="matrix(0.08641975308641976,0,0,0.08641975308641976,39.66666666666667,0)" xlink:href="#ax"/><use transform="matrix(0.08641975308641976,0,0,0.08641975308641976,46.49382716049383,0)" xlink:href="#U"/><use transform="matrix(0.08641975308641976,0,0,0.08641975308641976,53.320987654321,0)" xlink:href="#V"/></g><g id="s"><use transform="matrix(0.08641975308641976,0,0,0.08641975308641976,0,0)" xlink:href="#W"/><use transform="matrix(0.08641975308641976,0,0,0.08641975308641976,15.555555555555557,0)" xlink:href="#X"/><use transform="matrix(0.08641975308641976,0,0,0.08641975308641976,32.839506172839506,0)" xlink:href="#S"/><use transform="matrix(0.08641975308641976,0,0,0.08641975308641976,50.123456790123456,0)" xlink:href="#T"/><use transform="matrix(0.08641975308641976,0,0,0.08641975308641976,58.76543209876543,0)" xlink:href="#Q"/><use transform="matrix(0.08641975308641976,0,0,0.08641975308641976,69.04938271604938,0)" xlink:href="#X"/><use transform="matrix(0.08641975308641976,0,0,0.08641975308641976,86.33333333333333,0)" xlink:href="#U"/><use transform="matrix(0.08641975308641976,0,0,0.08641975308641976,93.16049382716048,0)" xlink:href="#U"/><use transform="matrix(0.08641975308641976,0,0,0.08641975308641976,99.98765432098766,0)" xlink:href="#R"/><use transform="matrix(0.08641975308641976,0,0,0.08641975308641976,117.27160493827162,0)" xlink:href="#Q"/></g><path d="M87 75C49 33 22-17 22-94c0-76 28-126 65-167h31c-38 41-64 92-64 168S80 34 118 75H87" id="aF"/><path d="M177-190C167-65 218 103 67 71c-23-6-38-20-44-43l32-5c15 47 100 32 89-28v-30C133-14 115 1 83 1 29 1 15-40 15-95c0-56 16-97 71-98 29-1 48 16 59 35 1-10 0-23 2-32h30zM94-22c36 0 50-32 50-73 0-42-14-75-50-75-39 0-46 34-46 75s6 73 46 73" id="aG"/><g id="t"><use transform="matrix(0.08641975308641976,0,0,0.08641975308641976,0,0)" xlink:href="#aF"/><use transform="matrix(0.08641975308641976,0,0,0.08641975308641976,10.283950617283951,0)" xlink:href="#Q"/><use transform="matrix(0.08641975308641976,0,0,0.08641975308641976,20.567901234567902,0)" xlink:href="#R"/><use transform="matrix(0.08641975308641976,0,0,0.08641975308641976,37.851851851851855,0)" xlink:href="#aG"/><use transform="matrix(0.08641975308641976,0,0,0.08641975308641976,55.13580246913581,0)" xlink:href="#ax"/><use transform="matrix(0.08641975308641976,0,0,0.08641975308641976,61.962962962962976,0)" xlink:href="#X"/><use transform="matrix(0.08641975308641976,0,0,0.08641975308641976,79.24691358024693,0)" xlink:href="#S"/></g><use transform="matrix(0.08641975308641976,0,0,0.08641975308641976,0,0)" xlink:href="#aB" id="u"/><path d="M16-82v-28h88v28H16" id="aH"/><use transform="matrix(0.08641975308641976,0,0,0.08641975308641976,0,0)" xlink:href="#aH" id="v"/><path d="M84 4C-5 8 30-112 23-190h32v120c0 31 7 50 39 49 72-2 45-101 50-169h31l1 190h-30c-1-10 1-25-2-33-11 22-28 36-60 37" id="aI"/><g id="w"><use transform="matrix(0.08641975308641976,0,0,0.08641975308641976,0,0)" xlink:href="#W"/><use transform="matrix(0.08641975308641976,0,0,0.08641975308641976,15.555555555555557,0)" xlink:href="#U"/><use transform="matrix(0.08641975308641976,0,0,0.08641975308641976,22.38271604938272,0)" xlink:href="#aI"/><use transform="matrix(0.08641975308641976,0,0,0.08641975308641976,39.66666666666667,0)" xlink:href="#aw"/><use transform="matrix(0.08641975308641976,0,0,0.08641975308641976,55.22222222222223,0)" xlink:href="#T"/><use transform="matrix(0.08641975308641976,0,0,0.08641975308641976,63.8641975308642,0)" xlink:href="#R"/><use transform="matrix(0.08641975308641976,0,0,0.08641975308641976,81.14814814814815,0)" xlink:href="#Q"/></g><path d="M101-251c68 0 85 55 85 127S166 4 100 4C33 4 14-52 14-124c0-73 17-127 87-127zm-1 229c47 0 54-49 54-102s-4-102-53-102c-51 0-55 48-55 102 0 53 5 102 54 102" id="aJ"/><path d="M33-261c38 41 65 92 65 168S71 34 33 75H2C39 34 66-17 66-93S39-220 2-261h31" id="aK"/><g id="x"><use transform="matrix(0.08641975308641976,0,0,0.08641975308641976,0,0)" xlink:href="#av"/><use transform="matrix(0.08641975308641976,0,0,0.08641975308641976,15.555555555555557,0)" xlink:href="#R"/><use transform="matrix(0.08641975308641976,0,0,0.08641975308641976,32.839506172839506,0)" xlink:href="#S"/><use transform="matrix(0.08641975308641976,0,0,0.08641975308641976,50.123456790123456,0)" xlink:href="#ax"/><use transform="matrix(0.08641975308641976,0,0,0.08641975308641976,56.95061728395062,0)" xlink:href="#W"/><use transform="matrix(0.08641975308641976,0,0,0.08641975308641976,72.50617283950618,0)" xlink:href="#R"/><use transform="matrix(0.08641975308641976,0,0,0.08641975308641976,89.79012345679013,0)" xlink:href="#aJ"/><use transform="matrix(0.08641975308641976,0,0,0.08641975308641976,107.07407407407409,0)" xlink:href="#aK"/></g><g id="y"><use transform="matrix(0.08641975308641976,0,0,0.08641975308641976,0,0)" xlink:href="#W"/><use transform="matrix(0.08641975308641976,0,0,0.08641975308641976,15.555555555555557,0)" xlink:href="#aE"/><use transform="matrix(0.08641975308641976,0,0,0.08641975308641976,32.839506172839506,0)" xlink:href="#ax"/><use transform="matrix(0.08641975308641976,0,0,0.08641975308641976,39.66666666666667,0)" xlink:href="#U"/><use transform="matrix(0.08641975308641976,0,0,0.08641975308641976,46.49382716049383,0)" xlink:href="#V"/></g><g id="z"><use transform="matrix(0.08641975308641976,0,0,0.08641975308641976,0,0)" xlink:href="#W"/><use transform="matrix(0.08641975308641976,0,0,0.08641975308641976,15.555555555555557,0)" xlink:href="#X"/><use transform="matrix(0.08641975308641976,0,0,0.08641975308641976,32.839506172839506,0)" xlink:href="#S"/><use transform="matrix(0.08641975308641976,0,0,0.08641975308641976,50.123456790123456,0)" xlink:href="#T"/><use transform="matrix(0.08641975308641976,0,0,0.08641975308641976,58.76543209876543,0)" xlink:href="#Q"/><use transform="matrix(0.08641975308641976,0,0,0.08641975308641976,69.04938271604938,0)" xlink:href="#X"/><use transform="matrix(0.08641975308641976,0,0,0.08641975308641976,86.33333333333333,0)" xlink:href="#U"/><use transform="matrix(0.08641975308641976,0,0,0.08641975308641976,93.16049382716048,0)" xlink:href="#U"/><use transform="matrix(0.08641975308641976,0,0,0.08641975308641976,99.98765432098766,0)" xlink:href="#R"/><use transform="matrix(0.08641975308641976,0,0,0.08641975308641976,117.27160493827162,0)" xlink:href="#Q"/></g><g id="A"><use transform="matrix(0.08641975308641976,0,0,0.08641975308641976,0,0)" xlink:href="#aF"/><use transform="matrix(0.08641975308641976,0,0,0.08641975308641976,10.283950617283951,0)" xlink:href="#Q"/><use transform="matrix(0.08641975308641976,0,0,0.08641975308641976,20.567901234567902,0)" xlink:href="#R"/><use transform="matrix(0.08641975308641976,0,0,0.08641975308641976,37.851851851851855,0)" xlink:href="#aG"/><use transform="matrix(0.08641975308641976,0,0,0.08641975308641976,55.13580246913581,0)" xlink:href="#ax"/><use transform="matrix(0.08641975308641976,0,0,0.08641975308641976,61.962962962962976,0)" xlink:href="#X"/><use transform="matrix(0.08641975308641976,0,0,0.08641975308641976,79.24691358024693,0)" xlink:href="#S"/></g><use transform="matrix(0.08641975308641976,0,0,0.08641975308641976,0,0)" xlink:href="#aC" id="B"/><g id="C"><use transform="matrix(0.08641975308641976,0,0,0.08641975308641976,0,0)" xlink:href="#aD"/><use transform="matrix(0.08641975308641976,0,0,0.08641975308641976,22.38271604938272,0)" xlink:href="#aE"/><use transform="matrix(0.08641975308641976,0,0,0.08641975308641976,39.66666666666667,0)" xlink:href="#ax"/><use transform="matrix(0.08641975308641976,0,0,0.08641975308641976,46.49382716049383,0)" xlink:href="#U"/><use transform="matrix(0.08641975308641976,0,0,0.08641975308641976,53.320987654321,0)" xlink:href="#V"/></g><use transform="matrix(0.08641975308641976,0,0,0.08641975308641976,0,0)" xlink:href="#aB" id="D"/><path d="M4 7l51-268h42L46 7H4" id="aL"/><path d="M195-6C206 82 75 100 31 46c-4-6-6-13-8-21l49-6c3 16 16 24 34 25 40 0 42-37 40-79-11 22-30 35-61 35-53 0-70-43-70-97 0-56 18-96 73-97 30 0 46 14 59 34l2-30h47zm-90-29c32 0 41-27 41-63 0-35-9-62-40-62-32 0-39 29-40 63 0 36 9 62 39 62" id="aM"/><path d="M185-48c-13 30-37 53-82 52C43 2 14-33 14-96s30-98 90-98c62 0 83 45 84 108H66c0 31 8 55 39 56 18 0 30-7 34-22zm-45-69c5-46-57-63-70-21-2 6-4 13-4 21h74" id="aN"/><path d="M115-3C79 11 28 4 28-45v-112H4v-33h27l15-45h31v45h36v33H77v99c-1 23 16 31 38 25v30" id="aO"/><path d="M-4 44V30h207v14H-4" id="aP"/><path d="M133-34C117-15 103 5 69 4 32 3 11-16 11-54c-1-60 55-63 116-61 1-26-3-47-28-47-18 1-26 9-28 27l-52-2c7-38 36-58 82-57s74 22 75 68l1 82c-1 14 12 18 25 15v27c-30 8-71 5-69-32zm-48 3c29 0 43-24 42-57-32 0-66-3-65 30 0 17 8 27 23 27" id="aQ"/><path d="M88-194c31-1 46 15 58 34l-1-101h50l1 261h-48c-2-10 0-23-3-31C134-8 116 4 84 4 32 4 16-41 15-95c0-56 19-97 73-99zm17 164c33 0 40-30 41-66 1-37-9-64-41-64s-38 30-39 65c0 43 13 65 39 65" id="aR"/><path d="M220-157c-53 9-28 100-34 157h-49v-107c1-27-5-49-29-50C55-147 81-57 75 0H25l-1-190h47c2 12-1 28 3 38 10-53 101-56 108 0 13-22 24-43 59-42 82 1 51 116 57 194h-49v-107c-1-25-5-48-29-50" id="aS"/><path d="M25-224v-37h50v37H25zM25 0v-190h50V0H25" id="aT"/><path d="M135-194c87-1 58 113 63 194h-50c-7-57 23-157-34-157-59 0-34 97-39 157H25l-1-190h47c2 12-1 28 3 38 12-26 28-41 61-42" id="aU"/><path d="M110-194c64 0 96 36 96 99 0 64-35 99-97 99-61 0-95-36-95-99 0-62 34-99 96-99zm-1 164c35 0 45-28 45-65 0-40-10-65-43-65-34 0-45 26-45 65 0 36 10 65 43 65" id="aV"/><path d="M135-194c53 0 70 44 70 98 0 56-19 98-73 100-31 1-45-17-59-34 3 33 2 69 2 105H25l-1-265h48c2 10 0 23 3 31 11-24 29-35 60-35zM114-30c33 0 39-31 40-66 0-38-9-64-40-64-56 0-55 130 0 130" id="aW"/><path d="M135-150c-39-12-60 13-60 57V0H25l-1-190h47c2 13-1 29 3 40 6-28 27-53 61-41v41" id="aX"/><path d="M128 0H69L1-190h53L99-40l48-150h52" id="aY"/><path d="M137-138c1-29-70-34-71-4 15 46 118 7 119 86 1 83-164 76-172 9l43-7c4 19 20 25 44 25 33 8 57-30 24-41C81-84 22-81 20-136c-2-80 154-74 161-7" id="aZ"/><path d="M121-226c-27-7-43 5-38 36h38v33H83V0H34v-157H6v-33h28c-9-59 32-81 87-68v32" id="ba"/><path d="M190-63c-7 42-38 67-86 67-59 0-84-38-90-98-12-110 154-137 174-36l-49 2c-2-19-15-32-35-32-30 0-35 28-38 64-6 74 65 87 74 30" id="bb"/><path d="M25 0v-261h50V0H25" id="bc"/><g id="E"><use transform="matrix(0.08641975308641976,0,0,0.08641975308641976,0,0)" xlink:href="#aL"/><use transform="matrix(0.08641975308641976,0,0,0.08641975308641976,8.641975308641976,0)" xlink:href="#aM"/><use transform="matrix(0.08641975308641976,0,0,0.08641975308641976,27.567901234567906,0)" xlink:href="#aN"/><use transform="matrix(0.08641975308641976,0,0,0.08641975308641976,44.85185185185187,0)" xlink:href="#aO"/><use transform="matrix(0.08641975308641976,0,0,0.08641975308641976,55.13580246913581,0)" xlink:href="#aP"/><use transform="matrix(0.08641975308641976,0,0,0.08641975308641976,72.41975308641976,0)" xlink:href="#aQ"/><use transform="matrix(0.08641975308641976,0,0,0.08641975308641976,89.70370370370371,0)" xlink:href="#aR"/><use transform="matrix(0.08641975308641976,0,0,0.08641975308641976,108.62962962962965,0)" xlink:href="#aS"/><use transform="matrix(0.08641975308641976,0,0,0.08641975308641976,136.28395061728395,0)" xlink:href="#aT"/><use transform="matrix(0.08641975308641976,0,0,0.08641975308641976,144.92592592592592,0)" xlink:href="#aU"/><use transform="matrix(0.08641975308641976,0,0,0.08641975308641976,163.85185185185185,0)" xlink:href="#aP"/><use transform="matrix(0.08641975308641976,0,0,0.08641975308641976,181.13580246913577,0)" xlink:href="#aV"/><use transform="matrix(0.08641975308641976,0,0,0.08641975308641976,200.06172839506172,0)" xlink:href="#aW"/><use transform="matrix(0.08641975308641976,0,0,0.08641975308641976,218.98765432098764,0)" xlink:href="#aN"/><use transform="matrix(0.08641975308641976,0,0,0.08641975308641976,236.2716049382716,0)" xlink:href="#aX"/><use transform="matrix(0.08641975308641976,0,0,0.08641975308641976,248.37037037037035,0)" xlink:href="#aQ"/><use transform="matrix(0.08641975308641976,0,0,0.08641975308641976,265.65432098765433,0)" xlink:href="#aO"/><use transform="matrix(0.08641975308641976,0,0,0.08641975308641976,275.9382716049383,0)" xlink:href="#aT"/><use transform="matrix(0.08641975308641976,0,0,0.08641975308641976,284.58024691358025,0)" xlink:href="#aV"/><use transform="matrix(0.08641975308641976,0,0,0.08641975308641976,303.5061728395062,0)" xlink:href="#aU"/><use transform="matrix(0.08641975308641976,0,0,0.08641975308641976,322.4320987654321,0)" xlink:href="#aP"/><use transform="matrix(0.08641975308641976,0,0,0.08641975308641976,339.71604938271605,0)" xlink:href="#aY"/><use transform="matrix(0.08641975308641976,0,0,0.08641975308641976,357.00000000000006,0)" xlink:href="#aN"/><use transform="matrix(0.08641975308641976,0,0,0.08641975308641976,374.2839506172839,0)" xlink:href="#aX"/><use transform="matrix(0.08641975308641976,0,0,0.08641975308641976,386.38271604938274,0)" xlink:href="#aZ"/><use transform="matrix(0.08641975308641976,0,0,0.08641975308641976,403.6666666666667,0)" xlink:href="#aT"/><use transform="matrix(0.08641975308641976,0,0,0.08641975308641976,412.30864197530866,0)" xlink:href="#aV"/><use transform="matrix(0.08641975308641976,0,0,0.08641975308641976,431.23456790123464,0)" xlink:href="#aU"/><use transform="matrix(0.08641975308641976,0,0,0.08641975308641976,450.16049382716056,0)" xlink:href="#aP"/><use transform="matrix(0.08641975308641976,0,0,0.08641975308641976,467.4444444444445,0)" xlink:href="#ba"/><use transform="matrix(0.08641975308641976,0,0,0.08641975308641976,477.72839506172846,0)" xlink:href="#aX"/><use transform="matrix(0.08641975308641976,0,0,0.08641975308641976,489.8271604938272,0)" xlink:href="#aV"/><use transform="matrix(0.08641975308641976,0,0,0.08641975308641976,508.7530864197531,0)" xlink:href="#aS"/><use transform="matrix(0.08641975308641976,0,0,0.08641975308641976,536.4074074074074,0)" xlink:href="#aP"/><use transform="matrix(0.08641975308641976,0,0,0.08641975308641976,553.6913580246913,0)" xlink:href="#bb"/><use transform="matrix(0.08641975308641976,0,0,0.08641975308641976,570.9753086419753,0)" xlink:href="#aV"/><use transform="matrix(0.08641975308641976,0,0,0.08641975308641976,589.9012345679013,0)" xlink:href="#aU"/><use transform="matrix(0.08641975308641976,0,0,0.08641975308641976,608.8271604938273,0)" xlink:href="#aO"/><use transform="matrix(0.08641975308641976,0,0,0.08641975308641976,619.1111111111112,0)" xlink:href="#aX"/><use transform="matrix(0.08641975308641976,0,0,0.08641975308641976,631.2098765432099,0)" xlink:href="#aV"/><use transform="matrix(0.08641975308641976,0,0,0.08641975308641976,650.1358024691359,0)" xlink:href="#bc"/><use transform="matrix(0.08641975308641976,0,0,0.08641975308641976,658.7777777777779,0)" xlink:href="#bc"/><use transform="matrix(0.08641975308641976,0,0,0.08641975308641976,667.41975308642,0)" xlink:href="#aN"/><use transform="matrix(0.08641975308641976,0,0,0.08641975308641976,684.7037037037039,0)" xlink:href="#aX"/><use transform="matrix(0.08641975308641976,0,0,0.08641975308641976,696.8024691358027,0)" xlink:href="#aZ"/></g><g id="F"><use transform="matrix(0.08641975308641976,0,0,0.08641975308641976,0,0)" xlink:href="#aL"/><use transform="matrix(0.08641975308641976,0,0,0.08641975308641976,8.641975308641976,0)" xlink:href="#aM"/><use transform="matrix(0.08641975308641976,0,0,0.08641975308641976,27.567901234567906,0)" xlink:href="#aN"/><use transform="matrix(0.08641975308641976,0,0,0.08641975308641976,44.85185185185187,0)" xlink:href="#aO"/><use transform="matrix(0.08641975308641976,0,0,0.08641975308641976,55.13580246913581,0)" xlink:href="#aP"/><use transform="matrix(0.08641975308641976,0,0,0.08641975308641976,72.41975308641976,0)" xlink:href="#bc"/><use transform="matrix(0.08641975308641976,0,0,0.08641975308641976,81.06172839506173,0)" xlink:href="#aV"/><use transform="matrix(0.08641975308641976,0,0,0.08641975308641976,99.98765432098766,0)" xlink:href="#bb"/><use transform="matrix(0.08641975308641976,0,0,0.08641975308641976,117.27160493827162,0)" xlink:href="#aQ"/><use transform="matrix(0.08641975308641976,0,0,0.08641975308641976,134.55555555555557,0)" xlink:href="#bc"/><use transform="matrix(0.08641975308641976,0,0,0.08641975308641976,143.19753086419755,0)" xlink:href="#aP"/><use transform="matrix(0.08641975308641976,0,0,0.08641975308641976,160.4814814814815,0)" xlink:href="#aY"/><use transform="matrix(0.08641975308641976,0,0,0.08641975308641976,177.76543209876544,0)" xlink:href="#aN"/><use transform="matrix(0.08641975308641976,0,0,0.08641975308641976,195.0493827160494,0)" xlink:href="#aX"/><use transform="matrix(0.08641975308641976,0,0,0.08641975308641976,207.14814814814818,0)" xlink:href="#aZ"/><use transform="matrix(0.08641975308641976,0,0,0.08641975308641976,224.43209876543207,0)" xlink:href="#aT"/><use transform="matrix(0.08641975308641976,0,0,0.08641975308641976,233.07407407407405,0)" xlink:href="#aV"/><use transform="matrix(0.08641975308641976,0,0,0.08641975308641976,252,0)" xlink:href="#aU"/></g><path fill="#af6161" d="M709-1193V0H519v-1193H76v-156h1076v156H709" id="bd"/><path fill="#af6161" d="M1000-272c3 95 12 159 101 161 21 0 41-3 59-7V-6c-44 10-86 16-139 16-141 2-191-84-197-217h-6C748-76 648 20 446 20c-207 0-318-120-318-322 0-266 194-348 454-354l236-4c12-191-40-305-222-305-140 0-220 47-232 172l-188-17c33-204 181-292 423-292 255 0 401 118 401 364v466zm-683-27c0 109 63 184 175 182 166-3 259-96 306-217 24-65 20-120 20-200-232 7-501-28-501 235" id="be"/><path fill="#af6161" d="M914 0L548-499l-132 98V0H236v-1484h180v927l475-525h211L663-617 1125 0H914" id="bf"/><g id="G"><use transform="matrix(0.015190972222222224,0,0,0.015190972222222224,0,0)" xlink:href="#aj"/><use transform="matrix(0.015190972222222224,0,0,0.015190972222222224,18.669704861111114,0)" xlink:href="#ak"/><use transform="matrix(0.015190972222222224,0,0,0.015190972222222224,37.33940972222223,0)" xlink:href="#ab"/><use transform="matrix(0.015190972222222224,0,0,0.015190972222222224,56.00911458333334,0)" xlink:href="#aa"/><use transform="matrix(0.015190972222222224,0,0,0.015190972222222224,74.67881944444446,0)" xlink:href="#al"/><use transform="matrix(0.015190972222222224,0,0,0.015190972222222224,93.34852430555557,0)" xlink:href="#af"/><use transform="matrix(0.015190972222222224,0,0,0.015190972222222224,112.01822916666669,0)" xlink:href="#ab"/><use transform="matrix(0.015190972222222224,0,0,0.015190972222222224,130.6879340277778,0)" xlink:href="#af"/><use transform="matrix(0.015190972222222224,0,0,0.015190972222222224,149.3576388888889,0)" xlink:href="#ac"/><use transform="matrix(0.015190972222222224,0,0,0.015190972222222224,168.02734375000003,0)" xlink:href="#ab"/><use transform="matrix(0.015190972222222224,0,0,0.015190972222222224,186.69704861111114,0)" xlink:href="#ah"/><use transform="matrix(0.015190972222222224,0,0,0.015190972222222224,205.36675347222226,0)" xlink:href="#aa"/><use transform="matrix(0.015190972222222224,0,0,0.015190972222222224,224.03645833333337,0)" xlink:href="#ai"/><use transform="matrix(0.015190972222222224,0,0,0.015190972222222224,242.70616319444449,0)" xlink:href="#bd"/><use transform="matrix(0.015190972222222224,0,0,0.015190972222222224,261.3758680555556,0)" xlink:href="#be"/><use transform="matrix(0.015190972222222224,0,0,0.015190972222222224,280.04557291666674,0)" xlink:href="#ag"/><use transform="matrix(0.015190972222222224,0,0,0.015190972222222224,298.7152777777778,0)" xlink:href="#bf"/></g><path d="M185-189c-5-48-123-54-124 2 14 75 158 14 163 119 3 78-121 87-175 55-17-10-28-26-33-46l33-7c5 56 141 63 141-1 0-78-155-14-162-118-5-82 145-84 179-34 5 7 8 16 11 25" id="bg"/><path d="M210-169c-67 3-38 105-44 169h-31v-121c0-29-5-50-35-48C34-165 62-65 56 0H25l-1-190h30c1 10-1 24 2 32 10-44 99-50 107 0 11-21 27-35 58-36 85-2 47 119 55 194h-31v-121c0-29-5-49-35-48" id="bh"/><g id="H"><use transform="matrix(0.08641975308641976,0,0,0.08641975308641976,0,0)" xlink:href="#bg"/><use transform="matrix(0.08641975308641976,0,0,0.08641975308641976,20.740740740740744,0)" xlink:href="#bh"/><use transform="matrix(0.08641975308641976,0,0,0.08641975308641976,46.580246913580254,0)" xlink:href="#P"/><use transform="matrix(0.08641975308641976,0,0,0.08641975308641976,63.8641975308642,0)" xlink:href="#U"/><use transform="matrix(0.08641975308641976,0,0,0.08641975308641976,70.69135802469137,0)" xlink:href="#U"/><use transform="matrix(0.08641975308641976,0,0,0.08641975308641976,77.51851851851853,0)" xlink:href="#R"/><use transform="matrix(0.08641975308641976,0,0,0.08641975308641976,94.80246913580248,0)" xlink:href="#aw"/><use transform="matrix(0.08641975308641976,0,0,0.08641975308641976,110.35802469135804,0)" xlink:href="#T"/></g><path d="M137 0h-34L2-248h35l83 218 83-218h36" id="bi"/><g id="I"><use transform="matrix(0.08641975308641976,0,0,0.08641975308641976,0,0)" xlink:href="#bi"/><use transform="matrix(0.08641975308641976,0,0,0.08641975308641976,19.01234567901235,0)" xlink:href="#R"/><use transform="matrix(0.08641975308641976,0,0,0.08641975308641976,36.296296296296305,0)" xlink:href="#Q"/><use transform="matrix(0.08641975308641976,0,0,0.08641975308641976,46.580246913580254,0)" xlink:href="#aw"/><use transform="matrix(0.08641975308641976,0,0,0.08641975308641976,62.13580246913581,0)" xlink:href="#ax"/><use transform="matrix(0.08641975308641976,0,0,0.08641975308641976,68.96296296296298,0)" xlink:href="#X"/><use transform="matrix(0.08641975308641976,0,0,0.08641975308641976,86.24691358024693,0)" xlink:href="#S"/></g><path d="M127-220V0H93v-220H8v-28h204v28h-85" id="bj"/><path d="M240 0l2-218c-23 76-54 145-80 218h-23L58-218 59 0H30v-248h44l77 211c21-75 51-140 76-211h43V0h-30" id="bk"/><g id="J"><use transform="matrix(0.08641975308641976,0,0,0.08641975308641976,0,0)" xlink:href="#aD"/><use transform="matrix(0.08641975308641976,0,0,0.08641975308641976,22.38271604938272,0)" xlink:href="#X"/><use transform="matrix(0.08641975308641976,0,0,0.08641975308641976,39.66666666666667,0)" xlink:href="#S"/><use transform="matrix(0.08641975308641976,0,0,0.08641975308641976,56.95061728395062,0)" xlink:href="#T"/><use transform="matrix(0.08641975308641976,0,0,0.08641975308641976,65.5925925925926,0)" xlink:href="#Q"/><use transform="matrix(0.08641975308641976,0,0,0.08641975308641976,75.87654320987654,0)" xlink:href="#X"/><use transform="matrix(0.08641975308641976,0,0,0.08641975308641976,93.16049382716048,0)" xlink:href="#U"/><use transform="matrix(0.08641975308641976,0,0,0.08641975308641976,99.98765432098766,0)" xlink:href="#U"/><use transform="matrix(0.08641975308641976,0,0,0.08641975308641976,106.81481481481482,0)" xlink:href="#R"/><use transform="matrix(0.08641975308641976,0,0,0.08641975308641976,124.09876543209877,0)" xlink:href="#Q"/><use transform="matrix(0.08641975308641976,0,0,0.08641975308641976,134.38271604938274,0)" xlink:href="#bj"/><use transform="matrix(0.08641975308641976,0,0,0.08641975308641976,149.85185185185188,0)" xlink:href="#X"/><use transform="matrix(0.08641975308641976,0,0,0.08641975308641976,167.13580246913583,0)" xlink:href="#bi"/><use transform="matrix(0.08641975308641976,0,0,0.08641975308641976,186.14814814814818,0)" xlink:href="#R"/><use transform="matrix(0.08641975308641976,0,0,0.08641975308641976,203.43209876543213,0)" xlink:href="#Q"/><use transform="matrix(0.08641975308641976,0,0,0.08641975308641976,213.71604938271602,0)" xlink:href="#aw"/><use transform="matrix(0.08641975308641976,0,0,0.08641975308641976,229.2716049382716,0)" xlink:href="#ax"/><use transform="matrix(0.08641975308641976,0,0,0.08641975308641976,236.09876543209876,0)" xlink:href="#X"/><use transform="matrix(0.08641975308641976,0,0,0.08641975308641976,253.3827160493827,0)" xlink:href="#S"/><use transform="matrix(0.08641975308641976,0,0,0.08641975308641976,270.6666666666667,0)" xlink:href="#bk"/><use transform="matrix(0.08641975308641976,0,0,0.08641975308641976,296.5061728395062,0)" xlink:href="#P"/><use transform="matrix(0.08641975308641976,0,0,0.08641975308641976,313.7901234567901,0)" xlink:href="#ay"/></g><path d="M145-31C134-9 116 4 85 4 32 4 16-35 15-94c0-59 17-99 70-100 32-1 48 14 60 33 0-11-1-24 2-32h30l-1 268h-32zM93-21c41 0 51-33 51-76s-8-73-50-73c-40 0-46 35-46 75s5 74 45 74" id="bl"/><g id="K"><use transform="matrix(0.0925925925925926,0,0,0.0925925925925926,0,0)" xlink:href="#Q"/><use transform="matrix(0.0925925925925926,0,0,0.0925925925925926,11.018518518518519,0)" xlink:href="#R"/><use transform="matrix(0.0925925925925926,0,0,0.0925925925925926,29.537037037037038,0)" xlink:href="#bl"/><use transform="matrix(0.0925925925925926,0,0,0.0925925925925926,48.05555555555556,0)" xlink:href="#aI"/><use transform="matrix(0.0925925925925926,0,0,0.0925925925925926,66.57407407407408,0)" xlink:href="#R"/><use transform="matrix(0.0925925925925926,0,0,0.0925925925925926,85.0925925925926,0)" xlink:href="#aw"/><use transform="matrix(0.0925925925925926,0,0,0.0925925925925926,101.75925925925927,0)" xlink:href="#T"/></g><g id="L"><use transform="matrix(0.0925925925925926,0,0,0.0925925925925926,0,0)" xlink:href="#Q"/><use transform="matrix(0.0925925925925926,0,0,0.0925925925925926,11.018518518518519,0)" xlink:href="#R"/><use transform="matrix(0.0925925925925926,0,0,0.0925925925925926,29.537037037037038,0)" xlink:href="#aw"/><use transform="matrix(0.0925925925925926,0,0,0.0925925925925926,46.20370370370371,0)" xlink:href="#ay"/><use transform="matrix(0.0925925925925926,0,0,0.0925925925925926,64.72222222222223,0)" xlink:href="#X"/><use transform="matrix(0.0925925925925926,0,0,0.0925925925925926,83.24074074074075,0)" xlink:href="#S"/><use transform="matrix(0.0925925925925926,0,0,0.0925925925925926,101.75925925925927,0)" xlink:href="#aw"/><use transform="matrix(0.0925925925925926,0,0,0.0925925925925926,118.42592592592594,0)" xlink:href="#R"/></g><g id="M"><use transform="matrix(0.0925925925925926,0,0,0.0925925925925926,0,0)" xlink:href="#U"/><use transform="matrix(0.0925925925925926,0,0,0.0925925925925926,7.314814814814816,0)" xlink:href="#X"/><use transform="matrix(0.0925925925925926,0,0,0.0925925925925926,25.833333333333336,0)" xlink:href="#W"/><use transform="matrix(0.0925925925925926,0,0,0.0925925925925926,42.5,0)" xlink:href="#P"/><use transform="matrix(0.0925925925925926,0,0,0.0925925925925926,61.018518518518526,0)" xlink:href="#U"/></g><path d="M101-234c-31-9-42 10-38 44h38v23H63V0H32v-167H5v-23h27c-7-52 17-82 69-68v24" id="bm"/><g id="N"><use transform="matrix(0.0925925925925926,0,0,0.0925925925925926,0,0)" xlink:href="#ax"/><use transform="matrix(0.0925925925925926,0,0,0.0925925925925926,7.314814814814816,0)" xlink:href="#S"/><use transform="matrix(0.0925925925925926,0,0,0.0925925925925926,25.833333333333336,0)" xlink:href="#bm"/><use transform="matrix(0.0925925925925926,0,0,0.0925925925925926,35.092592592592595,0)" xlink:href="#X"/></g></defs></g></svg>