<svg id="Layer_1" data-name="Layer 1" xmlns="http://www.w3.org/2000/svg" xmlns:xlink="http://www.w3.org/1999/xlink" viewBox="0 0 511.86 511.86"><defs><style>.cls-1{fill:url(#linear-gradient);}.cls-2{fill:#fff;}</style><linearGradient id="linear-gradient" x1="567.48" y1="-4.48" x2="563.14" y2="513.88" gradientTransform="matrix(1, 0, 0, -1, -309.35, 513.86)" gradientUnits="userSpaceOnUse"><stop offset="0" stop-color="#822cbe"/><stop offset="1" stop-color="#d772fb"/></linearGradient></defs><title>apple-podcasts</title><rect class="cls-1" width="511.86" height="511.86" rx="113.87"/><path class="cls-2" d="M240.44,448.26c-15.27-5.46-18.54-12.88-24.81-56.38-7.28-50.55-8.87-81.84-4.65-91.75,5.59-13.14,20.78-20.6,42-20.68,21.07-.09,36.39,7.44,42,20.68,4.24,9.89,2.65,41.2-4.64,91.75-4.95,35.32-7.67,44.25-14.5,50.25-9.38,8.31-22.69,10.61-35.32,6.14Zm-65.22-51.87c-52.73-25.94-86.51-69.82-98.79-128.2-3.07-15.07-3.59-51-.69-64.84,7.68-37.11,22.36-66.13,46.75-91.79,35.15-37.06,80.37-56.65,130.7-56.65,49.82,0,94.86,19.23,129.16,55.18,26.1,27.13,40.77,55.84,48.28,93.67,2.56,12.59,2.56,46.92.17,61.08a181.4,181.4,0,0,1-69.1,113c-13,9.79-44.7,26.89-49.82,26.89-1.88,0-2.05-1.94-1.19-9.81,1.53-12.63,3.07-15.25,10.23-18.26,11.44-4.77,30.89-18.63,42.83-30.61a163,163,0,0,0,42.82-75.41c4.44-17.57,3.93-56.64-1-74.73C390,138.36,343.1,93.66,285.61,81.72c-16.73-3.42-47.1-3.42-64,0-58.18,11.94-106.29,58.86-121,117.89-3.92,16-3.92,55.11,0,71.15,9.73,39.07,35,74.9,68.08,96.23a147.45,147.45,0,0,0,17.58,10.07c7.16,3.07,8.7,5.63,10.06,18.25.85,7.68.68,9.9-1.19,9.9-1.2,0-9.9-3.75-19.11-8.19ZM175.9,327c-17.75-14.16-33.44-39.28-39.93-63.91-3.92-14.88-3.92-43.17.17-58,10.75-40.06,40.27-71.12,81.22-85.71,14-4.94,45-6,62.27-2.25C339,130.33,381.15,189.79,373,248.77c-3.24,23.77-11.43,43.29-25.93,61.42-7.17,9.16-24.57,24.54-27.64,24.54-.51,0-1-5.8-1-12.87V309l8.88-10.58c33.44-40.06,31.05-96-5.46-132.74-14.16-14.29-30.54-22.69-51.7-26.56-13.65-2.53-16.55-2.53-30.88-.17-21.76,3.55-38.61,12-53.58,26.78C148.94,202,146.55,258.29,180,298.38L188.8,309v13c0,7.17-.57,13-1.27,13s-5.63-3.41-10.92-7.68Zm59.2-69.66c-15.18-7.07-23.37-20.39-23.54-37.76,0-15.61,8.7-29.23,23.71-37.2,9.56-5,26.45-5,36,0a46.34,46.34,0,0,1,22.18,26.85c9.9,33.65-25.76,63.13-58,48.07Z" transform="translate(-0.14 -0.14)"/><circle class="cls-2" cx="255.74" cy="221.24" r="42.55"/><path class="cls-2" d="M260,280.42a83.61,83.61,0,0,1,14.25,2.9,51.55,51.55,0,0,1,14.26,7.13c3.76,2.73,6.49,5.56,8.19,9s2.56,7.54,3.07,14.25c.34,6.72.34,16-1.19,33.44s-4.61,42.79-7,59.08-4.09,23.55-6.31,28.84a25.82,25.82,0,0,1-18.94,16.55,41,41,0,0,1-9.89.85,42.41,42.41,0,0,1-9.9-.85c-3.92-.86-9-2.39-12.8-5.46-3.92-3.07-6.48-7.51-8.53-13.31s-3.58-12.8-5.63-26.79-4.78-34.8-6.48-50.67-2.39-26.79-2.53-34.13.17-11,1-14.5a28.93,28.93,0,0,1,4.09-9.38,31.14,31.14,0,0,1,6.83-7,27.87,27.87,0,0,1,8-4.3A60.8,60.8,0,0,1,241.35,283c4.43-.85,9.55-1.7,12.18-2.05a13.34,13.34,0,0,1,5.56,0Z" transform="translate(-0.14 -0.14)"/></svg>