<?xml version="1.0" encoding="UTF-8" standalone="no"?>
<svg
   xmlns:dc="http://purl.org/dc/elements/1.1/"
   xmlns:cc="http://creativecommons.org/ns#"
   xmlns:rdf="http://www.w3.org/1999/02/22-rdf-syntax-ns#"
   xmlns:svg="http://www.w3.org/2000/svg"
   xmlns="http://www.w3.org/2000/svg"
   viewBox="0 0 449.33334 449.33334"
   height="449.33334"
   width="449.33334"
   xml:space="preserve"
   id="svg2"
   version="1.1"><metadata
     id="metadata8"><rdf:RDF><cc:Work
         rdf:about=""><dc:format>image/svg+xml</dc:format><dc:type
           rdf:resource="http://purl.org/dc/dcmitype/StillImage" /></cc:Work></rdf:RDF></metadata><defs
     id="defs6" /><g
     transform="matrix(1.3333333,0,0,-1.3333333,0,449.33333)"
     id="g10"><g
       transform="translate(113,113)"
       id="g12"><path
         id="path14"
         style="fill:#ffffff;fill-opacity:1;fill-rule:nonzero;stroke:none"
         d="M 0,55.5 C 0,86.151802 24.848198,111 55.5,111 v 0 C 86.151802,111 111,86.151802 111,55.5 v 0 C 111,24.848198 86.151802,0 55.5,0 V 0 C 24.848198,0 0,24.848198 0,55.5 Z" /></g><g
       transform="translate(0,-15.437012)"
       id="g16"><path
         id="path18"
         style="fill:#2962ff;fill-opacity:1;fill-rule:evenodd;stroke:none"
         d="m 23.155287,239.83882 c -30.873715,-30.87372 -30.873715,-80.92992 0,-111.80363 L 112.5982,38.592285 c 30.87371,-30.873718 80.92991,-30.873718 111.80362,0 l 89.44291,89.442905 c 30.87371,30.87371 30.87371,80.92991 0,111.80363 l -89.44291,89.44292 c -30.87371,30.87372 -80.92991,30.87369 -111.80362,0 z M 207.63127,144.80574 c 21.6116,21.6116 21.6116,56.65092 0,78.26254 -21.6116,21.61159 -56.65092,21.61159 -78.26254,0 -21.6116,-21.61162 -21.6116,-56.65094 0,-78.26254 21.61162,-21.6116 56.65094,-21.6116 78.26254,0 z" /></g></g></svg>